{
.appVersion = "1342";
DisplayStrings = (
"1234nn¹n²n³n/foursuperior nn",
"1/minus 2×3÷4=±¬<>/notequal/approxequal",
"nn/Placeholder no/Placeholder oo/space naranjo\012abcdHefghinojklmnopqrstuvwxyz",
"/space/nbspace m",
"/space uunnuµnntnphlij",
"U/Uhorn",
"/breve/brevecomb_hookabovecomb",
"3/threesuperior.001",
"3/threesuperior.001",
a,
"/idotless/itilde",
"/idotless/tildecomb/itilde",
"×",
"´/brevecomb_acutecomb",
"´/brevecomb_acutecomb a/abreveacute",
"´/acutecomb aá",
"´/acutecomb á",
"´/acutecomb á",
"`/gravecomb à",
"´/acutecomb á",
"´/acutecomb á",
"/breve/brevecomb/Abreve",
"/breve/brevecomb/Abreve",
"/breve/brevecomb/abreve",
"/circumflex/circumflexcomb Â",
"´/acutecomb Á",
"`/gravecomb À",
"´/acutecomb á",
"/tildecomb ã",
"Ð/Dcroat",
"/circumflex/circumflexcomb ê",
"/acutecomb á",
"/acutecomb á",
"/gravecomb",
"/tildecomb",
"/brevecomb",
"/circumflexcomb",
"/tilde/brevecomb_tildecomb",
"`/gravecomb/brevecomb_gravecomb/abrevegrave",
"´/acutecomb/brevecomb_acutecomb/abreveacute",
"/horncomb",
"/hookabovecomb/brevecomb_hookabovecomb",
"/hookabovecomb/breve/brevecomb/brevecomb_hookabovecomb",
"U/Uhorn/horncomb/Uhorn U/Uhorn/Uhornacute",
"O/Ohorn/Ohornacute",
"/hookabovecomb/Ohookabove",
"/dotbelowcomb/odotbelow",
"u/uhorn/uhorndotbelow",
"y/ydotbelow",
"o/ohorn/ohornacute",
"/gravecomb/ohorngrave",
"/hookabovecomb/brevecomb_hookabovecomb",
"/circumflexcomb/circumflexcomb_hookabovecomb/Ecircumflexhookabove",
"/hookabovecomb/ohookabove",
"/brevecomb/Abreve",
"/brevecomb/brevecomb_acutecomb",
"/circumflexcomb/circumflexcomb_acutecomb",
"/circumflexcomb/circumflexcomb_tildecomb",
"/tildecomb/circumflexcomb/circumflexcomb/circumflexcomb_tildecomb",
"V/acircumflextilde n/space còn/space n/uhorntilde a/space/dcroat/acircumflexacute y.",
"/circumflex",
"/caron",
"/tildecomb/tilde",
"¯",
"/tildecomb/brevecomb/brevecomb_tildecomb",
"/tildecomb/ytilde",
"V/Acircumflextilde N",
"V/acircumflextilde n",
"/dieresiscomb ä",
"/macroncomb/Amacron",

glyphs = (
{
glyphname = a;
lastChange = "2021-04-12 09:27:43 +0000";
layers = (
{
anchors = (
{
name = bottom;
position = "{239, 0}";
},
{
name = ogonek;
position = "{389, 33}";
},
{
name = top;
position = "{239, 472}";
}
);
background = {
paths = (
{
closed = 1;
nodes = (
"285 -8 OFFCURVE",
"341 -1 OFFCURVE",
"382 13 CURVE SMOOTH",
"402 20 OFFCURVE",
"407 27 OFFCURVE",
"408 34 CURVE SMOOTH",
"416 122 OFFCURVE",
"418 192 OFFCURVE",
"416 299 CURVE SMOOTH",
"414 394 OFFCURVE",
"397 477 OFFCURVE",
"233 477 CURVE SMOOTH",
"173 477 OFFCURVE",
"128 464 OFFCURVE",
"97 442 CURVE SMOOTH",
"95 441 OFFCURVE",
"94 439 OFFCURVE",
"94 437 CURVE SMOOTH",
"98 412 LINE SMOOTH",
"98 409 OFFCURVE",
"102 409 OFFCURVE",
"105 412 CURVE",
"133 433 OFFCURVE",
"180 446 OFFCURVE",
"233 446 CURVE SMOOTH",
"337 446 OFFCURVE",
"380 409 OFFCURVE",
"380 309 CURVE SMOOTH",
"380 289 OFFCURVE",
"373 282 OFFCURVE",
"363 284 CURVE SMOOTH",
"338 290 OFFCURVE",
"285 296 OFFCURVE",
"237 296 CURVE SMOOTH",
"153 296 OFFCURVE",
"60 267 OFFCURVE",
"60 133 CURVE SMOOTH",
"60 17 OFFCURVE",
"139 -8 OFFCURVE",
"233 -8 CURVE SMOOTH"
);
},
{
closed = 1;
nodes = (
"156 21 OFFCURVE",
"93 48 OFFCURVE",
"93 133 CURVE SMOOTH",
"93 245 OFFCURVE",
"176 267 OFFCURVE",
"228 267 CURVE SMOOTH",
"292 267 OFFCURVE",
"342 258 OFFCURVE",
"364 255 CURVE SMOOTH",
"375 253 OFFCURVE",
"381 244 OFFCURVE",
"381 228 CURVE SMOOTH",
"381 175 OFFCURVE",
"379 103 OFFCURVE",
"372 59 CURVE SMOOTH",
"366 26 OFFCURVE",
"262 21 OFFCURVE",
"236 21 CURVE SMOOTH"
);
}
);
};
layerId = "707362F1-A677-446A-8636-E10BE3A7FAFF";
paths = (
{
closed = 1;
nodes = (
"285 -8 OFFCURVE",
"341 -1 OFFCURVE",
"382 13 CURVE SMOOTH",
"402 20 OFFCURVE",
"407 27 OFFCURVE",
"408 34 CURVE SMOOTH",
"416 122 OFFCURVE",
"418 192 OFFCURVE",
"416 299 CURVE SMOOTH",
"414 394 OFFCURVE",
"397 477 OFFCURVE",
"233 477 CURVE SMOOTH",
"173 477 OFFCURVE",
"128 464 OFFCURVE",
"97 442 CURVE SMOOTH",
"95 441 OFFCURVE",
"94 439 OFFCURVE",
"94 437 CURVE SMOOTH",
"98 412 LINE SMOOTH",
"98 409 OFFCURVE",
"102 409 OFFCURVE",
"105 412 CURVE",
"133 433 OFFCURVE",
"180 446 OFFCURVE",
"233 446 CURVE SMOOTH",
"337 446 OFFCURVE",
"380 409 OFFCURVE",
"380 309 CURVE SMOOTH",
"380 289 OFFCURVE",
"373 282 OFFCURVE",
"363 284 CURVE SMOOTH",
"338 290 OFFCURVE",
"285 296 OFFCURVE",
"237 296 CURVE SMOOTH",
"153 296 OFFCURVE",
"60 267 OFFCURVE",
"60 133 CURVE SMOOTH",
"60 17 OFFCURVE",
"139 -8 OFFCURVE",
"233 -8 CURVE SMOOTH"
);
},
{
closed = 1;
nodes = (
"156 21 OFFCURVE",
"93 48 OFFCURVE",
"93 133 CURVE SMOOTH",
"93 245 OFFCURVE",
"176 267 OFFCURVE",
"228 267 CURVE SMOOTH",
"292 267 OFFCURVE",
"342 258 OFFCURVE",
"364 255 CURVE SMOOTH",
"375 253 OFFCURVE",
"381 244 OFFCURVE",
"381 228 CURVE SMOOTH",
"381 175 OFFCURVE",
"379 103 OFFCURVE",
"372 59 CURVE SMOOTH",
"366 26 OFFCURVE",
"262 21 OFFCURVE",
"236 21 CURVE SMOOTH"
);
}
);
width = 477;
},
{
anchors = (
{
name = bottom;
position = "{234, 0}";
},
{
name = ogonek;
position = "{421, 10}";
},
{
name = top;
position = "{234, 472}";
}
);
background = {
paths = (
{
closed = 1;
nodes = (
"264 -7 OFFCURVE",
"373 1 OFFCURVE",
"408 20 CURVE SMOOTH",
"424 28 OFFCURVE",
"426 32 OFFCURVE",
"430 50 CURVE",
"438 130 OFFCURVE",
"438 210 OFFCURVE",
"438 290 CURVE SMOOTH",
"438 386 OFFCURVE",
"415 477 OFFCURVE",
"230 477 CURVE SMOOTH",
"170 477 OFFCURVE",
"110 460 OFFCURVE",
"76 439 CURVE SMOOTH",
"61 430 OFFCURVE",
"59 427 OFFCURVE",
"63 407 CURVE SMOOTH",
"73 345 LINE SMOOTH",
"76 328 OFFCURVE",
"78 326 OFFCURVE",
"96 334 CURVE SMOOTH",
"128 349 OFFCURVE",
"177 376 OFFCURVE",
"227 376 CURVE SMOOTH",
"271 376 OFFCURVE",
"300 362 OFFCURVE",
"300 322 CURVE SMOOTH",
"300 313 OFFCURVE",
"299 309 OFFCURVE",
"292 312 CURVE",
"271 315 OFFCURVE",
"249 316 OFFCURVE",
"225 316 CURVE SMOOTH",
"158 316 OFFCURVE",
"30 289 OFFCURVE",
"30 147 CURVE SMOOTH",
"30 18 OFFCURVE",
"126 -7 OFFCURVE",
"230 -7 CURVE SMOOTH"
);
},
{
closed = 1;
nodes = (
"194 80 OFFCURVE",
"174 110 OFFCURVE",
"174 147 CURVE SMOOTH",
"174 216 OFFCURVE",
"216 227 OFFCURVE",
"238 227 CURVE SMOOTH",
"245 227 OFFCURVE",
"270 228 OFFCURVE",
"282 218 CURVE SMOOTH",
"287 214 OFFCURVE",
"290 209 OFFCURVE",
"290 202 CURVE SMOOTH",
"292 169 OFFCURVE",
"288 135 OFFCURVE",
"286 104 CURVE SMOOTH",
"284 85 OFFCURVE",
"258 80 OFFCURVE",
"238 80 CURVE SMOOTH"
);
}
);
};
layerId = "D1BC8BBB-1669-4C46-BC21-42BF6808B2B9";
paths = (
{
closed = 1;
nodes = (
"264 -7 OFFCURVE",
"373 1 OFFCURVE",
"408 20 CURVE SMOOTH",
"424 28 OFFCURVE",
"426 32 OFFCURVE",
"430 50 CURVE",
"438 130 OFFCURVE",
"438 210 OFFCURVE",
"438 290 CURVE SMOOTH",
"438 386 OFFCURVE",
"415 477 OFFCURVE",
"230 477 CURVE SMOOTH",
"170 477 OFFCURVE",
"110 460 OFFCURVE",
"76 439 CURVE SMOOTH",
"61 430 OFFCURVE",
"59 427 OFFCURVE",
"63 407 CURVE SMOOTH",
"73 345 LINE SMOOTH",
"76 328 OFFCURVE",
"78 326 OFFCURVE",
"96 334 CURVE SMOOTH",
"128 349 OFFCURVE",
"177 376 OFFCURVE",
"227 376 CURVE SMOOTH",
"271 376 OFFCURVE",
"300 362 OFFCURVE",
"300 322 CURVE SMOOTH",
"300 313 OFFCURVE",
"299 309 OFFCURVE",
"292 312 CURVE",
"271 315 OFFCURVE",
"249 316 OFFCURVE",
"225 316 CURVE SMOOTH",
"158 316 OFFCURVE",
"30 289 OFFCURVE",
"30 147 CURVE SMOOTH",
"30 18 OFFCURVE",
"126 -7 OFFCURVE",
"230 -7 CURVE SMOOTH"
);
},
{
closed = 1;
nodes = (
"194 80 OFFCURVE",
"174 110 OFFCURVE",
"174 147 CURVE SMOOTH",
"174 216 OFFCURVE",
"216 227 OFFCURVE",
"238 227 CURVE SMOOTH",
"245 227 OFFCURVE",
"270 228 OFFCURVE",
"282 218 CURVE SMOOTH",
"287 214 OFFCURVE",
"290 209 OFFCURVE",
"290 202 CURVE SMOOTH",
"292 169 OFFCURVE",
"288 135 OFFCURVE",
"286 104 CURVE SMOOTH",
"284 85 OFFCURVE",
"258 80 OFFCURVE",
"238 80 CURVE SMOOTH"
);
}
);
width = 468;
}
);
note = a;
unicode = 0061;
},
{
glyphname = b;
lastChange = "2021-04-12 08:36:05 +0000";
layers = (
{
anchors = (
{
name = bottom;
position = "{238, 0}";
},
{
name = top;
position = "{238, 708}";
}
);
background = {
paths = (
{
closed = 1;
nodes = (
"353 -6 OFFCURVE",
"425 63 OFFCURVE",
"425 224 CURVE SMOOTH",
"425 427 OFFCURVE",
"324 476 OFFCURVE",
"240 476 CURVE SMOOTH",
"190 476 OFFCURVE",
"136 465 OFFCURVE",
"112 457 CURVE SMOOTH",
"100 452 OFFCURVE",
"94 459 OFFCURVE",
"94 472 CURVE SMOOTH",
"94 481 OFFCURVE",
"100 650 OFFCURVE",
"104 700 CURVE SMOOTH",
"104 702 OFFCURVE",
"105 708 OFFCURVE",
"98 708 CURVE SMOOTH",
"77 708 LINE SMOOTH",
"72 708 OFFCURVE",
"71 703 OFFCURVE",
"71 701 CURVE SMOOTH",
"61 565 OFFCURVE",
"58 417 OFFCURVE",
"61 287 CURVE SMOOTH",
"62 203 OFFCURVE",
"67 99 OFFCURVE",
"71 66 CURVE SMOOTH",
"76 24 OFFCURVE",
"76 24 OFFCURVE",
"103 14 CURVE SMOOTH",
"111 11 OFFCURVE",
"169 -6 OFFCURVE",
"236 -6 CURVE SMOOTH"
);
},
{
closed = 1;
nodes = (
"186 22 OFFCURVE",
"144 33 OFFCURVE",
"120 41 CURVE SMOOTH",
"111 45 OFFCURVE",
"105 50 OFFCURVE",
"104 65 CURVE SMOOTH",
"94 191 OFFCURVE",
"92 373 OFFCURVE",
"96 407 CURVE SMOOTH",
"97 420 OFFCURVE",
"106 425 OFFCURVE",
"114 426 CURVE SMOOTH",
"129 428 OFFCURVE",
"201 446 OFFCURVE",
"234 446 CURVE SMOOTH",
"303 446 OFFCURVE",
"392 411 OFFCURVE",
"392 228 CURVE SMOOTH",
"392 74 OFFCURVE",
"324 22 OFFCURVE",
"234 22 CURVE SMOOTH"
);
}
);
};
layerId = "707362F1-A677-446A-8636-E10BE3A7FAFF";
paths = (
{
closed = 1;
nodes = (
"353 -6 OFFCURVE",
"425 63 OFFCURVE",
"425 224 CURVE SMOOTH",
"425 427 OFFCURVE",
"324 476 OFFCURVE",
"240 476 CURVE SMOOTH",
"190 476 OFFCURVE",
"136 465 OFFCURVE",
"112 457 CURVE SMOOTH",
"100 452 OFFCURVE",
"94 459 OFFCURVE",
"94 472 CURVE SMOOTH",
"94 481 OFFCURVE",
"100 650 OFFCURVE",
"104 700 CURVE SMOOTH",
"104 702 OFFCURVE",
"105 708 OFFCURVE",
"98 708 CURVE SMOOTH",
"77 708 LINE SMOOTH",
"72 708 OFFCURVE",
"71 703 OFFCURVE",
"71 701 CURVE SMOOTH",
"61 565 OFFCURVE",
"58 417 OFFCURVE",
"61 287 CURVE SMOOTH",
"62 203 OFFCURVE",
"67 99 OFFCURVE",
"71 66 CURVE SMOOTH",
"76 24 OFFCURVE",
"76 24 OFFCURVE",
"103 14 CURVE SMOOTH",
"111 11 OFFCURVE",
"169 -6 OFFCURVE",
"236 -6 CURVE SMOOTH"
);
},
{
closed = 1;
nodes = (
"186 22 OFFCURVE",
"144 33 OFFCURVE",
"120 41 CURVE SMOOTH",
"111 45 OFFCURVE",
"105 50 OFFCURVE",
"104 65 CURVE SMOOTH",
"94 191 OFFCURVE",
"92 373 OFFCURVE",
"96 407 CURVE SMOOTH",
"97 420 OFFCURVE",
"106 425 OFFCURVE",
"114 426 CURVE SMOOTH",
"129 428 OFFCURVE",
"201 446 OFFCURVE",
"234 446 CURVE SMOOTH",
"303 446 OFFCURVE",
"392 411 OFFCURVE",
"392 228 CURVE SMOOTH",
"392 74 OFFCURVE",
"324 22 OFFCURVE",
"234 22 CURVE SMOOTH"
);
}
);
width = 475;
},
{
anchors = (
{
name = bottom;
position = "{249, 0}";
},
{
name = top;
position = "{249, 687}";
}
);
background = {
paths = (
{
closed = 1;
nodes = (
"378 -6 OFFCURVE",
"458 67 OFFCURVE",
"458 229 CURVE SMOOTH",
"458 431 OFFCURVE",
"352 476 OFFCURVE",
"254 476 CURVE SMOOTH",
"240 476 OFFCURVE",
"217 470 OFFCURVE",
"205 468 CURVE SMOOTH",
"198 467 OFFCURVE",
"191 466 OFFCURVE",
"191 477 CURVE SMOOTH",
"191 538 OFFCURVE",
"201 621 OFFCURVE",
"211 681 CURVE SMOOTH",
"214 704 OFFCURVE",
"218 708 OFFCURVE",
"195 708 CURVE SMOOTH",
"86 708 LINE SMOOTH",
"75 708 OFFCURVE",
"67 707 OFFCURVE",
"66 697 CURVE SMOOTH",
"50 590 OFFCURVE",
"40 433 OFFCURVE",
"40 263 CURVE SMOOTH",
"40 201 OFFCURVE",
"42 90 OFFCURVE",
"53 52 CURVE SMOOTH",
"57 35 OFFCURVE",
"61 28 OFFCURVE",
"93 18 CURVE SMOOTH",
"116 9 OFFCURVE",
"176 -6 OFFCURVE",
"246 -6 CURVE SMOOTH"
);
},
{
closed = 1;
nodes = (
"226 106 OFFCURVE",
"209 110 OFFCURVE",
"198 114 CURVE",
"195 117 OFFCURVE",
"194 119 OFFCURVE",
"194 126 CURVE SMOOTH",
"192 195 OFFCURVE",
"191 263 OFFCURVE",
"191 332 CURVE SMOOTH",
"191 340 OFFCURVE",
"192 342 OFFCURVE",
"197 343 CURVE SMOOTH",
"211 348 OFFCURVE",
"231 354 OFFCURVE",
"245 354 CURVE SMOOTH",
"272 354 OFFCURVE",
"309 339 OFFCURVE",
"309 228 CURVE SMOOTH",
"309 135 OFFCURVE",
"281 106 OFFCURVE",
"245 106 CURVE SMOOTH"
);
}
);
};
layerId = "D1BC8BBB-1669-4C46-BC21-42BF6808B2B9";
paths = (
{
closed = 1;
nodes = (
"378 -6 OFFCURVE",
"458 67 OFFCURVE",
"458 229 CURVE SMOOTH",
"458 431 OFFCURVE",
"352 476 OFFCURVE",
"254 476 CURVE SMOOTH",
"240 476 OFFCURVE",
"217 470 OFFCURVE",
"205 468 CURVE SMOOTH",
"198 467 OFFCURVE",
"191 466 OFFCURVE",
"191 477 CURVE SMOOTH",
"191 538 OFFCURVE",
"201 621 OFFCURVE",
"211 681 CURVE SMOOTH",
"214 704 OFFCURVE",
"218 708 OFFCURVE",
"195 708 CURVE SMOOTH",
"86 708 LINE SMOOTH",
"75 708 OFFCURVE",
"67 707 OFFCURVE",
"66 697 CURVE SMOOTH",
"50 590 OFFCURVE",
"40 433 OFFCURVE",
"40 263 CURVE SMOOTH",
"40 201 OFFCURVE",
"42 90 OFFCURVE",
"53 52 CURVE SMOOTH",
"57 35 OFFCURVE",
"61 28 OFFCURVE",
"93 18 CURVE SMOOTH",
"116 9 OFFCURVE",
"176 -6 OFFCURVE",
"246 -6 CURVE SMOOTH"
);
},
{
closed = 1;
nodes = (
"226 106 OFFCURVE",
"209 110 OFFCURVE",
"198 114 CURVE",
"195 117 OFFCURVE",
"194 119 OFFCURVE",
"194 126 CURVE SMOOTH",
"192 195 OFFCURVE",
"191 263 OFFCURVE",
"191 332 CURVE SMOOTH",
"191 340 OFFCURVE",
"192 342 OFFCURVE",
"197 343 CURVE SMOOTH",
"211 348 OFFCURVE",
"231 354 OFFCURVE",
"245 354 CURVE SMOOTH",
"272 354 OFFCURVE",
"309 339 OFFCURVE",
"309 228 CURVE SMOOTH",
"309 135 OFFCURVE",
"281 106 OFFCURVE",
"245 106 CURVE SMOOTH"
);
}
);
width = 498;
}
);
leftKerningGroup = b;
note = b;
rightKerningGroup = b;
unicode = 0062;
},
{
glyphname = c;
lastChange = "2021-04-12 09:28:43 +0000";
layers = (
{
anchors = (
{
name = bottom;
position = "{197, 0}";
},
{
name = top;
position = "{230, 472}";
}
);
background = {
paths = (
{
closed = 1;
nodes = (
"283 -5 OFFCURVE",
"326 4 OFFCURVE",
"356 24 CURVE",
"359 25 OFFCURVE",
"360 27 OFFCURVE",
"359 31 CURVE",
"350 47 LINE",
"349 50 OFFCURVE",
"346 50 OFFCURVE",
"343 48 CURVE",
"315 35 OFFCURVE",
"280 25 OFFCURVE",
"232 25 CURVE SMOOTH",
"112 25 OFFCURVE",
"73 109 OFFCURVE",
"73 236 CURVE SMOOTH",
"73 335 OFFCURVE",
"106 452 OFFCURVE",
"231 452 CURVE SMOOTH",
"274 452 OFFCURVE",
"322 438 OFFCURVE",
"344 413 CURVE SMOOTH",
"348 409 OFFCURVE",
"353 408 OFFCURVE",
"353 415 CURVE SMOOTH",
"353 438 LINE SMOOTH",
"353 445 OFFCURVE",
"353 445 OFFCURVE",
"348 450 CURVE SMOOTH",
"322 471 OFFCURVE",
"284 483 OFFCURVE",
"231 483 CURVE SMOOTH",
"80 483 OFFCURVE",
"40 365 OFFCURVE",
"40 237 CURVE SMOOTH",
"40 100 OFFCURVE",
"77 -5 OFFCURVE",
"232 -5 CURVE SMOOTH"
);
}
);
};
layerId = "707362F1-A677-446A-8636-E10BE3A7FAFF";
paths = (
{
closed = 1;
nodes = (
"283 -5 OFFCURVE",
"326 4 OFFCURVE",
"356 24 CURVE",
"359 25 OFFCURVE",
"360 27 OFFCURVE",
"359 31 CURVE",
"350 47 LINE",
"349 50 OFFCURVE",
"346 50 OFFCURVE",
"343 48 CURVE",
"315 35 OFFCURVE",
"280 25 OFFCURVE",
"232 25 CURVE SMOOTH",
"112 25 OFFCURVE",
"73 109 OFFCURVE",
"73 236 CURVE SMOOTH",
"73 335 OFFCURVE",
"106 452 OFFCURVE",
"231 452 CURVE SMOOTH",
"274 452 OFFCURVE",
"322 438 OFFCURVE",
"344 413 CURVE SMOOTH",
"348 409 OFFCURVE",
"353 408 OFFCURVE",
"353 415 CURVE SMOOTH",
"353 438 LINE SMOOTH",
"353 445 OFFCURVE",
"353 445 OFFCURVE",
"348 450 CURVE SMOOTH",
"322 471 OFFCURVE",
"284 483 OFFCURVE",
"231 483 CURVE SMOOTH",
"80 483 OFFCURVE",
"40 365 OFFCURVE",
"40 237 CURVE SMOOTH",
"40 100 OFFCURVE",
"77 -5 OFFCURVE",
"232 -5 CURVE SMOOTH"
);
}
);
width = 394;
},
{
anchors = (
{
name = bottom;
position = "{217, 0}";
},
{
name = top;
position = "{217, 472}";
}
);
background = {
paths = (
{
closed = 1;
nodes = (
"301 -5 OFFCURVE",
"362 7 OFFCURVE",
"398 34 CURVE SMOOTH",
"408 41 OFFCURVE",
"410 46 OFFCURVE",
"405 58 CURVE SMOOTH",
"378 122 LINE SMOOTH",
"372 135 OFFCURVE",
"363 137 OFFCURVE",
"350 131 CURVE SMOOTH",
"313 114 OFFCURVE",
"286 106 OFFCURVE",
"258 106 CURVE SMOOTH",
"208 106 OFFCURVE",
"176 153 OFFCURVE",
"176 236 CURVE SMOOTH",
"176 302 OFFCURVE",
"207 360 OFFCURVE",
"267 360 CURVE SMOOTH",
"307 360 OFFCURVE",
"343 355 OFFCURVE",
"380 326 CURVE SMOOTH",
"387 320 OFFCURVE",
"397 320 OFFCURVE",
"397 332 CURVE SMOOTH",
"397 415 LINE SMOOTH",
"397 425 OFFCURVE",
"395 428 OFFCURVE",
"384 439 CURVE",
"349 467 OFFCURVE",
"305 478 OFFCURVE",
"247 478 CURVE SMOOTH",
"74 478 OFFCURVE",
"30 360 OFFCURVE",
"30 237 CURVE SMOOTH",
"30 105 OFFCURVE",
"71 -5 OFFCURVE",
"248 -5 CURVE SMOOTH"
);
}
);
};
layerId = "D1BC8BBB-1669-4C46-BC21-42BF6808B2B9";
paths = (
{
closed = 1;
nodes = (
"301 -5 OFFCURVE",
"362 7 OFFCURVE",
"398 34 CURVE SMOOTH",
"408 41 OFFCURVE",
"410 46 OFFCURVE",
"405 58 CURVE SMOOTH",
"378 122 LINE SMOOTH",
"372 135 OFFCURVE",
"363 137 OFFCURVE",
"350 131 CURVE SMOOTH",
"313 114 OFFCURVE",
"286 106 OFFCURVE",
"258 106 CURVE SMOOTH",
"208 106 OFFCURVE",
"176 153 OFFCURVE",
"176 236 CURVE SMOOTH",
"176 302 OFFCURVE",
"207 360 OFFCURVE",
"267 360 CURVE SMOOTH",
"307 360 OFFCURVE",
"343 355 OFFCURVE",
"380 326 CURVE SMOOTH",
"387 320 OFFCURVE",
"397 320 OFFCURVE",
"397 332 CURVE SMOOTH",
"397 415 LINE SMOOTH",
"397 425 OFFCURVE",
"395 428 OFFCURVE",
"384 439 CURVE",
"349 467 OFFCURVE",
"305 478 OFFCURVE",
"247 478 CURVE SMOOTH",
"74 478 OFFCURVE",
"30 360 OFFCURVE",
"30 237 CURVE SMOOTH",
"30 105 OFFCURVE",
"71 -5 OFFCURVE",
"248 -5 CURVE SMOOTH"
);
}
);
width = 433;
}
);
note = c;
unicode = 0063;
},
{
glyphname = d;
lastChange = "2021-04-12 10:32:08 +0000";
layers = (
{
anchors = (
{
name = bottom;
position = "{239, 0}";
},
{
name = center;
position = "{239, 236}";
},
{
name = top;
position = "{391, 708}";
},
{
name = topright;
position = "{457, 708}";
}
);
background = {
paths = (
{
closed = 1;
nodes = (
"50 142 OFFCURVE",
"68 78 OFFCURVE",
"104 39 CURVE SMOOTH",
"136 4 OFFCURVE",
"190 -9 OFFCURVE",
"245 -10 CURVE SMOOTH",
"300 -10 OFFCURVE",
"356 2 OFFCURVE",
"393 18 CURVE SMOOTH",
"406 24 OFFCURVE",
"408 31 OFFCURVE",
"408 37 CURVE SMOOTH",
"421 257 OFFCURVE",
"419 480 OFFCURVE",
"408 704 CURVE SMOOTH",
"408 707 OFFCURVE",
"405 708 OFFCURVE",
"404 708 CURVE SMOOTH",
"378 708 LINE SMOOTH",
"376 708 OFFCURVE",
"374 707 OFFCURVE",
"374 704 CURVE",
"374 704 OFFCURVE",
"380 520 OFFCURVE",
"380 465 CURVE SMOOTH",
"380 452 OFFCURVE",
"376 454 OFFCURVE",
"357 459 CURVE SMOOTH",
"331 465 OFFCURVE",
"287 472 OFFCURVE",
"241 472 CURVE SMOOTH",
"156 472 OFFCURVE",
"50 433 OFFCURVE",
"50 230 CURVE SMOOTH"
);
},
{
closed = 1;
nodes = (
"83 414 OFFCURVE",
"176 440 OFFCURVE",
"241 440 CURVE SMOOTH",
"274 440 OFFCURVE",
"326 433 OFFCURVE",
"365 424 CURVE",
"373 421 OFFCURVE",
"382 415 OFFCURVE",
"382 401 CURVE SMOOTH",
"384 367 OFFCURVE",
"382 145 OFFCURVE",
"374 55 CURVE SMOOTH",
"374 48 OFFCURVE",
"366 45 OFFCURVE",
"357 40 CURVE SMOOTH",
"295 12 OFFCURVE",
"182 7 OFFCURVE",
"133 57 CURVE SMOOTH",
"101 88 OFFCURVE",
"83 144 OFFCURVE",
"83 230 CURVE SMOOTH"
);
}
);
};
layerId = "707362F1-A677-446A-8636-E10BE3A7FAFF";
paths = (
{
closed = 1;
nodes = (
"50 142 OFFCURVE",
"68 78 OFFCURVE",
"104 39 CURVE SMOOTH",
"136 4 OFFCURVE",
"190 -9 OFFCURVE",
"245 -10 CURVE SMOOTH",
"300 -10 OFFCURVE",
"356 2 OFFCURVE",
"393 18 CURVE SMOOTH",
"406 24 OFFCURVE",
"408 31 OFFCURVE",
"408 37 CURVE SMOOTH",
"421 257 OFFCURVE",
"419 480 OFFCURVE",
"408 704 CURVE SMOOTH",
"408 707 OFFCURVE",
"405 708 OFFCURVE",
"404 708 CURVE SMOOTH",
"378 708 LINE SMOOTH",
"376 708 OFFCURVE",
"374 707 OFFCURVE",
"374 704 CURVE",
"374 704 OFFCURVE",
"380 520 OFFCURVE",
"380 465 CURVE SMOOTH",
"380 452 OFFCURVE",
"376 454 OFFCURVE",
"357 459 CURVE SMOOTH",
"331 465 OFFCURVE",
"287 472 OFFCURVE",
"241 472 CURVE SMOOTH",
"156 472 OFFCURVE",
"50 433 OFFCURVE",
"50 230 CURVE SMOOTH"
);
},
{
closed = 1;
nodes = (
"83 414 OFFCURVE",
"176 440 OFFCURVE",
"241 440 CURVE SMOOTH",
"274 440 OFFCURVE",
"326 433 OFFCURVE",
"365 424 CURVE",
"373 421 OFFCURVE",
"382 415 OFFCURVE",
"382 401 CURVE SMOOTH",
"384 367 OFFCURVE",
"382 145 OFFCURVE",
"374 55 CURVE SMOOTH",
"374 48 OFFCURVE",
"366 45 OFFCURVE",
"357 40 CURVE SMOOTH",
"295 12 OFFCURVE",
"182 7 OFFCURVE",
"133 57 CURVE SMOOTH",
"101 88 OFFCURVE",
"83 144 OFFCURVE",
"83 230 CURVE SMOOTH"
);
}
);
width = 477;
},
{
anchors = (
{
name = bottom;
position = "{248, 0}";
},
{
name = center;
position = "{248, 236}";
},
{
name = top;
position = "{248, 687}";
},
{
name = topright;
position = "{475, 684}";
}
);
background = {
paths = (
{
closed = 1;
nodes = (
"33 130 OFFCURVE",
"62 64 OFFCURVE",
"115 28 CURVE SMOOTH",
"148 5 OFFCURVE",
"192 -6 OFFCURVE",
"244 -6 CURVE SMOOTH",
"313 -6 OFFCURVE",
"374 9 OFFCURVE",
"398 18 CURVE SMOOTH",
"430 28 OFFCURVE",
"433 35 OFFCURVE",
"438 52 CURVE SMOOTH",
"464 129 OFFCURVE",
"456 528 OFFCURVE",
"439 676 CURVE SMOOTH",
"438 686 OFFCURVE",
"431 687 OFFCURVE",
"420 687 CURVE SMOOTH",
"310 687 LINE SMOOTH",
"295 687 OFFCURVE",
"290 687 OFFCURVE",
"294 660 CURVE SMOOTH",
"300 599 OFFCURVE",
"309 538 OFFCURVE",
"308 477 CURVE SMOOTH",
"308 466 OFFCURVE",
"301 467 OFFCURVE",
"294 468 CURVE SMOOTH",
"282 470 OFFCURVE",
"259 476 OFFCURVE",
"244 476 CURVE SMOOTH",
"146 476 OFFCURVE",
"39 431 OFFCURVE",
"35 229 CURVE SMOOTH"
);
},
{
closed = 1;
nodes = (
"187 339 OFFCURVE",
"225 354 OFFCURVE",
"253 354 CURVE SMOOTH",
"266 354 OFFCURVE",
"286 348 OFFCURVE",
"300 343 CURVE SMOOTH",
"305 342 OFFCURVE",
"306 340 OFFCURVE",
"306 332 CURVE SMOOTH",
"305 263 OFFCURVE",
"302 195 OFFCURVE",
"299 126 CURVE SMOOTH",
"299 119 OFFCURVE",
"297 117 OFFCURVE",
"295 114 CURVE",
"282 110 OFFCURVE",
"266 106 OFFCURVE",
"248 106 CURVE SMOOTH",
"210 106 OFFCURVE",
"183 135 OFFCURVE",
"185 228 CURVE SMOOTH"
);
}
);
};
layerId = "D1BC8BBB-1669-4C46-BC21-42BF6808B2B9";
paths = (
{
closed = 1;
nodes = (
"33 130 OFFCURVE",
"62 64 OFFCURVE",
"115 28 CURVE SMOOTH",
"148 5 OFFCURVE",
"192 -6 OFFCURVE",
"244 -6 CURVE SMOOTH",
"313 -6 OFFCURVE",
"374 9 OFFCURVE",
"398 18 CURVE SMOOTH",
"430 28 OFFCURVE",
"433 35 OFFCURVE",
"438 52 CURVE SMOOTH",
"464 129 OFFCURVE",
"456 528 OFFCURVE",
"439 676 CURVE SMOOTH",
"438 686 OFFCURVE",
"431 687 OFFCURVE",
"420 687 CURVE SMOOTH",
"310 687 LINE SMOOTH",
"295 687 OFFCURVE",
"290 687 OFFCURVE",
"294 660 CURVE SMOOTH",
"300 599 OFFCURVE",
"309 538 OFFCURVE",
"308 477 CURVE SMOOTH",
"308 466 OFFCURVE",
"301 467 OFFCURVE",
"294 468 CURVE SMOOTH",
"282 470 OFFCURVE",
"259 476 OFFCURVE",
"244 476 CURVE SMOOTH",
"146 476 OFFCURVE",
"39 431 OFFCURVE",
"35 229 CURVE SMOOTH"
);
},
{
closed = 1;
nodes = (
"187 339 OFFCURVE",
"225 354 OFFCURVE",
"253 354 CURVE SMOOTH",
"266 354 OFFCURVE",
"286 348 OFFCURVE",
"300 343 CURVE SMOOTH",
"305 342 OFFCURVE",
"306 340 OFFCURVE",
"306 332 CURVE SMOOTH",
"305 263 OFFCURVE",
"302 195 OFFCURVE",
"299 126 CURVE SMOOTH",
"299 119 OFFCURVE",
"297 117 OFFCURVE",
"295 114 CURVE",
"282 110 OFFCURVE",
"266 106 OFFCURVE",
"248 106 CURVE SMOOTH",
"210 106 OFFCURVE",
"183 135 OFFCURVE",
"185 228 CURVE SMOOTH"
);
}
);
width = 495;
}
);
note = d;
unicode = 0064;
},
{
color = 0;
glyphname = e;
lastChange = "2021-04-12 10:05:11 +0000";
layers = (
{
anchors = (
{
name = bottom;
position = "{232, 0}";
},
{
name = ogonek;
position = "{261, 10}";
},
{
name = top;
position = "{232, 472}";
}
);
background = {
paths = (
{
closed = 1;
nodes = (
"50 100 OFFCURVE",
"85 -5 OFFCURVE",
"242 -5 CURVE SMOOTH",
"308 -5 OFFCURVE",
"372 6 OFFCURVE",
"413 38 CURVE",
"417 40 OFFCURVE",
"417 42 OFFCURVE",
"416 45 CURVE SMOOTH",
"409 59 LINE SMOOTH",
"405 66 OFFCURVE",
"398 61 OFFCURVE",
"395 59 CURVE SMOOTH",
"354 33 OFFCURVE",
"290 25 OFFCURVE",
"242 25 CURVE SMOOTH",
"127 25 OFFCURVE",
"85 103 OFFCURVE",
"83 216 CURVE SMOOTH",
"83 229 OFFCURVE",
"92 229 OFFCURVE",
"94 229 CURVE SMOOTH",
"395 229 LINE SMOOTH",
"410 229 OFFCURVE",
"418 231 OFFCURVE",
"418 276 CURVE SMOOTH",
"418 374 OFFCURVE",
"397 483 OFFCURVE",
"241 483 CURVE SMOOTH",
"90 483 OFFCURVE",
"50 365 OFFCURVE",
"50 237 CURVE SMOOTH"
);
},
{
closed = 1;
nodes = (
"384 263 OFFCURVE",
"377 261 OFFCURVE",
"363 261 CURVE",
"274 261 OFFCURVE",
"185 261 OFFCURVE",
"96 261 CURVE SMOOTH",
"84 261 OFFCURVE",
"84 265 OFFCURVE",
"84 275 CURVE SMOOTH",
"88 349 OFFCURVE",
"123 452 OFFCURVE",
"241 452 CURVE SMOOTH",
"362 452 OFFCURVE",
"384 365 OFFCURVE",
"384 281 CURVE SMOOTH"
);
}
);
};
layerId = "707362F1-A677-446A-8636-E10BE3A7FAFF";
paths = (
{
closed = 1;
nodes = (
"50 100 OFFCURVE",
"85 -5 OFFCURVE",
"242 -5 CURVE SMOOTH",
"308 -5 OFFCURVE",
"372 6 OFFCURVE",
"413 38 CURVE",
"417 40 OFFCURVE",
"417 42 OFFCURVE",
"416 45 CURVE SMOOTH",
"409 59 LINE SMOOTH",
"405 66 OFFCURVE",
"398 61 OFFCURVE",
"395 59 CURVE SMOOTH",
"354 33 OFFCURVE",
"290 25 OFFCURVE",
"242 25 CURVE SMOOTH",
"127 25 OFFCURVE",
"85 103 OFFCURVE",
"83 216 CURVE SMOOTH",
"83 229 OFFCURVE",
"92 229 OFFCURVE",
"94 229 CURVE SMOOTH",
"395 229 LINE SMOOTH",
"410 229 OFFCURVE",
"418 231 OFFCURVE",
"418 276 CURVE SMOOTH",
"418 374 OFFCURVE",
"397 483 OFFCURVE",
"241 483 CURVE SMOOTH",
"90 483 OFFCURVE",
"50 365 OFFCURVE",
"50 237 CURVE SMOOTH"
);
},
{
closed = 1;
nodes = (
"384 263 OFFCURVE",
"377 261 OFFCURVE",
"363 261 CURVE",
"274 261 OFFCURVE",
"185 261 OFFCURVE",
"96 261 CURVE SMOOTH",
"84 261 OFFCURVE",
"84 265 OFFCURVE",
"84 275 CURVE SMOOTH",
"88 349 OFFCURVE",
"123 452 OFFCURVE",
"241 452 CURVE SMOOTH",
"362 452 OFFCURVE",
"384 365 OFFCURVE",
"384 281 CURVE SMOOTH"
);
}
);
width = 463;
},
{
anchors = (
{
name = bottom;
position = "{245, 0}";
},
{
name = ogonek;
position = "{297, 10}";
},
{
name = top;
position = "{245, 472}";
}
);
background = {
paths = (
{
closed = 1;
nodes = (
"35 105 OFFCURVE",
"75 -5 OFFCURVE",
"253 -5 CURVE SMOOTH",
"320 -5 OFFCURVE",
"396 8 OFFCURVE",
"443 41 CURVE SMOOTH",
"459 52 OFFCURVE",
"465 54 OFFCURVE",
"455 72 CURVE SMOOTH",
"431 119 LINE SMOOTH",
"419 143 OFFCURVE",
"412 137 OFFCURVE",
"393 126 CURVE SMOOTH",
"379 118 OFFCURVE",
"335 98 OFFCURVE",
"289 98 CURVE SMOOTH",
"228 98 OFFCURVE",
"192 138 OFFCURVE",
"187 186 CURVE",
"187 195 OFFCURVE",
"187 198 OFFCURVE",
"196 198 CURVE SMOOTH",
"411 198 LINE SMOOTH",
"439 198 OFFCURVE",
"453 214 OFFCURVE",
"453 271 CURVE SMOOTH",
"453 367 OFFCURVE",
"430 478 OFFCURVE",
"252 478 CURVE SMOOTH",
"79 478 OFFCURVE",
"35 360 OFFCURVE",
"35 237 CURVE SMOOTH"
);
},
{
closed = 1;
nodes = (
"306 277 OFFCURVE",
"306 275 OFFCURVE",
"297 275 CURVE SMOOTH",
"261 275 OFFCURVE",
"224 275 OFFCURVE",
"188 275 CURVE SMOOTH",
"182 275 OFFCURVE",
"181 278 OFFCURVE",
"183 300 CURVE SMOOTH",
"188 332 OFFCURVE",
"206 368 OFFCURVE",
"248 368 CURVE SMOOTH",
"285 368 OFFCURVE",
"305 345 OFFCURVE",
"305 295 CURVE SMOOTH"
);
}
);
};
layerId = "D1BC8BBB-1669-4C46-BC21-42BF6808B2B9";
paths = (
{
closed = 1;
nodes = (
"35 105 OFFCURVE",
"75 -5 OFFCURVE",
"253 -5 CURVE SMOOTH",
"320 -5 OFFCURVE",
"396 8 OFFCURVE",
"443 41 CURVE SMOOTH",
"459 52 OFFCURVE",
"464 54 OFFCURVE",
"455 72 CURVE SMOOTH",
"431 119 LINE SMOOTH",
"419 143 OFFCURVE",
"412 137 OFFCURVE",
"393 126 CURVE SMOOTH",
"379 118 OFFCURVE",
"335 98 OFFCURVE",
"289 98 CURVE SMOOTH",
"228 98 OFFCURVE",
"192 138 OFFCURVE",
"187 186 CURVE",
"187 195 OFFCURVE",
"187 198 OFFCURVE",
"196 198 CURVE SMOOTH",
"411 198 LINE SMOOTH",
"439 198 OFFCURVE",
"453 214 OFFCURVE",
"453 271 CURVE SMOOTH",
"453 367 OFFCURVE",
"430 478 OFFCURVE",
"252 478 CURVE SMOOTH",
"79 478 OFFCURVE",
"35 360 OFFCURVE",
"35 237 CURVE SMOOTH"
);
},
{
closed = 1;
nodes = (
"306 277 OFFCURVE",
"306 275 OFFCURVE",
"297 275 CURVE SMOOTH",
"261 275 OFFCURVE",
"224 275 OFFCURVE",
"188 275 CURVE SMOOTH",
"182 275 OFFCURVE",
"181 278 OFFCURVE",
"183 300 CURVE SMOOTH",
"188 332 OFFCURVE",
"206 368 OFFCURVE",
"248 368 CURVE SMOOTH",
"285 368 OFFCURVE",
"305 345 OFFCURVE",
"305 295 CURVE SMOOTH"
);
}
);
width = 490;
}
);
note = e;
unicode = 0065;
},
{
glyphname = f;
lastChange = "2021-04-12 08:36:05 +0000";
layers = (
{
anchors = (
{
name = bottom;
position = "{199, 0}";
},
{
name = top;
position = "{199, 708}";
}
);
background = {
paths = (
{
closed = 1;
nodes = (
"152 0 OFFCURVE",
"154 -1 OFFCURVE",
"156 -1 CURVE SMOOTH",
"182 -1 LINE SMOOTH",
"184 -1 OFFCURVE",
"185 0 OFFCURVE",
"185 2 CURVE SMOOTH",
"177 110 OFFCURVE",
"174 320 OFFCURVE",
"174 433 CURVE SMOOTH",
"174 439 OFFCURVE",
"179 442 OFFCURVE",
"183 442 CURVE SMOOTH",
"349 442 LINE SMOOTH",
"350 442 OFFCURVE",
"353 446 OFFCURVE",
"353 446 CURVE",
"353 468 LINE SMOOTH",
"353 470 OFFCURVE",
"350 472 OFFCURVE",
"349 472 CURVE SMOOTH",
"182 472 LINE SMOOTH",
"176 472 OFFCURVE",
"174 476 OFFCURVE",
"174 481 CURVE SMOOTH",
"173 530 OFFCURVE",
"174 578 OFFCURVE",
"192 622 CURVE SMOOTH",
"211 664 OFFCURVE",
"251 681 OFFCURVE",
"322 681 CURVE SMOOTH",
"360 681 OFFCURVE",
"386 675 OFFCURVE",
"399 669 CURVE SMOOTH",
"401 668 OFFCURVE",
"403 668 OFFCURVE",
"403 670 CURVE",
"407 686 LINE SMOOTH",
"407 687 OFFCURVE",
"408 689 OFFCURVE",
"405 691 CURVE SMOOTH",
"394 697 OFFCURVE",
"359 712 OFFCURVE",
"322 712 CURVE SMOOTH",
"250 712 OFFCURVE",
"198 691 OFFCURVE",
"170 650 CURVE SMOOTH",
"137 601 OFFCURVE",
"139 537 OFFCURVE",
"140 480 CURVE SMOOTH",
"140 473 OFFCURVE",
"138 472 OFFCURVE",
"132 472 CURVE SMOOTH",
"64 472 LINE SMOOTH",
"61 472 OFFCURVE",
"60 468 OFFCURVE",
"60 468 CURVE",
"60 446 LINE",
"60 446 OFFCURVE",
"61 442 OFFCURVE",
"64 442 CURVE SMOOTH",
"132 442 LINE SMOOTH",
"138 442 OFFCURVE",
"140 438 OFFCURVE",
"140 433 CURVE SMOOTH",
"141 278 OFFCURVE",
"143 105 OFFCURVE",
"152 2 CURVE SMOOTH"
);
}
);
};
layerId = "707362F1-A677-446A-8636-E10BE3A7FAFF";
paths = (
{
closed = 1;
nodes = (
"152 0 OFFCURVE",
"154 -1 OFFCURVE",
"156 -1 CURVE SMOOTH",
"182 -1 LINE SMOOTH",
"184 -1 OFFCURVE",
"185 0 OFFCURVE",
"185 2 CURVE SMOOTH",
"177 110 OFFCURVE",
"174 320 OFFCURVE",
"174 433 CURVE SMOOTH",
"174 439 OFFCURVE",
"179 442 OFFCURVE",
"183 442 CURVE SMOOTH",
"349 442 LINE SMOOTH",
"350 442 OFFCURVE",
"353 446 OFFCURVE",
"353 446 CURVE",
"353 468 LINE SMOOTH",
"353 470 OFFCURVE",
"350 472 OFFCURVE",
"349 472 CURVE SMOOTH",
"182 472 LINE SMOOTH",
"176 472 OFFCURVE",
"174 476 OFFCURVE",
"174 481 CURVE SMOOTH",
"173 530 OFFCURVE",
"174 578 OFFCURVE",
"192 622 CURVE SMOOTH",
"211 664 OFFCURVE",
"251 681 OFFCURVE",
"322 681 CURVE SMOOTH",
"360 681 OFFCURVE",
"386 675 OFFCURVE",
"399 669 CURVE SMOOTH",
"401 668 OFFCURVE",
"403 668 OFFCURVE",
"403 670 CURVE",
"407 686 LINE SMOOTH",
"407 687 OFFCURVE",
"408 689 OFFCURVE",
"405 691 CURVE SMOOTH",
"394 697 OFFCURVE",
"359 712 OFFCURVE",
"322 712 CURVE SMOOTH",
"250 712 OFFCURVE",
"198 691 OFFCURVE",
"170 650 CURVE SMOOTH",
"137 601 OFFCURVE",
"139 537 OFFCURVE",
"140 480 CURVE SMOOTH",
"140 473 OFFCURVE",
"138 472 OFFCURVE",
"132 472 CURVE SMOOTH",
"64 472 LINE SMOOTH",
"61 472 OFFCURVE",
"60 468 OFFCURVE",
"60 468 CURVE",
"60 446 LINE",
"60 446 OFFCURVE",
"61 442 OFFCURVE",
"64 442 CURVE SMOOTH",
"132 442 LINE SMOOTH",
"138 442 OFFCURVE",
"140 438 OFFCURVE",
"140 433 CURVE SMOOTH",
"141 278 OFFCURVE",
"143 105 OFFCURVE",
"152 2 CURVE SMOOTH"
);
}
);
width = 397;
},
{
anchors = (
{
name = bottom;
position = "{219, 0}";
},
{
name = top;
position = "{219, 687}";
}
);
background = {
paths = (
{
closed = 1;
nodes = (
"116 4 OFFCURVE",
"120 0 OFFCURVE",
"127 0 CURVE SMOOTH",
"245 0 LINE SMOOTH",
"255 0 OFFCURVE",
"256 2 OFFCURVE",
"255 18 CURVE SMOOTH",
"255 39 OFFCURVE",
"242 201 OFFCURVE",
"242 356 CURVE SMOOTH",
"242 363 OFFCURVE",
"243 366 OFFCURVE",
"252 366 CURVE SMOOTH",
"364 366 LINE SMOOTH",
"379 366 OFFCURVE",
"381 367 OFFCURVE",
"381 382 CURVE SMOOTH",
"381 453 LINE SMOOTH",
"381 471 OFFCURVE",
"381 472 OFFCURVE",
"366 472 CURVE SMOOTH",
"251 472 LINE SMOOTH",
"243 472 OFFCURVE",
"243 473 OFFCURVE",
"243 481 CURVE SMOOTH",
"243 491 OFFCURVE",
"243 501 OFFCURVE",
"243 511 CURVE SMOOTH",
"243 586 OFFCURVE",
"277 608 OFFCURVE",
"315 608 CURVE SMOOTH",
"345 609 OFFCURVE",
"376 596 OFFCURVE",
"396 583 CURVE SMOOTH",
"406 576 OFFCURVE",
"410 577 OFFCURVE",
"416 595 CURVE SMOOTH",
"437 658 LINE",
"440 671 OFFCURVE",
"438 675 OFFCURVE",
"415 688 CURVE SMOOTH",
"400 695 OFFCURVE",
"360 712 OFFCURVE",
"319 712 CURVE SMOOTH",
"227 712 OFFCURVE",
"166 686 OFFCURVE",
"132 638 CURVE SMOOTH",
"105 600 OFFCURVE",
"98 562 OFFCURVE",
"98 484 CURVE SMOOTH",
"98 473 OFFCURVE",
"97 472 OFFCURVE",
"91 472 CURVE SMOOTH",
"53 472 LINE SMOOTH",
"38 472 OFFCURVE",
"35 473 OFFCURVE",
"35 455 CURVE SMOOTH",
"35 381 LINE SMOOTH",
"35 366 OFFCURVE",
"39 366 OFFCURVE",
"50 366 CURVE SMOOTH",
"89 366 LINE SMOOTH",
"95 366 OFFCURVE",
"98 363 OFFCURVE",
"98 355 CURVE SMOOTH",
"97 271 OFFCURVE",
"103 96 OFFCURVE",
"114 19 CURVE SMOOTH"
);
}
);
};
layerId = "D1BC8BBB-1669-4C46-BC21-42BF6808B2B9";
paths = (
{
closed = 1;
nodes = (
"116 4 OFFCURVE",
"120 0 OFFCURVE",
"127 0 CURVE SMOOTH",
"245 0 LINE SMOOTH",
"255 0 OFFCURVE",
"256 2 OFFCURVE",
"255 18 CURVE SMOOTH",
"255 39 OFFCURVE",
"242 201 OFFCURVE",
"242 356 CURVE SMOOTH",
"242 363 OFFCURVE",
"243 366 OFFCURVE",
"252 366 CURVE SMOOTH",
"364 366 LINE SMOOTH",
"379 366 OFFCURVE",
"381 367 OFFCURVE",
"381 382 CURVE SMOOTH",
"381 453 LINE SMOOTH",
"381 471 OFFCURVE",
"381 472 OFFCURVE",
"366 472 CURVE SMOOTH",
"251 472 LINE SMOOTH",
"243 472 OFFCURVE",
"243 473 OFFCURVE",
"243 481 CURVE SMOOTH",
"243 491 OFFCURVE",
"243 501 OFFCURVE",
"243 511 CURVE SMOOTH",
"243 586 OFFCURVE",
"277 608 OFFCURVE",
"315 608 CURVE SMOOTH",
"345 609 OFFCURVE",
"376 596 OFFCURVE",
"396 583 CURVE SMOOTH",
"406 576 OFFCURVE",
"410 577 OFFCURVE",
"416 595 CURVE SMOOTH",
"437 658 LINE",
"440 671 OFFCURVE",
"438 675 OFFCURVE",
"415 688 CURVE SMOOTH",
"400 695 OFFCURVE",
"360 712 OFFCURVE",
"319 712 CURVE SMOOTH",
"227 712 OFFCURVE",
"166 686 OFFCURVE",
"132 638 CURVE SMOOTH",
"105 600 OFFCURVE",
"98 562 OFFCURVE",
"98 484 CURVE SMOOTH",
"98 473 OFFCURVE",
"97 472 OFFCURVE",
"91 472 CURVE SMOOTH",
"53 472 LINE SMOOTH",
"38 472 OFFCURVE",
"35 473 OFFCURVE",
"35 455 CURVE SMOOTH",
"35 381 LINE SMOOTH",
"35 366 OFFCURVE",
"39 366 OFFCURVE",
"50 366 CURVE SMOOTH",
"89 366 LINE SMOOTH",
"95 366 OFFCURVE",
"98 363 OFFCURVE",
"98 355 CURVE SMOOTH",
"97 271 OFFCURVE",
"103 96 OFFCURVE",
"114 19 CURVE SMOOTH"
);
}
);
width = 438;
}
);
note = f;
rightKerningGroup = f;
unicode = 0066;
},
{
glyphname = g;
lastChange = "2021-04-12 08:36:05 +0000";
layers = (
{
anchors = (
{
name = bottom;
position = "{238, -200}";
},
{
name = top;
position = "{238, 472}";
}
);
background = {
paths = (
{
closed = 1;
nodes = (
"43 104 OFFCURVE",
"95 9 OFFCURVE",
"232 9 CURVE SMOOTH",
"273 9 OFFCURVE",
"318 19 OFFCURVE",
"353 29 CURVE SMOOTH",
"363 32 OFFCURVE",
"372 35 OFFCURVE",
"371 26 CURVE SMOOTH",
"371 23 OFFCURVE",
"370 20 OFFCURVE",
"370 18 CURVE SMOOTH",
"354 -74 OFFCURVE",
"292 -112 OFFCURVE",
"219 -112 CURVE SMOOTH",
"164 -112 OFFCURVE",
"121 -93 OFFCURVE",
"83 -73 CURVE SMOOTH",
"81 -72 OFFCURVE",
"76 -71 OFFCURVE",
"75 -74 CURVE",
"72 -79 OFFCURVE",
"69 -85 OFFCURVE",
"66 -90 CURVE",
"65 -93 OFFCURVE",
"64 -94 OFFCURVE",
"72 -100 CURVE SMOOTH",
"112 -129 OFFCURVE",
"168 -140 OFFCURVE",
"213 -140 CURVE SMOOTH",
"327 -140 OFFCURVE",
"391 -91 OFFCURVE",
"404 22 CURVE SMOOTH",
"423 183 OFFCURVE",
"415 327 OFFCURVE",
"405 415 CURVE SMOOTH",
"403 439 OFFCURVE",
"397 450 OFFCURVE",
"385 454 CURVE SMOOTH",
"347 470 OFFCURVE",
"294 478 OFFCURVE",
"243 478 CURVE SMOOTH",
"89 478 OFFCURVE",
"46 374 OFFCURVE",
"45 242 CURVE SMOOTH"
);
},
{
closed = 1;
nodes = (
"78 364 OFFCURVE",
"121 448 OFFCURVE",
"245 448 CURVE SMOOTH",
"285 448 OFFCURVE",
"333 441 OFFCURVE",
"352 432 CURVE SMOOTH",
"371 423 OFFCURVE",
"373 407 OFFCURVE",
"374 397 CURVE SMOOTH",
"381 323 OFFCURVE",
"387 178 OFFCURVE",
"379 87 CURVE SMOOTH",
"378 76 OFFCURVE",
"365 64 OFFCURVE",
"346 57 CURVE SMOOTH",
"316 46 OFFCURVE",
"278 41 OFFCURVE",
"241 41 CURVE SMOOTH",
"118 41 OFFCURVE",
"78 123 OFFCURVE",
"78 242 CURVE SMOOTH"
);
}
);
};
layerId = "707362F1-A677-446A-8636-E10BE3A7FAFF";
paths = (
{
closed = 1;
nodes = (
"43 104 OFFCURVE",
"95 9 OFFCURVE",
"232 9 CURVE SMOOTH",
"273 9 OFFCURVE",
"318 19 OFFCURVE",
"353 29 CURVE SMOOTH",
"363 32 OFFCURVE",
"372 35 OFFCURVE",
"371 26 CURVE SMOOTH",
"371 23 OFFCURVE",
"370 20 OFFCURVE",
"370 18 CURVE SMOOTH",
"354 -74 OFFCURVE",
"292 -112 OFFCURVE",
"219 -112 CURVE SMOOTH",
"164 -112 OFFCURVE",
"121 -93 OFFCURVE",
"83 -73 CURVE SMOOTH",
"81 -72 OFFCURVE",
"76 -71 OFFCURVE",
"75 -74 CURVE",
"72 -79 OFFCURVE",
"69 -85 OFFCURVE",
"66 -90 CURVE",
"65 -93 OFFCURVE",
"64 -94 OFFCURVE",
"72 -100 CURVE SMOOTH",
"112 -129 OFFCURVE",
"168 -140 OFFCURVE",
"213 -140 CURVE SMOOTH",
"327 -140 OFFCURVE",
"391 -91 OFFCURVE",
"404 22 CURVE SMOOTH",
"423 183 OFFCURVE",
"415 327 OFFCURVE",
"405 415 CURVE SMOOTH",
"403 439 OFFCURVE",
"397 450 OFFCURVE",
"385 454 CURVE SMOOTH",
"347 470 OFFCURVE",
"294 478 OFFCURVE",
"243 478 CURVE SMOOTH",
"89 478 OFFCURVE",
"46 374 OFFCURVE",
"45 242 CURVE SMOOTH"
);
},
{
closed = 1;
nodes = (
"78 364 OFFCURVE",
"121 448 OFFCURVE",
"245 448 CURVE SMOOTH",
"285 448 OFFCURVE",
"333 441 OFFCURVE",
"352 432 CURVE SMOOTH",
"371 423 OFFCURVE",
"373 407 OFFCURVE",
"374 397 CURVE SMOOTH",
"381 323 OFFCURVE",
"387 178 OFFCURVE",
"379 87 CURVE SMOOTH",
"378 76 OFFCURVE",
"365 64 OFFCURVE",
"346 57 CURVE SMOOTH",
"316 46 OFFCURVE",
"278 41 OFFCURVE",
"241 41 CURVE SMOOTH",
"118 41 OFFCURVE",
"78 123 OFFCURVE",
"78 242 CURVE SMOOTH"
);
}
);
width = 476;
},
{
anchors = (
{
name = bottom;
position = "{244, -122}";
},
{
name = top;
position = "{244, 472}";
}
);
background = {
paths = (
{
closed = 1;
nodes = (
"30 105 OFFCURVE",
"133 45 OFFCURVE",
"235 45 CURVE SMOOTH",
"250 45 OFFCURVE",
"267 46 OFFCURVE",
"274 47 CURVE SMOOTH",
"287 49 OFFCURVE",
"289 40 OFFCURVE",
"288 31 CURVE SMOOTH",
"288 29 OFFCURVE",
"287 28 OFFCURVE",
"287 27 CURVE SMOOTH",
"281 -17 OFFCURVE",
"232 -21 OFFCURVE",
"209 -21 CURVE SMOOTH",
"186 -21 OFFCURVE",
"126 1 OFFCURVE",
"108 14 CURVE SMOOTH",
"92 25 OFFCURVE",
"90 24 OFFCURVE",
"79 6 CURVE SMOOTH",
"72 -5 OFFCURVE",
"53 -38 OFFCURVE",
"47 -48 CURVE SMOOTH",
"40 -59 OFFCURVE",
"48 -71 OFFCURVE",
"53 -75 CURVE SMOOTH",
"108 -115 OFFCURVE",
"172 -127 OFFCURVE",
"223 -127 CURVE SMOOTH",
"349 -127 OFFCURVE",
"425 -74 OFFCURVE",
"440 42 CURVE SMOOTH",
"454 153 OFFCURVE",
"454 281 OFFCURVE",
"441 394 CURVE SMOOTH",
"437 430 OFFCURVE",
"437 440 OFFCURVE",
"400 454 CURVE SMOOTH",
"360 469 OFFCURVE",
"306 478 OFFCURVE",
"253 478 CURVE SMOOTH",
"77 478 OFFCURVE",
"30 378 OFFCURVE",
"30 242 CURVE SMOOTH"
);
},
{
closed = 1;
nodes = (
"184 335 OFFCURVE",
"198 383 OFFCURVE",
"246 383 CURVE SMOOTH",
"267 383 OFFCURVE",
"276 380 OFFCURVE",
"287 375 CURVE SMOOTH",
"292 373 OFFCURVE",
"295 360 OFFCURVE",
"295 354 CURVE SMOOTH",
"297 328 OFFCURVE",
"300 221 OFFCURVE",
"297 176 CURVE SMOOTH",
"296 165 OFFCURVE",
"293 160 OFFCURVE",
"286 157 CURVE SMOOTH",
"275 152 OFFCURVE",
"261 151 OFFCURVE",
"246 151 CURVE SMOOTH",
"196 151 OFFCURVE",
"183 201 OFFCURVE",
"183 267 CURVE SMOOTH"
);
}
);
};
layerId = "D1BC8BBB-1669-4C46-BC21-42BF6808B2B9";
paths = (
{
closed = 1;
nodes = (
"30 105 OFFCURVE",
"133 45 OFFCURVE",
"235 45 CURVE SMOOTH",
"250 45 OFFCURVE",
"267 46 OFFCURVE",
"274 47 CURVE SMOOTH",
"287 49 OFFCURVE",
"289 40 OFFCURVE",
"288 31 CURVE SMOOTH",
"288 29 OFFCURVE",
"287 28 OFFCURVE",
"287 27 CURVE SMOOTH",
"281 -17 OFFCURVE",
"232 -21 OFFCURVE",
"209 -21 CURVE SMOOTH",
"186 -21 OFFCURVE",
"126 1 OFFCURVE",
"108 14 CURVE SMOOTH",
"92 25 OFFCURVE",
"90 24 OFFCURVE",
"79 6 CURVE SMOOTH",
"72 -5 OFFCURVE",
"53 -38 OFFCURVE",
"47 -48 CURVE SMOOTH",
"40 -59 OFFCURVE",
"48 -71 OFFCURVE",
"53 -75 CURVE SMOOTH",
"108 -115 OFFCURVE",
"172 -127 OFFCURVE",
"223 -127 CURVE SMOOTH",
"349 -127 OFFCURVE",
"425 -74 OFFCURVE",
"440 42 CURVE SMOOTH",
"454 153 OFFCURVE",
"454 281 OFFCURVE",
"441 394 CURVE SMOOTH",
"437 430 OFFCURVE",
"437 440 OFFCURVE",
"400 454 CURVE SMOOTH",
"360 469 OFFCURVE",
"306 478 OFFCURVE",
"253 478 CURVE SMOOTH",
"77 478 OFFCURVE",
"30 378 OFFCURVE",
"30 242 CURVE SMOOTH"
);
},
{
closed = 1;
nodes = (
"184 335 OFFCURVE",
"198 383 OFFCURVE",
"246 383 CURVE SMOOTH",
"267 383 OFFCURVE",
"276 380 OFFCURVE",
"287 375 CURVE SMOOTH",
"292 373 OFFCURVE",
"295 360 OFFCURVE",
"295 354 CURVE SMOOTH",
"297 328 OFFCURVE",
"300 221 OFFCURVE",
"297 176 CURVE SMOOTH",
"296 165 OFFCURVE",
"293 160 OFFCURVE",
"286 157 CURVE SMOOTH",
"275 152 OFFCURVE",
"261 151 OFFCURVE",
"246 151 CURVE SMOOTH",
"196 151 OFFCURVE",
"183 201 OFFCURVE",
"183 267 CURVE SMOOTH"
);
}
);
width = 488;
}
);
note = g;
unicode = 0067;
},
{
glyphname = h;
lastChange = "2021-04-12 08:36:05 +0000";
layers = (
{
anchors = (
{
name = bottom;
position = "{229, 0}";
},
{
name = center;
position = "{229, 354}";
},
{
name = top;
position = "{229, 708}";
}
);
background = {
paths = (
{
closed = 1;
nodes = (
"60 1 OFFCURVE",
"61 0 OFFCURVE",
"64 0 CURVE SMOOTH",
"89 0 LINE SMOOTH",
"92 0 OFFCURVE",
"93 1 OFFCURVE",
"93 4 CURVE SMOOTH",
"93 401 LINE SMOOTH",
"93 419 OFFCURVE",
"102 424 OFFCURVE",
"111 426 CURVE SMOOTH",
"150 435 OFFCURVE",
"198 444 OFFCURVE",
"231 444 CURVE SMOOTH",
"296 444 OFFCURVE",
"370 414 OFFCURVE",
"370 230 CURVE SMOOTH",
"370 157 OFFCURVE",
"367 74 OFFCURVE",
"361 7 CURVE SMOOTH",
"361 1 OFFCURVE",
"362 0 OFFCURVE",
"368 0 CURVE SMOOTH",
"373 0 OFFCURVE",
"379 0 OFFCURVE",
"384 0 CURVE SMOOTH",
"390 0 OFFCURVE",
"393 1 OFFCURVE",
"393 5 CURVE SMOOTH",
"399 70 OFFCURVE",
"403 156 OFFCURVE",
"403 230 CURVE SMOOTH",
"403 433 OFFCURVE",
"316 476 OFFCURVE",
"231 476 CURVE SMOOTH",
"185 476 OFFCURVE",
"144 465 OFFCURVE",
"104 454 CURVE SMOOTH",
"94 451 OFFCURVE",
"93 455 OFFCURVE",
"93 463 CURVE SMOOTH",
"93 543 OFFCURVE",
"93 624 OFFCURVE",
"93 704 CURVE SMOOTH",
"93 707 OFFCURVE",
"92 708 OFFCURVE",
"89 708 CURVE SMOOTH",
"81 708 OFFCURVE",
"72 708 OFFCURVE",
"64 708 CURVE SMOOTH",
"61 708 OFFCURVE",
"60 707 OFFCURVE",
"60 704 CURVE SMOOTH",
"60 471 OFFCURVE",
"60 237 OFFCURVE",
"60 4 CURVE SMOOTH"
);
}
);
};
layerId = "707362F1-A677-446A-8636-E10BE3A7FAFF";
paths = (
{
closed = 1;
nodes = (
"60 1 OFFCURVE",
"61 0 OFFCURVE",
"64 0 CURVE SMOOTH",
"89 0 LINE SMOOTH",
"92 0 OFFCURVE",
"93 1 OFFCURVE",
"93 4 CURVE SMOOTH",
"93 401 LINE SMOOTH",
"93 419 OFFCURVE",
"102 424 OFFCURVE",
"111 426 CURVE SMOOTH",
"150 435 OFFCURVE",
"198 444 OFFCURVE",
"231 444 CURVE SMOOTH",
"296 444 OFFCURVE",
"370 414 OFFCURVE",
"370 230 CURVE SMOOTH",
"370 157 OFFCURVE",
"367 74 OFFCURVE",
"361 7 CURVE SMOOTH",
"361 1 OFFCURVE",
"362 0 OFFCURVE",
"368 0 CURVE SMOOTH",
"373 0 OFFCURVE",
"379 0 OFFCURVE",
"384 0 CURVE SMOOTH",
"390 0 OFFCURVE",
"393 1 OFFCURVE",
"393 5 CURVE SMOOTH",
"399 70 OFFCURVE",
"403 156 OFFCURVE",
"403 230 CURVE SMOOTH",
"403 433 OFFCURVE",
"316 476 OFFCURVE",
"231 476 CURVE SMOOTH",
"185 476 OFFCURVE",
"144 465 OFFCURVE",
"104 454 CURVE SMOOTH",
"94 451 OFFCURVE",
"93 455 OFFCURVE",
"93 463 CURVE SMOOTH",
"93 543 OFFCURVE",
"93 624 OFFCURVE",
"93 704 CURVE SMOOTH",
"93 707 OFFCURVE",
"92 708 OFFCURVE",
"89 708 CURVE SMOOTH",
"81 708 OFFCURVE",
"72 708 OFFCURVE",
"64 708 CURVE SMOOTH",
"61 708 OFFCURVE",
"60 707 OFFCURVE",
"60 704 CURVE SMOOTH",
"60 471 OFFCURVE",
"60 237 OFFCURVE",
"60 4 CURVE SMOOTH"
);
}
);
width = 458;
},
{
anchors = (
{
name = bottom;
position = "{236, 0}";
},
{
name = center;
position = "{236, 344}";
},
{
name = top;
position = "{236, 687}";
}
);
background = {
paths = (
{
closed = 1;
nodes = (
"40 6 OFFCURVE",
"46 0 OFFCURVE",
"56 0 CURVE SMOOTH",
"173 0 LINE SMOOTH",
"181 0 OFFCURVE",
"187 6 OFFCURVE",
"187 14 CURVE SMOOTH",
"187 347 LINE SMOOTH",
"187 358 OFFCURVE",
"192 365 OFFCURVE",
"200 368 CURVE SMOOTH",
"206 371 OFFCURVE",
"213 372 OFFCURVE",
"220 372 CURVE SMOOTH",
"288 372 OFFCURVE",
"288 294 OFFCURVE",
"286 190 CURVE SMOOTH",
"284 135 OFFCURVE",
"280 78 OFFCURVE",
"274 27 CURVE",
"269 0 OFFCURVE",
"267 0 OFFCURVE",
"291 0 CURVE SMOOTH",
"327 0 OFFCURVE",
"363 0 OFFCURVE",
"399 0 CURVE SMOOTH",
"410 0 OFFCURVE",
"417 1 OFFCURVE",
"418 11 CURVE",
"428 65 OFFCURVE",
"438 163 OFFCURVE",
"435 249 CURVE SMOOTH",
"429 407 OFFCURVE",
"389 479 OFFCURVE",
"260 479 CURVE SMOOTH",
"238 479 OFFCURVE",
"206 473 OFFCURVE",
"200 471 CURVE SMOOTH",
"194 468 OFFCURVE",
"187 468 OFFCURVE",
"187 480 CURVE SMOOTH",
"187 551 OFFCURVE",
"187 623 OFFCURVE",
"187 694 CURVE SMOOTH",
"187 702 OFFCURVE",
"181 708 OFFCURVE",
"173 708 CURVE SMOOTH",
"134 708 OFFCURVE",
"95 708 OFFCURVE",
"56 708 CURVE SMOOTH",
"46 708 OFFCURVE",
"40 702 OFFCURVE",
"40 694 CURVE SMOOTH",
"40 467 OFFCURVE",
"40 241 OFFCURVE",
"40 14 CURVE SMOOTH"
);
}
);
};
layerId = "D1BC8BBB-1669-4C46-BC21-42BF6808B2B9";
paths = (
{
closed = 1;
nodes = (
"40 6 OFFCURVE",
"46 0 OFFCURVE",
"56 0 CURVE SMOOTH",
"173 0 LINE SMOOTH",
"181 0 OFFCURVE",
"187 6 OFFCURVE",
"187 14 CURVE SMOOTH",
"187 347 LINE SMOOTH",
"187 358 OFFCURVE",
"192 365 OFFCURVE",
"200 368 CURVE SMOOTH",
"206 371 OFFCURVE",
"213 372 OFFCURVE",
"220 372 CURVE SMOOTH",
"288 372 OFFCURVE",
"288 294 OFFCURVE",
"286 190 CURVE SMOOTH",
"284 135 OFFCURVE",
"280 78 OFFCURVE",
"274 27 CURVE",
"269 0 OFFCURVE",
"267 0 OFFCURVE",
"291 0 CURVE SMOOTH",
"327 0 OFFCURVE",
"363 0 OFFCURVE",
"399 0 CURVE SMOOTH",
"410 0 OFFCURVE",
"417 1 OFFCURVE",
"418 11 CURVE",
"428 65 OFFCURVE",
"438 163 OFFCURVE",
"435 249 CURVE SMOOTH",
"429 407 OFFCURVE",
"389 479 OFFCURVE",
"260 479 CURVE SMOOTH",
"238 479 OFFCURVE",
"206 473 OFFCURVE",
"200 471 CURVE SMOOTH",
"194 468 OFFCURVE",
"187 468 OFFCURVE",
"187 480 CURVE SMOOTH",
"187 551 OFFCURVE",
"187 623 OFFCURVE",
"187 694 CURVE SMOOTH",
"187 702 OFFCURVE",
"181 708 OFFCURVE",
"173 708 CURVE SMOOTH",
"134 708 OFFCURVE",
"95 708 OFFCURVE",
"56 708 CURVE SMOOTH",
"46 708 OFFCURVE",
"40 702 OFFCURVE",
"40 694 CURVE SMOOTH",
"40 467 OFFCURVE",
"40 241 OFFCURVE",
"40 14 CURVE SMOOTH"
);
}
);
width = 471;
}
);
leftKerningGroup = b;
note = h;
unicode = 0068;
},
{
glyphname = i;
lastChange = "2021-04-16 01:10:04 +0000";
layers = (
{
anchors = (
{
name = bottom;
position = "{93, 0}";
}
);
background = {
paths = (
{
closed = 1;
nodes = (
"125 617 OFFCURVE",
"123 624 OFFCURVE",
"103 624 CURVE SMOOTH",
"84 624 OFFCURVE",
"80 617 OFFCURVE",
"80 603 CURVE SMOOTH",
"80 588 OFFCURVE",
"84 582 OFFCURVE",
"103 582 CURVE SMOOTH",
"123 582 OFFCURVE",
"125 588 OFFCURVE",
"125 603 CURVE SMOOTH"
);
},
{
closed = 1;
nodes = (
"120 468 LINE SMOOTH",
"120 471 OFFCURVE",
"118 472 OFFCURVE",
"117 472 CURVE SMOOTH",
"91 472 LINE SMOOTH",
"88 472 OFFCURVE",
"87 471 OFFCURVE",
"87 468 CURVE SMOOTH",
"87 4 LINE SMOOTH",
"87 1 OFFCURVE",
"88 0 OFFCURVE",
"91 0 CURVE SMOOTH",
"117 0 LINE SMOOTH",
"118 0 OFFCURVE",
"120 1 OFFCURVE",
"120 4 CURVE SMOOTH"
);
}
);
};
layerId = "707362F1-A677-446A-8636-E10BE3A7FAFF";
paths = (
{
closed = 1;
nodes = (
"125 617 OFFCURVE",
"123 624 OFFCURVE",
"103 624 CURVE SMOOTH",
"84 624 OFFCURVE",
"80 617 OFFCURVE",
"80 603 CURVE SMOOTH",
"80 588 OFFCURVE",
"84 582 OFFCURVE",
"103 582 CURVE SMOOTH",
"123 582 OFFCURVE",
"125 588 OFFCURVE",
"125 603 CURVE SMOOTH"
);
},
{
closed = 1;
nodes = (
"120 468 LINE SMOOTH",
"120 471 OFFCURVE",
"118 472 OFFCURVE",
"117 472 CURVE SMOOTH",
"91 472 LINE SMOOTH",
"88 472 OFFCURVE",
"87 471 OFFCURVE",
"87 468 CURVE SMOOTH",
"87 4 LINE SMOOTH",
"87 1 OFFCURVE",
"88 0 OFFCURVE",
"91 0 CURVE SMOOTH",
"117 0 LINE SMOOTH",
"118 0 OFFCURVE",
"120 1 OFFCURVE",
"120 4 CURVE SMOOTH"
);
}
);
width = 185;
},
{
anchors = (
{
name = bottom;
position = "{117, 0}";
}
);
background = {
paths = (
{
closed = 1;
nodes = (
"193 640 OFFCURVE",
"182 667 OFFCURVE",
"117 667 CURVE SMOOTH",
"58 667 OFFCURVE",
"40 640 OFFCURVE",
"40 601 CURVE SMOOTH",
"40 556 OFFCURVE",
"58 532 OFFCURVE",
"117 532 CURVE SMOOTH",
"178 532 OFFCURVE",
"193 556 OFFCURVE",
"193 601 CURVE SMOOTH"
);
},
{
closed = 1;
nodes = (
"190 458 LINE SMOOTH",
"190 466 OFFCURVE",
"183 472 OFFCURVE",
"175 472 CURVE SMOOTH",
"58 472 LINE SMOOTH",
"50 472 OFFCURVE",
"44 466 OFFCURVE",
"44 458 CURVE SMOOTH",
"44 14 LINE SMOOTH",
"44 6 OFFCURVE",
"50 0 OFFCURVE",
"58 0 CURVE SMOOTH",
"175 0 LINE SMOOTH",
"183 0 OFFCURVE",
"190 6 OFFCURVE",
"190 14 CURVE SMOOTH"
);
}
);
};
layerId = "D1BC8BBB-1669-4C46-BC21-42BF6808B2B9";
paths = (
{
closed = 1;
nodes = (
"193 640 OFFCURVE",
"182 667 OFFCURVE",
"117 667 CURVE SMOOTH",
"58 667 OFFCURVE",
"40 640 OFFCURVE",
"40 601 CURVE SMOOTH",
"40 556 OFFCURVE",
"58 532 OFFCURVE",
"117 532 CURVE SMOOTH",
"178 532 OFFCURVE",
"193 556 OFFCURVE",
"193 601 CURVE SMOOTH"
);
},
{
closed = 1;
nodes = (
"190 458 LINE SMOOTH",
"190 466 OFFCURVE",
"183 472 OFFCURVE",
"175 472 CURVE SMOOTH",
"58 472 LINE SMOOTH",
"50 472 OFFCURVE",
"44 466 OFFCURVE",
"44 458 CURVE SMOOTH",
"44 14 LINE SMOOTH",
"44 6 OFFCURVE",
"50 0 OFFCURVE",
"58 0 CURVE SMOOTH",
"175 0 LINE SMOOTH",
"183 0 OFFCURVE",
"190 6 OFFCURVE",
"190 14 CURVE SMOOTH"
);
}
);
width = 233;
}
);
leftMetricsKey = n;
note = i;
rightMetricsKey = d;
unicode = 0069;
},
{
glyphname = j;
lastChange = "2021-04-12 07:58:28 +0000";
layers = (
{
background = {
paths = (
{
closed = 1;
nodes = (
"-4 -77 OFFCURVE",
"15 -84 OFFCURVE",
"19 -85 CURVE SMOOTH",
"38 -91 OFFCURVE",
"65 -94 OFFCURVE",
"88 -94 CURVE SMOOTH",
"189 -94 OFFCURVE",
"216 -37 OFFCURVE",
"216 63 CURVE SMOOTH",
"216 468 LINE SMOOTH",
"216 471 OFFCURVE",
"213 472 OFFCURVE",
"212 472 CURVE SMOOTH",
"186 472 LINE SMOOTH",
"184 472 OFFCURVE",
"183 471 OFFCURVE",
"183 468 CURVE SMOOTH",
"183 63 LINE SMOOTH",
"183 -21 OFFCURVE",
"166 -65 OFFCURVE",
"84 -65 CURVE SMOOTH",
"62 -65 OFFCURVE",
"36 -60 OFFCURVE",
"16 -52 CURVE SMOOTH",
"12 -50 OFFCURVE",
"10 -51 OFFCURVE",
"8 -55 CURVE SMOOTH",
"1 -68 LINE SMOOTH"
);
},
{
closed = 1;
nodes = (
"222 617 OFFCURVE",
"219 624 OFFCURVE",
"199 624 CURVE SMOOTH",
"180 624 OFFCURVE",
"177 617 OFFCURVE",
"177 603 CURVE SMOOTH",
"177 588 OFFCURVE",
"180 582 OFFCURVE",
"199 582 CURVE SMOOTH",
"219 582 OFFCURVE",
"222 588 OFFCURVE",
"222 603 CURVE SMOOTH"
);
}
);
};
layerId = "707362F1-A677-446A-8636-E10BE3A7FAFF";
paths = (
{
closed = 1;
nodes = (
"-4 -77 OFFCURVE",
"15 -84 OFFCURVE",
"19 -85 CURVE SMOOTH",
"38 -91 OFFCURVE",
"65 -94 OFFCURVE",
"88 -94 CURVE SMOOTH",
"189 -94 OFFCURVE",
"216 -37 OFFCURVE",
"216 63 CURVE SMOOTH",
"216 468 LINE SMOOTH",
"216 471 OFFCURVE",
"213 472 OFFCURVE",
"212 472 CURVE SMOOTH",
"186 472 LINE SMOOTH",
"184 472 OFFCURVE",
"183 471 OFFCURVE",
"183 468 CURVE SMOOTH",
"183 63 LINE SMOOTH",
"183 -21 OFFCURVE",
"166 -65 OFFCURVE",
"84 -65 CURVE SMOOTH",
"62 -65 OFFCURVE",
"36 -60 OFFCURVE",
"16 -52 CURVE SMOOTH",
"12 -50 OFFCURVE",
"10 -51 OFFCURVE",
"8 -55 CURVE SMOOTH",
"1 -68 LINE SMOOTH"
);
},
{
closed = 1;
nodes = (
"222 617 OFFCURVE",
"219 624 OFFCURVE",
"199 624 CURVE SMOOTH",
"180 624 OFFCURVE",
"177 617 OFFCURVE",
"177 603 CURVE SMOOTH",
"177 588 OFFCURVE",
"180 582 OFFCURVE",
"199 582 CURVE SMOOTH",
"219 582 OFFCURVE",
"222 588 OFFCURVE",
"222 603 CURVE SMOOTH"
);
}
);
width = 282;
},
{
background = {
paths = (
{
closed = 1;
nodes = (
"6 -44 OFFCURVE",
"8 -48 OFFCURVE",
"32 -63 CURVE SMOOTH",
"58 -78 OFFCURVE",
"97 -86 OFFCURVE",
"134 -86 CURVE SMOOTH",
"250 -86 OFFCURVE",
"288 -22 OFFCURVE",
"288 84 CURVE SMOOTH",
"288 458 LINE SMOOTH",
"288 466 OFFCURVE",
"281 472 OFFCURVE",
"273 472 CURVE SMOOTH",
"156 472 LINE SMOOTH",
"148 472 OFFCURVE",
"142 466 OFFCURVE",
"142 458 CURVE SMOOTH",
"142 84 LINE SMOOTH",
"142 40 OFFCURVE",
"116 14 OFFCURVE",
"95 12 CURVE SMOOTH",
"86 11 OFFCURVE",
"75 14 OFFCURVE",
"63 20 CURVE SMOOTH",
"53 25 OFFCURVE",
"46 29 OFFCURVE",
"40 18 CURVE SMOOTH",
"14 -31 LINE SMOOTH"
);
},
{
closed = 1;
nodes = (
"290 640 OFFCURVE",
"279 667 OFFCURVE",
"214 667 CURVE SMOOTH",
"155 667 OFFCURVE",
"137 640 OFFCURVE",
"137 601 CURVE SMOOTH",
"137 556 OFFCURVE",
"155 532 OFFCURVE",
"214 532 CURVE SMOOTH",
"275 532 OFFCURVE",
"290 556 OFFCURVE",
"290 601 CURVE SMOOTH"
);
}
);
};
layerId = "D1BC8BBB-1669-4C46-BC21-42BF6808B2B9";
paths = (
{
closed = 1;
nodes = (
"6 -44 OFFCURVE",
"8 -48 OFFCURVE",
"32 -63 CURVE SMOOTH",
"58 -78 OFFCURVE",
"97 -86 OFFCURVE",
"134 -86 CURVE SMOOTH",
"250 -86 OFFCURVE",
"288 -22 OFFCURVE",
"288 84 CURVE SMOOTH",
"288 458 LINE SMOOTH",
"288 466 OFFCURVE",
"281 472 OFFCURVE",
"273 472 CURVE SMOOTH",
"156 472 LINE SMOOTH",
"148 472 OFFCURVE",
"142 466 OFFCURVE",
"142 458 CURVE SMOOTH",
"142 84 LINE SMOOTH",
"142 40 OFFCURVE",
"116 14 OFFCURVE",
"95 12 CURVE SMOOTH",
"86 11 OFFCURVE",
"75 14 OFFCURVE",
"63 20 CURVE SMOOTH",
"53 25 OFFCURVE",
"46 29 OFFCURVE",
"40 18 CURVE SMOOTH",
"14 -31 LINE SMOOTH"
);
},
{
closed = 1;
nodes = (
"290 640 OFFCURVE",
"279 667 OFFCURVE",
"214 667 CURVE SMOOTH",
"155 667 OFFCURVE",
"137 640 OFFCURVE",
"137 601 CURVE SMOOTH",
"137 556 OFFCURVE",
"155 532 OFFCURVE",
"214 532 CURVE SMOOTH",
"275 532 OFFCURVE",
"290 556 OFFCURVE",
"290 601 CURVE SMOOTH"
);
}
);
width = 330;
}
);
note = j;
unicode = 006A;
},
{
glyphname = k;
lastChange = "2021-04-12 08:36:05 +0000";
layers = (
{
anchors = (
{
name = bottom;
position = "{201, 0}";
},
{
name = top;
position = "{201, 708}";
}
);
background = {
paths = (
{
closed = 1;
nodes = (
"60 1 OFFCURVE",
"61 0 OFFCURVE",
"64 0 CURVE SMOOTH",
"89 0 LINE SMOOTH",
"92 0 OFFCURVE",
"93 1 OFFCURVE",
"93 4 CURVE SMOOTH",
"93 240 LINE SMOOTH",
"93 243 OFFCURVE",
"95 247 OFFCURVE",
"99 247 CURVE SMOOTH",
"184 247 OFFCURVE",
"196 246 OFFCURVE",
"209 230 CURVE SMOOTH",
"269 164 OFFCURVE",
"327 7 OFFCURVE",
"327 7 CURVE",
"331 -1 OFFCURVE",
"331 0 OFFCURVE",
"336 0 CURVE SMOOTH",
"345 0 OFFCURVE",
"354 0 OFFCURVE",
"363 0 CURVE SMOOTH",
"368 0 OFFCURVE",
"368 4 OFFCURVE",
"366 8 CURVE SMOOTH",
"363 14 OFFCURVE",
"288 195 OFFCURVE",
"232 255 CURVE SMOOTH",
"230 257 OFFCURVE",
"227 260 OFFCURVE",
"225 262 CURVE",
"229 267 OFFCURVE",
"233 272 OFFCURVE",
"238 277 CURVE SMOOTH",
"296 351 OFFCURVE",
"346 466 OFFCURVE",
"346 466 CURVE",
"348 471 OFFCURVE",
"346 472 OFFCURVE",
"342 472 CURVE SMOOTH",
"316 472 LINE SMOOTH",
"312 472 OFFCURVE",
"310 471 OFFCURVE",
"308 465 CURVE",
"288 415 OFFCURVE",
"248 335 OFFCURVE",
"203 286 CURVE SMOOTH",
"193 275 OFFCURVE",
"189 275 OFFCURVE",
"176 275 CURVE SMOOTH",
"150 275 OFFCURVE",
"125 275 OFFCURVE",
"99 275 CURVE SMOOTH",
"94 275 OFFCURVE",
"93 278 OFFCURVE",
"93 281 CURVE SMOOTH",
"93 704 LINE SMOOTH",
"93 707 OFFCURVE",
"92 708 OFFCURVE",
"89 708 CURVE SMOOTH",
"64 708 LINE SMOOTH",
"61 708 OFFCURVE",
"60 707 OFFCURVE",
"60 704 CURVE SMOOTH",
"60 4 LINE SMOOTH"
);
}
);
};
layerId = "707362F1-A677-446A-8636-E10BE3A7FAFF";
paths = (
{
closed = 1;
nodes = (
"60 1 OFFCURVE",
"61 0 OFFCURVE",
"64 0 CURVE SMOOTH",
"89 0 LINE SMOOTH",
"92 0 OFFCURVE",
"93 1 OFFCURVE",
"93 4 CURVE SMOOTH",
"93 240 LINE SMOOTH",
"93 243 OFFCURVE",
"95 247 OFFCURVE",
"99 247 CURVE SMOOTH",
"184 247 OFFCURVE",
"196 246 OFFCURVE",
"209 230 CURVE SMOOTH",
"269 164 OFFCURVE",
"327 7 OFFCURVE",
"327 7 CURVE",
"331 -1 OFFCURVE",
"331 0 OFFCURVE",
"336 0 CURVE SMOOTH",
"345 0 OFFCURVE",
"354 0 OFFCURVE",
"363 0 CURVE SMOOTH",
"368 0 OFFCURVE",
"368 4 OFFCURVE",
"366 8 CURVE SMOOTH",
"363 14 OFFCURVE",
"288 195 OFFCURVE",
"232 255 CURVE SMOOTH",
"230 257 OFFCURVE",
"227 260 OFFCURVE",
"225 262 CURVE",
"229 267 OFFCURVE",
"233 272 OFFCURVE",
"238 277 CURVE SMOOTH",
"296 351 OFFCURVE",
"346 466 OFFCURVE",
"346 466 CURVE",
"348 471 OFFCURVE",
"346 472 OFFCURVE",
"342 472 CURVE SMOOTH",
"316 472 LINE SMOOTH",
"312 472 OFFCURVE",
"310 471 OFFCURVE",
"308 465 CURVE",
"288 415 OFFCURVE",
"248 335 OFFCURVE",
"203 286 CURVE SMOOTH",
"193 275 OFFCURVE",
"189 275 OFFCURVE",
"176 275 CURVE SMOOTH",
"150 275 OFFCURVE",
"125 275 OFFCURVE",
"99 275 CURVE SMOOTH",
"94 275 OFFCURVE",
"93 278 OFFCURVE",
"93 281 CURVE SMOOTH",
"93 704 LINE SMOOTH",
"93 707 OFFCURVE",
"92 708 OFFCURVE",
"89 708 CURVE SMOOTH",
"64 708 LINE SMOOTH",
"61 708 OFFCURVE",
"60 707 OFFCURVE",
"60 704 CURVE SMOOTH",
"60 4 LINE SMOOTH"
);
}
);
width = 402;
},
{
anchors = (
{
name = bottom;
position = "{243, 0}";
},
{
name = top;
position = "{243, 687}";
}
);
background = {
paths = (
{
closed = 1;
nodes = (
"40 1 OFFCURVE",
"41 0 OFFCURVE",
"44 0 CURVE SMOOTH",
"183 0 LINE SMOOTH",
"186 0 OFFCURVE",
"187 1 OFFCURVE",
"187 4 CURVE SMOOTH",
"187 185 LINE SMOOTH",
"187 193 OFFCURVE",
"187 198 OFFCURVE",
"189 201 CURVE SMOOTH",
"198 214 OFFCURVE",
"216 183 OFFCURVE",
"223 168 CURVE SMOOTH",
"235 144 OFFCURVE",
"310 7 OFFCURVE",
"310 7 CURVE",
"314 -1 OFFCURVE",
"314 0 OFFCURVE",
"319 0 CURVE SMOOTH",
"328 0 OFFCURVE",
"448 0 OFFCURVE",
"457 0 CURVE SMOOTH",
"462 0 OFFCURVE",
"462 4 OFFCURVE",
"460 8 CURVE SMOOTH",
"457 14 OFFCURVE",
"384 197 OFFCURVE",
"326 255 CURVE SMOOTH",
"324 257 OFFCURVE",
"316 260 OFFCURVE",
"314 262 CURVE",
"318 267 OFFCURVE",
"321 270 OFFCURVE",
"327 277 CURVE SMOOTH",
"382 343 OFFCURVE",
"425 441 OFFCURVE",
"430 455 CURVE",
"432 460 OFFCURVE",
"435 472 OFFCURVE",
"422 472 CURVE SMOOTH",
"304 472 LINE SMOOTH",
"285 472 OFFCURVE",
"280 472 OFFCURVE",
"274 458 CURVE SMOOTH",
"254 408 OFFCURVE",
"242 383 OFFCURVE",
"217 343 CURVE SMOOTH",
"209 330 OFFCURVE",
"206 326 OFFCURVE",
"197 317 CURVE SMOOTH",
"195 315 OFFCURVE",
"191 312 OFFCURVE",
"189 312 CURVE SMOOTH",
"187 312 OFFCURVE",
"187 320 OFFCURVE",
"187 323 CURVE SMOOTH",
"187 674 LINE SMOOTH",
"187 677 OFFCURVE",
"186 678 OFFCURVE",
"183 678 CURVE SMOOTH",
"44 678 LINE SMOOTH",
"41 678 OFFCURVE",
"40 677 OFFCURVE",
"40 674 CURVE SMOOTH",
"40 4 LINE SMOOTH"
);
}
);
};
layerId = "D1BC8BBB-1669-4C46-BC21-42BF6808B2B9";
paths = (
{
closed = 1;
nodes = (
"40 1 OFFCURVE",
"41 0 OFFCURVE",
"44 0 CURVE SMOOTH",
"183 0 LINE SMOOTH",
"186 0 OFFCURVE",
"187 1 OFFCURVE",
"187 4 CURVE SMOOTH",
"187 185 LINE SMOOTH",
"187 193 OFFCURVE",
"187 198 OFFCURVE",
"189 201 CURVE SMOOTH",
"198 214 OFFCURVE",
"216 183 OFFCURVE",
"223 168 CURVE SMOOTH",
"235 144 OFFCURVE",
"310 7 OFFCURVE",
"310 7 CURVE",
"314 -1 OFFCURVE",
"314 0 OFFCURVE",
"319 0 CURVE SMOOTH",
"328 0 OFFCURVE",
"448 0 OFFCURVE",
"457 0 CURVE SMOOTH",
"462 0 OFFCURVE",
"462 4 OFFCURVE",
"460 8 CURVE SMOOTH",
"457 14 OFFCURVE",
"384 197 OFFCURVE",
"326 255 CURVE SMOOTH",
"324 257 OFFCURVE",
"316 260 OFFCURVE",
"314 262 CURVE",
"318 267 OFFCURVE",
"321 270 OFFCURVE",
"327 277 CURVE SMOOTH",
"382 343 OFFCURVE",
"425 441 OFFCURVE",
"430 455 CURVE",
"432 460 OFFCURVE",
"435 472 OFFCURVE",
"422 472 CURVE SMOOTH",
"304 472 LINE SMOOTH",
"285 472 OFFCURVE",
"280 472 OFFCURVE",
"274 458 CURVE SMOOTH",
"254 408 OFFCURVE",
"242 383 OFFCURVE",
"217 343 CURVE SMOOTH",
"209 330 OFFCURVE",
"206 326 OFFCURVE",
"197 317 CURVE SMOOTH",
"195 315 OFFCURVE",
"191 312 OFFCURVE",
"189 312 CURVE SMOOTH",
"187 312 OFFCURVE",
"187 320 OFFCURVE",
"187 323 CURVE SMOOTH",
"187 674 LINE SMOOTH",
"187 677 OFFCURVE",
"186 678 OFFCURVE",
"183 678 CURVE SMOOTH",
"44 678 LINE SMOOTH",
"41 678 OFFCURVE",
"40 677 OFFCURVE",
"40 674 CURVE SMOOTH",
"40 4 LINE SMOOTH"
);
}
);
width = 486;
}
);
note = k;
unicode = 006B;
},
{
glyphname = l;
lastChange = "2021-04-12 08:36:05 +0000";
layers = (
{
anchors = (
{
name = bottom;
position = "{97, 0}";
},
{
name = center;
position = "{97, 354}";
},
{
name = top;
position = "{97, 708}";
},
{
name = topright;
position = "{173, 708}";
}
);
background = {
paths = (
{
closed = 1;
nodes = (
"80 1 OFFCURVE",
"81 0 OFFCURVE",
"83 0 CURVE SMOOTH",
"109 0 LINE SMOOTH",
"111 0 OFFCURVE",
"113 1 OFFCURVE",
"113 4 CURVE SMOOTH",
"113 704 LINE SMOOTH",
"113 707 OFFCURVE",
"111 708 OFFCURVE",
"109 708 CURVE SMOOTH",
"83 708 LINE SMOOTH",
"81 708 OFFCURVE",
"80 707 OFFCURVE",
"80 704 CURVE SMOOTH",
"80 4 LINE SMOOTH"
);
}
);
};
layerId = "707362F1-A677-446A-8636-E10BE3A7FAFF";
paths = (
{
closed = 1;
nodes = (
"80 1 OFFCURVE",
"81 0 OFFCURVE",
"83 0 CURVE SMOOTH",
"109 0 LINE SMOOTH",
"111 0 OFFCURVE",
"113 1 OFFCURVE",
"113 4 CURVE SMOOTH",
"113 704 LINE SMOOTH",
"113 707 OFFCURVE",
"111 708 OFFCURVE",
"109 708 CURVE SMOOTH",
"83 708 LINE SMOOTH",
"81 708 OFFCURVE",
"80 707 OFFCURVE",
"80 704 CURVE SMOOTH",
"80 4 LINE SMOOTH"
);
}
);
width = 193;
},
{
anchors = (
{
name = bottom;
position = "{139, 0}";
},
{
name = center;
position = "{139, 344}";
},
{
name = top;
position = "{139, 687}";
},
{
name = topright;
position = "{257, 687}";
}
);
background = {
paths = (
{
closed = 1;
nodes = (
"65 6 OFFCURVE",
"71 0 OFFCURVE",
"81 0 CURVE SMOOTH",
"196 0 LINE SMOOTH",
"206 0 OFFCURVE",
"212 6 OFFCURVE",
"212 14 CURVE SMOOTH",
"212 694 LINE SMOOTH",
"212 702 OFFCURVE",
"206 708 OFFCURVE",
"196 708 CURVE SMOOTH",
"81 708 LINE SMOOTH",
"71 708 OFFCURVE",
"65 702 OFFCURVE",
"65 694 CURVE SMOOTH",
"65 14 LINE SMOOTH"
);
}
);
};
layerId = "D1BC8BBB-1669-4C46-BC21-42BF6808B2B9";
paths = (
{
closed = 1;
nodes = (
"65 6 OFFCURVE",
"71 0 OFFCURVE",
"81 0 CURVE SMOOTH",
"196 0 LINE SMOOTH",
"206 0 OFFCURVE",
"212 6 OFFCURVE",
"212 14 CURVE SMOOTH",
"212 694 LINE SMOOTH",
"212 702 OFFCURVE",
"206 708 OFFCURVE",
"196 708 CURVE SMOOTH",
"81 708 LINE SMOOTH",
"71 708 OFFCURVE",
"65 702 OFFCURVE",
"65 694 CURVE SMOOTH",
"65 14 LINE SMOOTH"
);
}
);
width = 277;
}
);
note = l;
unicode = 006C;
},
{
color = 4;
glyphname = m;
lastChange = "2021-04-12 08:36:05 +0000";
layers = (
{
anchors = (
{
name = bottom;
position = "{364, 0}";
},
{
name = top;
position = "{364, 472}";
}
);
background = {
paths = (
{
closed = 1;
nodes = (
"597 445 OFFCURVE",
"633 354 OFFCURVE",
"633 257 CURVE SMOOTH",
"633 152 OFFCURVE",
"626 28 OFFCURVE",
"625 7 CURVE SMOOTH",
"624 1 OFFCURVE",
"625 0 OFFCURVE",
"631 0 CURVE SMOOTH",
"649 0 LINE SMOOTH",
"655 0 OFFCURVE",
"657 1 OFFCURVE",
"658 5 CURVE",
"659 41 OFFCURVE",
"667 150 OFFCURVE",
"667 253 CURVE SMOOTH",
"667 378 OFFCURVE",
"629 476 OFFCURVE",
"487 476 CURVE SMOOTH",
"439 476 OFFCURVE",
"373 447 OFFCURVE",
"353 398 CURVE",
"328 445 OFFCURVE",
"281 476 OFFCURVE",
"200 476 CURVE SMOOTH",
"151 476 OFFCURVE",
"97 459 OFFCURVE",
"77 451 CURVE SMOOTH",
"65 446 OFFCURVE",
"60 435 OFFCURVE",
"60 431 CURVE SMOOTH",
"60 4 LINE SMOOTH",
"60 1 OFFCURVE",
"61 0 OFFCURVE",
"64 0 CURVE SMOOTH",
"89 0 LINE SMOOTH",
"92 0 OFFCURVE",
"93 1 OFFCURVE",
"93 4 CURVE SMOOTH",
"93 401 LINE SMOOTH",
"93 415 OFFCURVE",
"101 424 OFFCURVE",
"108 426 CURVE SMOOTH",
"161 446 OFFCURVE",
"228 457 OFFCURVE",
"282 424 CURVE SMOOTH",
"331 393 OFFCURVE",
"347 339 OFFCURVE",
"347 253 CURVE SMOOTH",
"347 7 LINE",
"346 1 OFFCURVE",
"347 0 OFFCURVE",
"353 0 CURVE SMOOTH",
"370 0 LINE SMOOTH",
"376 0 OFFCURVE",
"379 1 OFFCURVE",
"380 5 CURVE",
"381 41 OFFCURVE",
"380 150 OFFCURVE",
"380 253 CURVE SMOOTH",
"380 340 LINE SMOOTH",
"380 404 OFFCURVE",
"431 445 OFFCURVE",
"492 445 CURVE SMOOTH"
);
}
);
};
layerId = "707362F1-A677-446A-8636-E10BE3A7FAFF";
paths = (
{
closed = 1;
nodes = (
"89 0 LINE SMOOTH",
"92 0 OFFCURVE",
"93 1 OFFCURVE",
"93 4 CURVE SMOOTH",
"93 401 LINE SMOOTH",
"93 415 OFFCURVE",
"101 424 OFFCURVE",
"113 428 CURVE SMOOTH",
"137 437 OFFCURVE",
"169 445 OFFCURVE",
"202 445 CURVE SMOOTH",
"312 445 OFFCURVE",
"347 368 OFFCURVE",
"347 253 CURVE SMOOTH",
"347 7 LINE SMOOTH",
"347 2 OFFCURVE",
"349 0 OFFCURVE",
"354 0 CURVE SMOOTH",
"372 0 LINE SMOOTH",
"379 0 OFFCURVE",
"380 3 OFFCURVE",
"380 8 CURVE SMOOTH",
"381 121 OFFCURVE",
"381 182 OFFCURVE",
"380 340 CURVE SMOOTH",
"380 404 OFFCURVE",
"431 445 OFFCURVE",
"492 445 CURVE SMOOTH",
"597 445 OFFCURVE",
"633 354 OFFCURVE",
"633 257 CURVE SMOOTH",
"633 152 OFFCURVE",
"626 28 OFFCURVE",
"625 6 CURVE SMOOTH",
"625 2 OFFCURVE",
"627 0 OFFCURVE",
"632 0 CURVE SMOOTH",
"651 0 LINE SMOOTH",
"655 0 OFFCURVE",
"658 2 OFFCURVE",
"658 7 CURVE SMOOTH",
"659 41 OFFCURVE",
"667 150 OFFCURVE",
"667 253 CURVE SMOOTH",
"667 378 OFFCURVE",
"629 476 OFFCURVE",
"487 476 CURVE SMOOTH",
"439 476 OFFCURVE",
"373 447 OFFCURVE",
"353 398 CURVE",
"328 445 OFFCURVE",
"281 476 OFFCURVE",
"200 476 CURVE SMOOTH",
"151 476 OFFCURVE",
"97 459 OFFCURVE",
"77 451 CURVE SMOOTH",
"66 446 OFFCURVE",
"60 439 OFFCURVE",
"60 421 CURVE SMOOTH",
"60 4 LINE SMOOTH",
"60 1 OFFCURVE",
"61 0 OFFCURVE",
"64 0 CURVE SMOOTH"
);
}
);
width = 727;
},
{
anchors = (
{
name = bottom;
position = "{364, 0}";
},
{
name = top;
position = "{364, 472}";
}
);
background = {
paths = (
{
closed = 1;
nodes = (
"531 363 OFFCURVE",
"535 283 OFFCURVE",
"535 254 CURVE SMOOTH",
"535 173 OFFCURVE",
"532 87 OFFCURVE",
"526 21 CURVE SMOOTH",
"524 4 OFFCURVE",
"525 0 OFFCURVE",
"535 0 CURVE SMOOTH",
"659 0 LINE SMOOTH",
"665 0 OFFCURVE",
"667 1 OFFCURVE",
"668 5 CURVE",
"681 96 OFFCURVE",
"687 147 OFFCURVE",
"687 250 CURVE SMOOTH",
"687 375 OFFCURVE",
"646 476 OFFCURVE",
"487 476 CURVE SMOOTH",
"439 476 OFFCURVE",
"407 461 OFFCURVE",
"365 438 CURVE",
"326 463 OFFCURVE",
"287 476 OFFCURVE",
"200 476 CURVE SMOOTH",
"178 476 OFFCURVE",
"103 460 OFFCURVE",
"63 447 CURVE SMOOTH",
"47 442 OFFCURVE",
"40 435 OFFCURVE",
"40 422 CURVE SMOOTH",
"40 15 LINE SMOOTH",
"40 1 OFFCURVE",
"51 0 OFFCURVE",
"57 0 CURVE SMOOTH",
"177 0 LINE SMOOTH",
"184 0 OFFCURVE",
"186 12 OFFCURVE",
"186 20 CURVE SMOOTH",
"186 346 LINE SMOOTH",
"186 363 OFFCURVE",
"210 363 OFFCURVE",
"219 363 CURVE SMOOTH",
"231 363 OFFCURVE",
"245 361 OFFCURVE",
"256 352 CURVE SMOOTH",
"282 331 OFFCURVE",
"287 293 OFFCURVE",
"287 253 CURVE SMOOTH",
"287 7 LINE",
"286 1 OFFCURVE",
"287 0 OFFCURVE",
"293 0 CURVE SMOOTH",
"423 0 LINE SMOOTH",
"434 0 OFFCURVE",
"434 12 OFFCURVE",
"434 20 CURVE",
"434 53 OFFCURVE",
"434 192 OFFCURVE",
"434 338 CURVE SMOOTH",
"434 347 LINE SMOOTH",
"434 363 OFFCURVE",
"463 363 OFFCURVE",
"473 363 CURVE SMOOTH"
);
}
);
};
layerId = "D1BC8BBB-1669-4C46-BC21-42BF6808B2B9";
paths = (
{
closed = 1;
nodes = (
"171 0 LINE SMOOTH",
"181 0 OFFCURVE",
"186 5 OFFCURVE",
"186 18 CURVE SMOOTH",
"186 344 LINE SMOOTH",
"186 353 OFFCURVE",
"189 356 OFFCURVE",
"196 359 CURVE SMOOTH",
"203 362 OFFCURVE",
"211 363 OFFCURVE",
"219 363 CURVE SMOOTH",
"272 363 OFFCURVE",
"287 316 OFFCURVE",
"287 253 CURVE SMOOTH",
"287 10 LINE SMOOTH",
"287 2 OFFCURVE",
"289 0 OFFCURVE",
"296 0 CURVE SMOOTH",
"420 0 LINE SMOOTH",
"431 0 OFFCURVE",
"434 6 OFFCURVE",
"434 15 CURVE SMOOTH",
"434 123 OFFCURVE",
"434 230 OFFCURVE",
"434 338 CURVE SMOOTH",
"434 357 OFFCURVE",
"438 363 OFFCURVE",
"473 363 CURVE SMOOTH",
"531 363 OFFCURVE",
"535 283 OFFCURVE",
"535 254 CURVE SMOOTH",
"535 173 OFFCURVE",
"532 87 OFFCURVE",
"526 21 CURVE SMOOTH",
"524 4 OFFCURVE",
"525 0 OFFCURVE",
"535 0 CURVE SMOOTH",
"659 0 LINE SMOOTH",
"665 0 OFFCURVE",
"668 1 OFFCURVE",
"669 10 CURVE SMOOTH",
"681 97 OFFCURVE",
"687 147 OFFCURVE",
"687 250 CURVE SMOOTH",
"687 375 OFFCURVE",
"646 476 OFFCURVE",
"487 476 CURVE SMOOTH",
"439 476 OFFCURVE",
"407 461 OFFCURVE",
"365 438 CURVE",
"326 463 OFFCURVE",
"287 476 OFFCURVE",
"219 476 CURVE SMOOTH",
"178 476 OFFCURVE",
"103 460 OFFCURVE",
"63 447 CURVE SMOOTH",
"47 442 OFFCURVE",
"40 435 OFFCURVE",
"40 422 CURVE SMOOTH",
"40 15 LINE SMOOTH",
"40 6 OFFCURVE",
"45 0 OFFCURVE",
"57 0 CURVE SMOOTH"
);
}
);
width = 727;
}
);
note = m;
unicode = 006D;
},
{
color = 4;
glyphname = n;
lastChange = "2021-04-12 08:36:05 +0000";
layers = (
{
anchors = (
{
name = bottom;
position = "{253, 0}";
},
{
name = top;
position = "{253, 472}";
}
);
background = {
paths = (
{
closed = 1;
nodes = (
"92 0 OFFCURVE",
"101 0 OFFCURVE",
"109 0 CURVE SMOOTH",
"112 0 OFFCURVE",
"113 1 OFFCURVE",
"113 4 CURVE SMOOTH",
"113 136 OFFCURVE",
"113 269 OFFCURVE",
"113 401 CURVE SMOOTH",
"113 415 OFFCURVE",
"124 420 OFFCURVE",
"131 422 CURVE SMOOTH",
"162 434 OFFCURVE",
"203 443 OFFCURVE",
"242 443 CURVE SMOOTH",
"272 443 OFFCURVE",
"300 438 OFFCURVE",
"323 424 CURVE SMOOTH",
"373 393 OFFCURVE",
"392 329 OFFCURVE",
"392 257 CURVE SMOOTH",
"392 152 OFFCURVE",
"384 28 OFFCURVE",
"383 7 CURVE SMOOTH",
"382 1 OFFCURVE",
"383 0 OFFCURVE",
"389 0 CURVE SMOOTH",
"395 0 OFFCURVE",
"401 0 OFFCURVE",
"407 0 CURVE SMOOTH",
"413 0 OFFCURVE",
"415 1 OFFCURVE",
"416 5 CURVE",
"417 41 OFFCURVE",
"425 150 OFFCURVE",
"425 253 CURVE SMOOTH",
"425 378 OFFCURVE",
"388 476 OFFCURVE",
"242 476 CURVE SMOOTH",
"192 476 OFFCURVE",
"121 458 OFFCURVE",
"94 450 CURVE SMOOTH",
"82 446 OFFCURVE",
"80 440 OFFCURVE",
"80 435 CURVE SMOOTH",
"80 291 OFFCURVE",
"80 148 OFFCURVE",
"80 4 CURVE SMOOTH",
"80 1 OFFCURVE",
"81 0 OFFCURVE",
"84 0 CURVE SMOOTH"
);
}
);
};
layerId = "707362F1-A677-446A-8636-E10BE3A7FAFF";
paths = (
{
closed = 1;
nodes = (
"109 0 LINE SMOOTH",
"112 0 OFFCURVE",
"113 1 OFFCURVE",
"113 4 CURVE SMOOTH",
"113 136 OFFCURVE",
"113 269 OFFCURVE",
"113 401 CURVE SMOOTH",
"113 415 OFFCURVE",
"124 420 OFFCURVE",
"131 422 CURVE SMOOTH",
"162 434 OFFCURVE",
"203 443 OFFCURVE",
"242 443 CURVE SMOOTH",
"350 443 OFFCURVE",
"392 368 OFFCURVE",
"392 257 CURVE SMOOTH",
"392 152 OFFCURVE",
"384 28 OFFCURVE",
"383 7 CURVE SMOOTH",
"382 1 OFFCURVE",
"383 0 OFFCURVE",
"389 0 CURVE SMOOTH",
"407 0 LINE SMOOTH",
"413 0 OFFCURVE",
"415 1 OFFCURVE",
"416 5 CURVE SMOOTH",
"417 41 OFFCURVE",
"425 150 OFFCURVE",
"425 253 CURVE SMOOTH",
"425 378 OFFCURVE",
"388 476 OFFCURVE",
"242 476 CURVE SMOOTH",
"192 476 OFFCURVE",
"121 458 OFFCURVE",
"94 450 CURVE SMOOTH",
"82 446 OFFCURVE",
"80 440 OFFCURVE",
"80 435 CURVE SMOOTH",
"80 291 OFFCURVE",
"80 148 OFFCURVE",
"80 4 CURVE SMOOTH",
"80 1 OFFCURVE",
"81 0 OFFCURVE",
"84 0 CURVE SMOOTH"
);
}
);
width = 505;
},
{
anchors = (
{
name = bottom;
position = "{238, 0}";
},
{
name = top;
position = "{238, 472}";
}
);
background = {
paths = (
{
closed = 1;
nodes = (
"97 0 OFFCURVE",
"136 0 OFFCURVE",
"176 0 CURVE SMOOTH",
"186 0 OFFCURVE",
"186 12 OFFCURVE",
"186 20 CURVE SMOOTH",
"186 129 OFFCURVE",
"186 238 OFFCURVE",
"186 322 CURVE SMOOTH",
"186 335 OFFCURVE",
"186 352 OFFCURVE",
"192 358 CURVE SMOOTH",
"197 363 OFFCURVE",
"210 363 OFFCURVE",
"223 363 CURVE SMOOTH",
"262 363 OFFCURVE",
"289 349 OFFCURVE",
"287 248 CURVE SMOOTH",
"287 237 OFFCURVE",
"277 32 OFFCURVE",
"276 21 CURVE SMOOTH",
"272 -6 OFFCURVE",
"281 0 OFFCURVE",
"302 0 CURVE SMOOTH",
"333 0 OFFCURVE",
"365 0 OFFCURVE",
"396 0 CURVE SMOOTH",
"417 0 OFFCURVE",
"420 0 OFFCURVE",
"423 28 CURVE SMOOTH",
"431 96 OFFCURVE",
"436 181 OFFCURVE",
"436 250 CURVE SMOOTH",
"436 372 OFFCURVE",
"396 476 OFFCURVE",
"227 476 CURVE SMOOTH",
"178 476 OFFCURVE",
"103 460 OFFCURVE",
"79 452 CURVE SMOOTH",
"48 441 OFFCURVE",
"40 438 OFFCURVE",
"40 422 CURVE SMOOTH",
"40 286 OFFCURVE",
"40 151 OFFCURVE",
"40 15 CURVE SMOOTH",
"40 1 OFFCURVE",
"51 0 OFFCURVE",
"57 0 CURVE SMOOTH"
);
}
);
};
layerId = "D1BC8BBB-1669-4C46-BC21-42BF6808B2B9";
paths = (
{
closed = 1;
nodes = (
"174 0 LINE SMOOTH",
"182 0 OFFCURVE",
"186 5 OFFCURVE",
"186 15 CURVE SMOOTH",
"186 129 OFFCURVE",
"186 253 OFFCURVE",
"186 330 CURVE SMOOTH",
"186 353 OFFCURVE",
"189 360 OFFCURVE",
"203 362 CURVE SMOOTH",
"208 363 OFFCURVE",
"214 363 OFFCURVE",
"223 363 CURVE SMOOTH",
"262 363 OFFCURVE",
"287 349 OFFCURVE",
"287 248 CURVE SMOOTH",
"287 194 OFFCURVE",
"277 32 OFFCURVE",
"276 21 CURVE SMOOTH",
"275 4 OFFCURVE",
"281 0 OFFCURVE",
"302 0 CURVE SMOOTH",
"396 0 LINE SMOOTH",
"417 0 OFFCURVE",
"420 0 OFFCURVE",
"423 28 CURVE SMOOTH",
"431 96 OFFCURVE",
"436 181 OFFCURVE",
"436 250 CURVE SMOOTH",
"436 372 OFFCURVE",
"396 476 OFFCURVE",
"227 476 CURVE SMOOTH",
"178 476 OFFCURVE",
"103 460 OFFCURVE",
"79 452 CURVE SMOOTH",
"48 441 OFFCURVE",
"40 438 OFFCURVE",
"40 422 CURVE SMOOTH",
"40 286 OFFCURVE",
"40 151 OFFCURVE",
"40 15 CURVE SMOOTH",
"40 4 OFFCURVE",
"47 0 OFFCURVE",
"57 0 CURVE SMOOTH"
);
}
);
width = 476;
}
);
note = n;
unicode = 006E;
},
{
glyphname = o;
lastChange = "2021-04-12 08:52:10 +0000";
layers = (
{
anchors = (
{
name = bottom;
position = "{243, 0}";
},
{
name = center;
position = "{243, 236}";
},
{
name = ogonek;
position = "{437, 10}";
},
{
name = top;
position = "{243, 472}";
},
{
name = topright;
position = "{296, 472}";
}
);
background = {
paths = (
{
closed = 1;
nodes = (
"45 93 OFFCURVE",
"86 -7 OFFCURVE",
"243 -7 CURVE SMOOTH",
"400 -7 OFFCURVE",
"441 94 OFFCURVE",
"441 238 CURVE SMOOTH",
"441 382 OFFCURVE",
"392 483 OFFCURVE",
"243 483 CURVE SMOOTH",
"95 483 OFFCURVE",
"45 382 OFFCURVE",
"45 238 CURVE SMOOTH"
);
},
{
closed = 1;
nodes = (
"78 375 OFFCURVE",
"130 453 OFFCURVE",
"243 453 CURVE SMOOTH",
"357 453 OFFCURVE",
"408 374 OFFCURVE",
"408 238 CURVE SMOOTH",
"408 103 OFFCURVE",
"365 22 OFFCURVE",
"243 22 CURVE SMOOTH",
"122 22 OFFCURVE",
"78 101 OFFCURVE",
"78 238 CURVE SMOOTH"
);
}
);
};
layerId = "707362F1-A677-446A-8636-E10BE3A7FAFF";
paths = (
{
closed = 1;
nodes = (
"400 -7 OFFCURVE",
"441 94 OFFCURVE",
"441 238 CURVE SMOOTH",
"441 382 OFFCURVE",
"392 483 OFFCURVE",
"243 483 CURVE SMOOTH",
"95 483 OFFCURVE",
"45 382 OFFCURVE",
"45 238 CURVE SMOOTH",
"45 93 OFFCURVE",
"86 -7 OFFCURVE",
"243 -7 CURVE SMOOTH"
);
},
{
closed = 1;
nodes = (
"122 22 OFFCURVE",
"78 101 OFFCURVE",
"78 238 CURVE SMOOTH",
"78 375 OFFCURVE",
"130 453 OFFCURVE",
"243 453 CURVE SMOOTH",
"357 453 OFFCURVE",
"408 374 OFFCURVE",
"408 238 CURVE SMOOTH",
"408 103 OFFCURVE",
"365 22 OFFCURVE",
"243 22 CURVE SMOOTH"
);
}
);
width = 486;
},
{
anchors = (
{
name = bottom;
position = "{253, 0}";
},
{
name = center;
position = "{253, 236}";
},
{
name = ogonek;
position = "{455, 10}";
},
{
name = top;
position = "{253, 472}";
},
{
name = topright;
position = "{285, 472}";
}
);
background = {
paths = (
{
closed = 1;
nodes = (
"30 101 OFFCURVE",
"74 -6 OFFCURVE",
"253 -6 CURVE SMOOTH",
"431 -6 OFFCURVE",
"476 103 OFFCURVE",
"476 238 CURVE SMOOTH",
"476 374 OFFCURVE",
"420 477 OFFCURVE",
"253 477 CURVE SMOOTH",
"85 477 OFFCURVE",
"30 374 OFFCURVE",
"30 238 CURVE SMOOTH"
);
},
{
closed = 1;
nodes = (
"178 315 OFFCURVE",
"202 358 OFFCURVE",
"251 358 CURVE SMOOTH",
"301 358 OFFCURVE",
"325 315 OFFCURVE",
"325 234 CURVE SMOOTH",
"325 152 OFFCURVE",
"306 105 OFFCURVE",
"251 105 CURVE SMOOTH",
"198 105 OFFCURVE",
"178 151 OFFCURVE",
"178 234 CURVE SMOOTH"
);
}
);
};
layerId = "D1BC8BBB-1669-4C46-BC21-42BF6808B2B9";
paths = (
{
closed = 1;
nodes = (
"431 -6 OFFCURVE",
"476 103 OFFCURVE",
"476 238 CURVE SMOOTH",
"476 374 OFFCURVE",
"420 477 OFFCURVE",
"253 477 CURVE SMOOTH",
"85 477 OFFCURVE",
"30 374 OFFCURVE",
"30 238 CURVE SMOOTH",
"30 101 OFFCURVE",
"74 -6 OFFCURVE",
"253 -6 CURVE SMOOTH"
);
},
{
closed = 1;
nodes = (
"198 105 OFFCURVE",
"178 151 OFFCURVE",
"178 234 CURVE SMOOTH",
"178 315 OFFCURVE",
"202 358 OFFCURVE",
"251 358 CURVE SMOOTH",
"301 358 OFFCURVE",
"325 315 OFFCURVE",
"325 234 CURVE SMOOTH",
"325 152 OFFCURVE",
"306 105 OFFCURVE",
"251 105 CURVE SMOOTH"
);
}
);
width = 506;
}
);
note = o;
rightKerningGroup = b;
unicode = 006F;
},
{
glyphname = p;
lastChange = "2021-04-12 08:36:05 +0000";
layers = (
{
anchors = (
{
name = bottom;
position = "{248, 0}";
},
{
name = top;
position = "{248, 472}";
}
);
background = {
paths = (
{
closed = 1;
nodes = (
"83 -112 OFFCURVE",
"84 -117 OFFCURVE",
"88 -117 CURVE SMOOTH",
"110 -117 LINE SMOOTH",
"117 -117 OFFCURVE",
"116 -111 OFFCURVE",
"116 -109 CURVE SMOOTH",
"114 -59 OFFCURVE",
"116 -12 OFFCURVE",
"116 5 CURVE SMOOTH",
"116 11 OFFCURVE",
"120 13 OFFCURVE",
"127 9 CURVE",
"149 0 OFFCURVE",
"212 -7 OFFCURVE",
"249 -7 CURVE SMOOTH",
"396 -7 OFFCURVE",
"446 119 OFFCURVE",
"446 245 CURVE SMOOTH",
"446 407 OFFCURVE",
"389 480 OFFCURVE",
"264 480 CURVE SMOOTH",
"202 480 OFFCURVE",
"152 472 OFFCURVE",
"100 455 CURVE SMOOTH",
"90 452 OFFCURVE",
"88 445 OFFCURVE",
"88 439 CURVE SMOOTH",
"83 359 OFFCURVE",
"81 276 OFFCURVE",
"80 194 CURVE SMOOTH",
"79 93 OFFCURVE",
"80 -9 OFFCURVE",
"83 -110 CURVE SMOOTH"
);
},
{
closed = 1;
nodes = (
"112 92 OFFCURVE",
"114 327 OFFCURVE",
"121 417 CURVE SMOOTH",
"121 424 OFFCURVE",
"130 428 OFFCURVE",
"139 432 CURVE SMOOTH",
"173 444 OFFCURVE",
"217 452 OFFCURVE",
"260 452 CURVE SMOOTH",
"355 452 OFFCURVE",
"413 399 OFFCURVE",
"413 245 CURVE SMOOTH",
"413 61 OFFCURVE",
"320 24 OFFCURVE",
"252 24 CURVE SMOOTH",
"219 24 OFFCURVE",
"169 28 OFFCURVE",
"134 39 CURVE SMOOTH",
"126 41 OFFCURVE",
"114 45 OFFCURVE",
"114 58 CURVE SMOOTH"
);
}
);
};
layerId = "707362F1-A677-446A-8636-E10BE3A7FAFF";
paths = (
{
closed = 1;
nodes = (
"83 -112 OFFCURVE",
"84 -117 OFFCURVE",
"88 -117 CURVE SMOOTH",
"110 -117 LINE SMOOTH",
"117 -117 OFFCURVE",
"116 -111 OFFCURVE",
"116 -109 CURVE SMOOTH",
"114 -59 OFFCURVE",
"116 -12 OFFCURVE",
"116 5 CURVE SMOOTH",
"116 11 OFFCURVE",
"120 13 OFFCURVE",
"127 9 CURVE",
"149 0 OFFCURVE",
"212 -7 OFFCURVE",
"249 -7 CURVE SMOOTH",
"396 -7 OFFCURVE",
"446 119 OFFCURVE",
"446 245 CURVE SMOOTH",
"446 407 OFFCURVE",
"389 480 OFFCURVE",
"264 480 CURVE SMOOTH",
"202 480 OFFCURVE",
"152 472 OFFCURVE",
"100 455 CURVE SMOOTH",
"90 452 OFFCURVE",
"88 445 OFFCURVE",
"88 439 CURVE SMOOTH",
"83 359 OFFCURVE",
"81 276 OFFCURVE",
"80 194 CURVE SMOOTH",
"79 93 OFFCURVE",
"80 -9 OFFCURVE",
"83 -110 CURVE SMOOTH"
);
},
{
closed = 1;
nodes = (
"112 92 OFFCURVE",
"114 327 OFFCURVE",
"121 417 CURVE SMOOTH",
"121 424 OFFCURVE",
"130 428 OFFCURVE",
"139 432 CURVE SMOOTH",
"173 444 OFFCURVE",
"217 452 OFFCURVE",
"260 452 CURVE SMOOTH",
"355 452 OFFCURVE",
"413 399 OFFCURVE",
"413 245 CURVE SMOOTH",
"413 61 OFFCURVE",
"320 24 OFFCURVE",
"252 24 CURVE SMOOTH",
"219 24 OFFCURVE",
"169 28 OFFCURVE",
"134 39 CURVE SMOOTH",
"126 41 OFFCURVE",
"114 45 OFFCURVE",
"114 58 CURVE SMOOTH"
);
}
);
width = 496;
},
{
anchors = (
{
name = bottom;
position = "{242, 0}";
},
{
name = top;
position = "{242, 472}";
}
);
background = {
paths = (
{
closed = 1;
nodes = (
"50 -105 OFFCURVE",
"57 -106 OFFCURVE",
"69 -106 CURVE SMOOTH",
"178 -106 LINE SMOOTH",
"200 -106 OFFCURVE",
"197 -100 OFFCURVE",
"194 -79 CURVE SMOOTH",
"193 -72 OFFCURVE",
"191 -26 OFFCURVE",
"192 -12 CURVE SMOOTH",
"193 -2 OFFCURVE",
"200 -6 OFFCURVE",
"213 -7 CURVE SMOOTH",
"254 -11 OFFCURVE",
"311 -5 OFFCURVE",
"348 14 CURVE SMOOTH",
"408 45 OFFCURVE",
"458 114 OFFCURVE",
"458 247 CURVE SMOOTH",
"458 408 OFFCURVE",
"378 481 OFFCURVE",
"246 481 CURVE SMOOTH",
"176 481 OFFCURVE",
"116 466 OFFCURVE",
"93 458 CURVE SMOOTH",
"61 447 OFFCURVE",
"57 440 OFFCURVE",
"53 424 CURVE SMOOTH",
"42 386 OFFCURVE",
"40 275 OFFCURVE",
"40 212 CURVE SMOOTH",
"40 42 OFFCURVE",
"43 -58 OFFCURVE",
"49 -96 CURVE SMOOTH"
);
},
{
closed = 1;
nodes = (
"191 212 OFFCURVE",
"192 281 OFFCURVE",
"194 349 CURVE SMOOTH",
"194 356 OFFCURVE",
"195 359 OFFCURVE",
"198 361 CURVE SMOOTH",
"209 366 OFFCURVE",
"226 369 OFFCURVE",
"245 369 CURVE SMOOTH",
"281 369 OFFCURVE",
"309 341 OFFCURVE",
"309 248 CURVE SMOOTH",
"309 137 OFFCURVE",
"272 122 OFFCURVE",
"245 122 CURVE SMOOTH",
"231 122 OFFCURVE",
"211 127 OFFCURVE",
"197 132 CURVE SMOOTH",
"192 133 OFFCURVE",
"191 136 OFFCURVE",
"191 144 CURVE SMOOTH"
);
}
);
};
layerId = "D1BC8BBB-1669-4C46-BC21-42BF6808B2B9";
paths = (
{
closed = 1;
nodes = (
"50 -105 OFFCURVE",
"57 -106 OFFCURVE",
"69 -106 CURVE SMOOTH",
"178 -106 LINE SMOOTH",
"200 -106 OFFCURVE",
"197 -100 OFFCURVE",
"194 -79 CURVE SMOOTH",
"193 -72 OFFCURVE",
"191 -26 OFFCURVE",
"192 -12 CURVE SMOOTH",
"193 -2 OFFCURVE",
"200 -6 OFFCURVE",
"213 -7 CURVE SMOOTH",
"254 -11 OFFCURVE",
"311 -5 OFFCURVE",
"348 14 CURVE SMOOTH",
"408 45 OFFCURVE",
"458 114 OFFCURVE",
"458 247 CURVE SMOOTH",
"458 408 OFFCURVE",
"378 481 OFFCURVE",
"246 481 CURVE SMOOTH",
"176 481 OFFCURVE",
"116 466 OFFCURVE",
"93 458 CURVE SMOOTH",
"61 447 OFFCURVE",
"57 440 OFFCURVE",
"53 424 CURVE SMOOTH",
"42 386 OFFCURVE",
"40 275 OFFCURVE",
"40 212 CURVE SMOOTH",
"40 42 OFFCURVE",
"43 -58 OFFCURVE",
"49 -96 CURVE SMOOTH"
);
},
{
closed = 1;
nodes = (
"191 212 OFFCURVE",
"192 281 OFFCURVE",
"194 349 CURVE SMOOTH",
"194 356 OFFCURVE",
"195 359 OFFCURVE",
"198 361 CURVE SMOOTH",
"209 366 OFFCURVE",
"226 369 OFFCURVE",
"245 369 CURVE SMOOTH",
"281 369 OFFCURVE",
"309 341 OFFCURVE",
"309 248 CURVE SMOOTH",
"309 137 OFFCURVE",
"272 122 OFFCURVE",
"245 122 CURVE SMOOTH",
"231 122 OFFCURVE",
"211 127 OFFCURVE",
"197 132 CURVE SMOOTH",
"192 133 OFFCURVE",
"191 136 OFFCURVE",
"191 144 CURVE SMOOTH"
);
}
);
width = 483;
}
);
leftKerningGroup = b;
note = p;
rightKerningGroup = b;
unicode = 0070;
},
{
glyphname = q;
lastChange = "2021-04-12 08:36:05 +0000";
layers = (
{
anchors = (
{
name = bottom;
position = "{234, 0}";
},
{
name = top;
position = "{234, 472}";
}
);
background = {
paths = (
{
closed = 1;
nodes = (
"271 -7 OFFCURVE",
"317 1 OFFCURVE",
"349 9 CURVE",
"356 12 OFFCURVE",
"361 11 OFFCURVE",
"361 5 CURVE SMOOTH",
"361 -12 OFFCURVE",
"360 -59 OFFCURVE",
"356 -109 CURVE SMOOTH",
"356 -111 OFFCURVE",
"355 -117 OFFCURVE",
"362 -117 CURVE SMOOTH",
"384 -117 LINE SMOOTH",
"388 -117 OFFCURVE",
"389 -112 OFFCURVE",
"389 -110 CURVE SMOOTH",
"401 58 OFFCURVE",
"411 295 OFFCURVE",
"407 439 CURVE SMOOTH",
"407 445 OFFCURVE",
"406 452 OFFCURVE",
"395 455 CURVE SMOOTH",
"343 472 OFFCURVE",
"296 480 OFFCURVE",
"234 480 CURVE SMOOTH",
"109 480 OFFCURVE",
"47 407 OFFCURVE",
"40 245 CURVE SMOOTH",
"33 42 OFFCURVE",
"137 -7 OFFCURVE",
"222 -7 CURVE SMOOTH"
);
},
{
closed = 1;
nodes = (
"80 399 OFFCURVE",
"140 452 OFFCURVE",
"236 452 CURVE SMOOTH",
"279 452 OFFCURVE",
"322 444 OFFCURVE",
"356 432 CURVE SMOOTH",
"366 428 OFFCURVE",
"374 424 OFFCURVE",
"372 417 CURVE",
"376 327 OFFCURVE",
"369 92 OFFCURVE",
"365 58 CURVE",
"365 45 OFFCURVE",
"356 41 OFFCURVE",
"348 39 CURVE SMOOTH",
"309 29 OFFCURVE",
"256 25 OFFCURVE",
"223 25 CURVE SMOOTH",
"158 25 OFFCURVE",
"66 61 OFFCURVE",
"73 245 CURVE SMOOTH"
);
}
);
};
layerId = "707362F1-A677-446A-8636-E10BE3A7FAFF";
paths = (
{
closed = 1;
nodes = (
"271 -7 OFFCURVE",
"317 1 OFFCURVE",
"349 9 CURVE",
"356 12 OFFCURVE",
"361 11 OFFCURVE",
"361 5 CURVE SMOOTH",
"361 -12 OFFCURVE",
"360 -59 OFFCURVE",
"356 -109 CURVE SMOOTH",
"356 -111 OFFCURVE",
"355 -117 OFFCURVE",
"362 -117 CURVE SMOOTH",
"384 -117 LINE SMOOTH",
"388 -117 OFFCURVE",
"389 -112 OFFCURVE",
"389 -110 CURVE SMOOTH",
"401 58 OFFCURVE",
"411 295 OFFCURVE",
"407 439 CURVE SMOOTH",
"407 445 OFFCURVE",
"406 452 OFFCURVE",
"395 455 CURVE SMOOTH",
"343 472 OFFCURVE",
"296 480 OFFCURVE",
"234 480 CURVE SMOOTH",
"109 480 OFFCURVE",
"47 407 OFFCURVE",
"40 245 CURVE SMOOTH",
"33 42 OFFCURVE",
"137 -7 OFFCURVE",
"222 -7 CURVE SMOOTH"
);
},
{
closed = 1;
nodes = (
"80 399 OFFCURVE",
"140 452 OFFCURVE",
"236 452 CURVE SMOOTH",
"279 452 OFFCURVE",
"322 444 OFFCURVE",
"356 432 CURVE SMOOTH",
"366 428 OFFCURVE",
"374 424 OFFCURVE",
"372 417 CURVE",
"376 327 OFFCURVE",
"369 92 OFFCURVE",
"365 58 CURVE",
"365 45 OFFCURVE",
"356 41 OFFCURVE",
"348 39 CURVE SMOOTH",
"309 29 OFFCURVE",
"256 25 OFFCURVE",
"223 25 CURVE SMOOTH",
"158 25 OFFCURVE",
"66 61 OFFCURVE",
"73 245 CURVE SMOOTH"
);
}
);
width = 468;
},
{
anchors = (
{
name = bottom;
position = "{248, 0}";
},
{
name = top;
position = "{248, 472}";
}
);
background = {
paths = (
{
closed = 1;
nodes = (
"167 -5 OFFCURVE",
"222 -11 OFFCURVE",
"263 -7 CURVE SMOOTH",
"279 -6 OFFCURVE",
"286 -2 OFFCURVE",
"286 -12 CURVE SMOOTH",
"287 -26 OFFCURVE",
"282 -72 OFFCURVE",
"281 -79 CURVE SMOOTH",
"279 -100 OFFCURVE",
"272 -106 OFFCURVE",
"294 -106 CURVE SMOOTH",
"404 -106 LINE SMOOTH",
"414 -106 OFFCURVE",
"422 -105 OFFCURVE",
"425 -96 CURVE",
"439 -30 OFFCURVE",
"460 367 OFFCURVE",
"446 424 CURVE SMOOTH",
"442 440 OFFCURVE",
"438 447 OFFCURVE",
"409 458 CURVE SMOOTH",
"385 466 OFFCURVE",
"324 481 OFFCURVE",
"255 481 CURVE SMOOTH",
"122 481 OFFCURVE",
"38 408 OFFCURVE",
"31 247 CURVE SMOOTH",
"24 114 OFFCURVE",
"72 45 OFFCURVE",
"131 14 CURVE SMOOTH"
);
},
{
closed = 1;
nodes = (
"186 341 OFFCURVE",
"214 369 OFFCURVE",
"250 369 CURVE SMOOTH",
"269 369 OFFCURVE",
"286 366 OFFCURVE",
"298 361 CURVE",
"300 359 OFFCURVE",
"301 356 OFFCURVE",
"300 349 CURVE",
"299 281 OFFCURVE",
"298 212 OFFCURVE",
"294 144 CURVE SMOOTH",
"294 136 OFFCURVE",
"293 133 OFFCURVE",
"288 132 CURVE SMOOTH",
"273 127 OFFCURVE",
"252 122 OFFCURVE",
"239 122 CURVE SMOOTH",
"211 122 OFFCURVE",
"175 137 OFFCURVE",
"181 248 CURVE SMOOTH"
);
}
);
};
layerId = "D1BC8BBB-1669-4C46-BC21-42BF6808B2B9";
paths = (
{
closed = 1;
nodes = (
"167 -5 OFFCURVE",
"222 -11 OFFCURVE",
"263 -7 CURVE SMOOTH",
"279 -6 OFFCURVE",
"286 -2 OFFCURVE",
"286 -12 CURVE SMOOTH",
"287 -26 OFFCURVE",
"282 -72 OFFCURVE",
"281 -79 CURVE SMOOTH",
"279 -100 OFFCURVE",
"272 -106 OFFCURVE",
"294 -106 CURVE SMOOTH",
"404 -106 LINE SMOOTH",
"414 -106 OFFCURVE",
"422 -105 OFFCURVE",
"425 -96 CURVE",
"439 -30 OFFCURVE",
"460 367 OFFCURVE",
"446 424 CURVE SMOOTH",
"442 440 OFFCURVE",
"438 447 OFFCURVE",
"409 458 CURVE SMOOTH",
"385 466 OFFCURVE",
"324 481 OFFCURVE",
"255 481 CURVE SMOOTH",
"122 481 OFFCURVE",
"38 408 OFFCURVE",
"31 247 CURVE SMOOTH",
"24 114 OFFCURVE",
"72 45 OFFCURVE",
"131 14 CURVE SMOOTH"
);
},
{
closed = 1;
nodes = (
"186 341 OFFCURVE",
"214 369 OFFCURVE",
"250 369 CURVE SMOOTH",
"269 369 OFFCURVE",
"286 366 OFFCURVE",
"298 361 CURVE",
"300 359 OFFCURVE",
"301 356 OFFCURVE",
"300 349 CURVE",
"299 281 OFFCURVE",
"298 212 OFFCURVE",
"294 144 CURVE SMOOTH",
"294 136 OFFCURVE",
"293 133 OFFCURVE",
"288 132 CURVE SMOOTH",
"273 127 OFFCURVE",
"252 122 OFFCURVE",
"239 122 CURVE SMOOTH",
"211 122 OFFCURVE",
"175 137 OFFCURVE",
"181 248 CURVE SMOOTH"
);
}
);
width = 496;
}
);
note = q;
unicode = 0071;
},
{
glyphname = r;
lastChange = "2021-04-12 09:51:27 +0000";
layers = (
{
anchors = (
{
name = bottom;
position = "{77, 0}";
},
{
name = top;
position = "{170, 472}";
}
);
background = {
paths = (
{
closed = 1;
nodes = (
"171 477 OFFCURVE",
"114 465 OFFCURVE",
"75 447 CURVE SMOOTH",
"65 442 OFFCURVE",
"60 438 OFFCURVE",
"60 419 CURVE SMOOTH",
"60 4 LINE SMOOTH",
"60 1 OFFCURVE",
"61 0 OFFCURVE",
"64 0 CURVE SMOOTH",
"89 0 LINE SMOOTH",
"92 0 OFFCURVE",
"93 1 OFFCURVE",
"93 4 CURVE SMOOTH",
"93 399 LINE SMOOTH",
"93 418 OFFCURVE",
"104 421 OFFCURVE",
"111 425 CURVE SMOOTH",
"126 432 OFFCURVE",
"182 446 OFFCURVE",
"215 446 CURVE SMOOTH",
"245 446 OFFCURVE",
"274 442 OFFCURVE",
"298 434 CURVE SMOOTH",
"301 433 OFFCURVE",
"304 433 OFFCURVE",
"305 437 CURVE SMOOTH",
"310 458 LINE SMOOTH",
"311 463 OFFCURVE",
"305 464 OFFCURVE",
"303 465 CURVE SMOOTH",
"278 473 OFFCURVE",
"249 477 OFFCURVE",
"215 477 CURVE SMOOTH"
);
}
);
};
layerId = "707362F1-A677-446A-8636-E10BE3A7FAFF";
paths = (
{
closed = 1;
nodes = (
"171 477 OFFCURVE",
"114 465 OFFCURVE",
"75 447 CURVE SMOOTH",
"65 442 OFFCURVE",
"60 438 OFFCURVE",
"60 419 CURVE SMOOTH",
"60 4 LINE SMOOTH",
"60 1 OFFCURVE",
"61 0 OFFCURVE",
"64 0 CURVE SMOOTH",
"89 0 LINE SMOOTH",
"92 0 OFFCURVE",
"93 1 OFFCURVE",
"93 4 CURVE SMOOTH",
"93 399 LINE SMOOTH",
"93 418 OFFCURVE",
"104 421 OFFCURVE",
"111 425 CURVE SMOOTH",
"126 432 OFFCURVE",
"182 446 OFFCURVE",
"215 446 CURVE SMOOTH",
"245 446 OFFCURVE",
"274 442 OFFCURVE",
"298 434 CURVE SMOOTH",
"301 433 OFFCURVE",
"304 433 OFFCURVE",
"305 437 CURVE SMOOTH",
"310 458 LINE SMOOTH",
"311 463 OFFCURVE",
"305 464 OFFCURVE",
"303 465 CURVE SMOOTH",
"278 473 OFFCURVE",
"249 477 OFFCURVE",
"215 477 CURVE SMOOTH"
);
}
);
width = 340;
},
{
anchors = (
{
name = bottom;
position = "{111, 0}";
},
{
name = top;
position = "{185, 472}";
}
);
background = {
paths = (
{
closed = 1;
nodes = (
"161 476 OFFCURVE",
"98 466 OFFCURVE",
"58 447 CURVE SMOOTH",
"43 440 OFFCURVE",
"40 438 OFFCURVE",
"40 417 CURVE SMOOTH",
"40 20 LINE SMOOTH",
"40 2 OFFCURVE",
"47 0 OFFCURVE",
"54 0 CURVE SMOOTH",
"166 0 LINE SMOOTH",
"181 0 OFFCURVE",
"186 2 OFFCURVE",
"186 24 CURVE SMOOTH",
"186 330 LINE SMOOTH",
"186 348 OFFCURVE",
"192 350 OFFCURVE",
"198 354 CURVE SMOOTH",
"204 358 OFFCURVE",
"210 361 OFFCURVE",
"242 361 CURVE SMOOTH",
"254 361 OFFCURVE",
"287 358 OFFCURVE",
"310 351 CURVE SMOOTH",
"323 347 OFFCURVE",
"326 348 OFFCURVE",
"329 360 CURVE SMOOTH",
"349 431 LINE SMOOTH",
"351 440 OFFCURVE",
"352 445 OFFCURVE",
"337 452 CURVE SMOOTH",
"302 468 OFFCURVE",
"258 476 OFFCURVE",
"204 476 CURVE SMOOTH"
);
}
);
};
layerId = "D1BC8BBB-1669-4C46-BC21-42BF6808B2B9";
paths = (
{
closed = 1;
nodes = (
"161 476 OFFCURVE",
"98 466 OFFCURVE",
"58 447 CURVE SMOOTH",
"43 440 OFFCURVE",
"40 438 OFFCURVE",
"40 417 CURVE SMOOTH",
"40 20 LINE SMOOTH",
"40 2 OFFCURVE",
"47 0 OFFCURVE",
"54 0 CURVE SMOOTH",
"166 0 LINE SMOOTH",
"181 0 OFFCURVE",
"186 2 OFFCURVE",
"186 24 CURVE SMOOTH",
"186 330 LINE SMOOTH",
"186 348 OFFCURVE",
"192 350 OFFCURVE",
"198 354 CURVE SMOOTH",
"204 358 OFFCURVE",
"210 361 OFFCURVE",
"242 361 CURVE SMOOTH",
"254 361 OFFCURVE",
"287 358 OFFCURVE",
"310 351 CURVE SMOOTH",
"323 347 OFFCURVE",
"326 348 OFFCURVE",
"329 360 CURVE SMOOTH",
"349 431 LINE SMOOTH",
"351 440 OFFCURVE",
"352 445 OFFCURVE",
"337 452 CURVE SMOOTH",
"302 468 OFFCURVE",
"258 476 OFFCURVE",
"204 476 CURVE SMOOTH"
);
}
);
width = 370;
}
);
leftKerningGroup = b;
note = r;
unicode = 0072;
},
{
glyphname = s;
lastChange = "2021-04-12 09:43:03 +0000";
layers = (
{
anchors = (
{
name = bottom;
position = "{189, -5}";
},
{
name = top;
position = "{205, 472}";
}
);
background = {
paths = (
{
closed = 1;
nodes = (
"50 35 LINE SMOOTH",
"50 33 OFFCURVE",
"50 31 OFFCURVE",
"51 29 CURVE",
"91 6 OFFCURVE",
"159 -5 OFFCURVE",
"193 -5 CURVE SMOOTH",
"268 -5 OFFCURVE",
"359 31 OFFCURVE",
"359 142 CURVE SMOOTH",
"359 249 OFFCURVE",
"283 255 OFFCURVE",
"211 261 CURVE SMOOTH",
"147 267 OFFCURVE",
"85 273 OFFCURVE",
"85 352 CURVE SMOOTH",
"85 401 OFFCURVE",
"135 447 OFFCURVE",
"228 447 CURVE SMOOTH",
"258 447 OFFCURVE",
"315 432 OFFCURVE",
"337 415 CURVE",
"339 414 OFFCURVE",
"343 413 OFFCURVE",
"344 415 CURVE",
"350 437 LINE",
"350 439 OFFCURVE",
"350 441 OFFCURVE",
"349 442 CURVE SMOOTH",
"321 465 OFFCURVE",
"262 477 OFFCURVE",
"228 477 CURVE SMOOTH",
"128 477 OFFCURVE",
"52 430 OFFCURVE",
"52 352 CURVE SMOOTH",
"52 246 OFFCURVE",
"124 237 OFFCURVE",
"194 231 CURVE SMOOTH",
"261 225 OFFCURVE",
"326 222 OFFCURVE",
"326 142 CURVE SMOOTH",
"326 59 OFFCURVE",
"261 25 OFFCURVE",
"193 25 CURVE SMOOTH",
"159 25 OFFCURVE",
"90 39 OFFCURVE",
"59 60 CURVE",
"57 63 OFFCURVE",
"54 63 OFFCURVE",
"54 60 CURVE SMOOTH"
);
}
);
};
layerId = "707362F1-A677-446A-8636-E10BE3A7FAFF";
paths = (
{
closed = 1;
nodes = (
"50 35 LINE SMOOTH",
"50 33 OFFCURVE",
"50 31 OFFCURVE",
"51 29 CURVE",
"91 6 OFFCURVE",
"159 -5 OFFCURVE",
"193 -5 CURVE SMOOTH",
"268 -5 OFFCURVE",
"359 31 OFFCURVE",
"359 142 CURVE SMOOTH",
"359 249 OFFCURVE",
"283 255 OFFCURVE",
"211 261 CURVE SMOOTH",
"147 267 OFFCURVE",
"85 273 OFFCURVE",
"85 352 CURVE SMOOTH",
"85 401 OFFCURVE",
"135 447 OFFCURVE",
"228 447 CURVE SMOOTH",
"258 447 OFFCURVE",
"315 432 OFFCURVE",
"337 415 CURVE",
"339 414 OFFCURVE",
"343 413 OFFCURVE",
"344 415 CURVE",
"350 437 LINE",
"350 439 OFFCURVE",
"350 441 OFFCURVE",
"349 442 CURVE SMOOTH",
"321 465 OFFCURVE",
"262 477 OFFCURVE",
"228 477 CURVE SMOOTH",
"128 477 OFFCURVE",
"52 430 OFFCURVE",
"52 352 CURVE SMOOTH",
"52 246 OFFCURVE",
"124 237 OFFCURVE",
"194 231 CURVE SMOOTH",
"261 225 OFFCURVE",
"326 222 OFFCURVE",
"326 142 CURVE SMOOTH",
"326 59 OFFCURVE",
"261 25 OFFCURVE",
"193 25 CURVE SMOOTH",
"159 25 OFFCURVE",
"90 39 OFFCURVE",
"59 60 CURVE",
"57 63 OFFCURVE",
"54 63 OFFCURVE",
"54 60 CURVE SMOOTH"
);
}
);
width = 409;
},
{
anchors = (
{
name = bottom;
position = "{208, 0}";
},
{
name = top;
position = "{208, 472}";
}
);
background = {
paths = (
{
closed = 1;
nodes = (
"25 54 LINE SMOOTH",
"23 46 OFFCURVE",
"28 41 OFFCURVE",
"34 37 CURVE SMOOTH",
"77 6 OFFCURVE",
"157 -5 OFFCURVE",
"196 -5 CURVE SMOOTH",
"283 -5 OFFCURVE",
"390 33 OFFCURVE",
"390 155 CURVE SMOOTH",
"390 267 OFFCURVE",
"282 298 OFFCURVE",
"233 302 CURVE SMOOTH",
"194 304 OFFCURVE",
"171 317 OFFCURVE",
"171 340 CURVE SMOOTH",
"171 358 OFFCURVE",
"193 369 OFFCURVE",
"229 369 CURVE SMOOTH",
"259 369 OFFCURVE",
"303 350 OFFCURVE",
"334 334 CURVE",
"344 330 OFFCURVE",
"353 333 OFFCURVE",
"355 341 CURVE",
"382 414 LINE",
"386 425 OFFCURVE",
"387 427 OFFCURVE",
"373 437 CURVE SMOOTH",
"334 466 OFFCURVE",
"264 477 OFFCURVE",
"230 477 CURVE SMOOTH",
"119 477 OFFCURVE",
"30 427 OFFCURVE",
"30 336 CURVE SMOOTH",
"30 217 OFFCURVE",
"119 194 OFFCURVE",
"171 185 CURVE SMOOTH",
"253 171 OFFCURVE",
"257 156 OFFCURVE",
"256 140 CURVE SMOOTH",
"254 114 OFFCURVE",
"229 105 OFFCURVE",
"194 105 CURVE SMOOTH",
"156 105 OFFCURVE",
"100 113 OFFCURVE",
"66 132 CURVE",
"57 138 OFFCURVE",
"45 144 OFFCURVE",
"41 127 CURVE SMOOTH"
);
}
);
};
layerId = "D1BC8BBB-1669-4C46-BC21-42BF6808B2B9";
paths = (
{
closed = 1;
nodes = (
"25 54 LINE SMOOTH",
"23 46 OFFCURVE",
"28 41 OFFCURVE",
"34 37 CURVE SMOOTH",
"77 6 OFFCURVE",
"157 -5 OFFCURVE",
"196 -5 CURVE SMOOTH",
"283 -5 OFFCURVE",
"390 33 OFFCURVE",
"390 155 CURVE SMOOTH",
"390 267 OFFCURVE",
"282 298 OFFCURVE",
"233 302 CURVE SMOOTH",
"194 304 OFFCURVE",
"171 317 OFFCURVE",
"171 340 CURVE SMOOTH",
"171 358 OFFCURVE",
"193 369 OFFCURVE",
"229 369 CURVE SMOOTH",
"259 369 OFFCURVE",
"303 350 OFFCURVE",
"334 334 CURVE",
"344 330 OFFCURVE",
"353 333 OFFCURVE",
"355 341 CURVE",
"382 414 LINE",
"386 425 OFFCURVE",
"387 427 OFFCURVE",
"373 437 CURVE SMOOTH",
"334 466 OFFCURVE",
"264 477 OFFCURVE",
"230 477 CURVE SMOOTH",
"119 477 OFFCURVE",
"30 427 OFFCURVE",
"30 336 CURVE SMOOTH",
"30 217 OFFCURVE",
"119 194 OFFCURVE",
"171 185 CURVE SMOOTH",
"253 171 OFFCURVE",
"257 156 OFFCURVE",
"256 140 CURVE SMOOTH",
"254 114 OFFCURVE",
"229 105 OFFCURVE",
"194 105 CURVE SMOOTH",
"156 105 OFFCURVE",
"100 113 OFFCURVE",
"66 132 CURVE",
"57 138 OFFCURVE",
"45 144 OFFCURVE",
"41 127 CURVE SMOOTH"
);
}
);
width = 415;
}
);
note = s;
unicode = 0073;
},
{
glyphname = t;
lastChange = "2021-04-12 10:32:40 +0000";
layers = (
{
anchors = (
{
name = bottom;
position = "{171, 0}";
},
{
name = center;
position = "{171, 236}";
},
{
name = top;
position = "{171, 472}";
},
{
name = topright;
position = "{296, 572}";
}
);
background = {
paths = (
{
closed = 1;
nodes = (
"225 0 OFFCURVE",
"273 5 OFFCURVE",
"293 14 CURVE SMOOTH",
"300 18 OFFCURVE",
"302 19 OFFCURVE",
"300 25 CURVE SMOOTH",
"294 40 LINE SMOOTH",
"293 44 OFFCURVE",
"291 44 OFFCURVE",
"286 42 CURVE SMOOTH",
"263 34 OFFCURVE",
"242 29 OFFCURVE",
"221 29 CURVE SMOOTH",
"160 29 OFFCURVE",
"137 53 OFFCURVE",
"128 100 CURVE SMOOTH",
"115 160 OFFCURVE",
"118 224 OFFCURVE",
"118 283 CURVE SMOOTH",
"118 333 OFFCURVE",
"120 383 OFFCURVE",
"122 433 CURVE SMOOTH",
"122 439 OFFCURVE",
"127 442 OFFCURVE",
"130 442 CURVE SMOOTH",
"269 442 LINE SMOOTH",
"271 442 OFFCURVE",
"273 446 OFFCURVE",
"273 446 CURVE",
"273 468 LINE SMOOTH",
"273 470 OFFCURVE",
"271 472 OFFCURVE",
"269 472 CURVE SMOOTH",
"130 472 LINE SMOOTH",
"124 472 OFFCURVE",
"122 476 OFFCURVE",
"123 481 CURVE",
"127 572 LINE SMOOTH",
"127 575 OFFCURVE",
"125 576 OFFCURVE",
"123 576 CURVE SMOOTH",
"97 576 LINE SMOOTH",
"95 576 OFFCURVE",
"94 575 OFFCURVE",
"94 572 CURVE SMOOTH",
"89 480 LINE SMOOTH",
"88 473 OFFCURVE",
"86 472 OFFCURVE",
"81 472 CURVE SMOOTH",
"24 472 LINE SMOOTH",
"22 472 OFFCURVE",
"20 468 OFFCURVE",
"20 468 CURVE",
"20 446 LINE",
"20 446 OFFCURVE",
"22 442 OFFCURVE",
"24 442 CURVE SMOOTH",
"81 442 LINE SMOOTH",
"86 442 OFFCURVE",
"89 438 OFFCURVE",
"89 433 CURVE SMOOTH",
"86 385 OFFCURVE",
"85 336 OFFCURVE",
"85 287 CURVE SMOOTH",
"85 218 OFFCURVE",
"82 153 OFFCURVE",
"94 96 CURVE SMOOTH",
"105 34 OFFCURVE",
"138 0 OFFCURVE",
"216 0 CURVE SMOOTH"
);
}
);
};
layerId = "707362F1-A677-446A-8636-E10BE3A7FAFF";
paths = (
{
closed = 1;
nodes = (
"225 0 OFFCURVE",
"273 5 OFFCURVE",
"293 14 CURVE SMOOTH",
"300 18 OFFCURVE",
"302 19 OFFCURVE",
"300 25 CURVE SMOOTH",
"294 40 LINE SMOOTH",
"292 44 OFFCURVE",
"291 44 OFFCURVE",
"286 42 CURVE SMOOTH",
"263 34 OFFCURVE",
"242 29 OFFCURVE",
"221 29 CURVE SMOOTH",
"160 29 OFFCURVE",
"137 53 OFFCURVE",
"128 100 CURVE SMOOTH",
"115 160 OFFCURVE",
"118 224 OFFCURVE",
"118 283 CURVE SMOOTH",
"118 333 OFFCURVE",
"120 383 OFFCURVE",
"122 433 CURVE SMOOTH",
"122 439 OFFCURVE",
"127 442 OFFCURVE",
"130 442 CURVE SMOOTH",
"269 442 LINE SMOOTH",
"271 442 OFFCURVE",
"273 446 OFFCURVE",
"273 446 CURVE",
"273 468 LINE SMOOTH",
"273 470 OFFCURVE",
"271 472 OFFCURVE",
"269 472 CURVE SMOOTH",
"130 472 LINE SMOOTH",
"124 472 OFFCURVE",
"122 476 OFFCURVE",
"123 481 CURVE",
"127 572 LINE SMOOTH",
"127 575 OFFCURVE",
"125 576 OFFCURVE",
"123 576 CURVE SMOOTH",
"97 576 LINE SMOOTH",
"95 576 OFFCURVE",
"94 575 OFFCURVE",
"94 572 CURVE SMOOTH",
"89 480 LINE SMOOTH",
"89 473 OFFCURVE",
"86 472 OFFCURVE",
"81 472 CURVE SMOOTH",
"24 472 LINE SMOOTH",
"22 472 OFFCURVE",
"20 468 OFFCURVE",
"20 468 CURVE",
"20 446 LINE",
"20 446 OFFCURVE",
"22 442 OFFCURVE",
"24 442 CURVE SMOOTH",
"81 442 LINE SMOOTH",
"86 442 OFFCURVE",
"89 438 OFFCURVE",
"89 433 CURVE SMOOTH",
"86 385 OFFCURVE",
"85 336 OFFCURVE",
"85 287 CURVE SMOOTH",
"85 218 OFFCURVE",
"82 153 OFFCURVE",
"94 96 CURVE SMOOTH",
"105 34 OFFCURVE",
"138 0 OFFCURVE",
"216 0 CURVE SMOOTH"
);
}
);
width = 341;
},
{
anchors = (
{
name = bottom;
position = "{187, 0}";
},
{
name = center;
position = "{187, 236}";
},
{
name = top;
position = "{187, 472}";
},
{
name = topright;
position = "{353, 573}";
}
);
background = {
paths = (
{
closed = 1;
nodes = (
"265 0 OFFCURVE",
"292 5 OFFCURVE",
"317 14 CURVE SMOOTH",
"343 24 OFFCURVE",
"352 31 OFFCURVE",
"347 42 CURVE",
"327 111 LINE",
"321 125 OFFCURVE",
"320 130 OFFCURVE",
"303 120 CURVE",
"295 117 OFFCURVE",
"280 111 OFFCURVE",
"265 111 CURVE SMOOTH",
"249 111 OFFCURVE",
"235 118 OFFCURVE",
"229 140 CURVE SMOOTH",
"220 180 OFFCURVE",
"218 226 OFFCURVE",
"218 270 CURVE SMOOTH",
"219 304 OFFCURVE",
"220 337 OFFCURVE",
"221 368 CURVE SMOOTH",
"221 379 OFFCURVE",
"223 383 OFFCURVE",
"233 383 CURVE SMOOTH",
"305 383 LINE SMOOTH",
"320 383 OFFCURVE",
"323 385 OFFCURVE",
"323 400 CURVE SMOOTH",
"323 453 LINE SMOOTH",
"323 471 OFFCURVE",
"323 472 OFFCURVE",
"307 472 CURVE SMOOTH",
"234 472 LINE SMOOTH",
"226 472 OFFCURVE",
"225 473 OFFCURVE",
"226 490 CURVE SMOOTH",
"231 562 LINE SMOOTH",
"231 570 OFFCURVE",
"223 576 OFFCURVE",
"215 576 CURVE SMOOTH",
"101 576 LINE SMOOTH",
"92 576 OFFCURVE",
"87 570 OFFCURVE",
"87 562 CURVE SMOOTH",
"83 491 LINE SMOOTH",
"82 478 OFFCURVE",
"82 472 OFFCURVE",
"72 472 CURVE SMOOTH",
"33 472 LINE SMOOTH",
"17 472 OFFCURVE",
"15 473 OFFCURVE",
"15 455 CURVE SMOOTH",
"15 399 LINE SMOOTH",
"15 383 OFFCURVE",
"18 383 OFFCURVE",
"30 383 CURVE SMOOTH",
"68 383 LINE SMOOTH",
"74 383 OFFCURVE",
"77 381 OFFCURVE",
"77 373 CURVE SMOOTH",
"75 340 OFFCURVE",
"75 319 OFFCURVE",
"75 282 CURVE SMOOTH",
"75 225 OFFCURVE",
"74 166 OFFCURVE",
"85 110 CURVE SMOOTH",
"100 40 OFFCURVE",
"142 0 OFFCURVE",
"235 0 CURVE SMOOTH"
);
}
);
};
layerId = "D1BC8BBB-1669-4C46-BC21-42BF6808B2B9";
paths = (
{
closed = 1;
nodes = (
"265 0 OFFCURVE",
"292 5 OFFCURVE",
"317 14 CURVE SMOOTH",
"343 24 OFFCURVE",
"352 31 OFFCURVE",
"347 42 CURVE",
"327 111 LINE",
"321 125 OFFCURVE",
"320 130 OFFCURVE",
"303 120 CURVE",
"295 117 OFFCURVE",
"280 111 OFFCURVE",
"265 111 CURVE SMOOTH",
"249 111 OFFCURVE",
"235 118 OFFCURVE",
"229 140 CURVE SMOOTH",
"220 180 OFFCURVE",
"218 226 OFFCURVE",
"218 270 CURVE SMOOTH",
"219 304 OFFCURVE",
"220 337 OFFCURVE",
"221 368 CURVE SMOOTH",
"221 379 OFFCURVE",
"223 383 OFFCURVE",
"233 383 CURVE SMOOTH",
"305 383 LINE SMOOTH",
"320 383 OFFCURVE",
"323 385 OFFCURVE",
"323 400 CURVE SMOOTH",
"323 453 LINE SMOOTH",
"323 471 OFFCURVE",
"323 472 OFFCURVE",
"307 472 CURVE SMOOTH",
"234 472 LINE SMOOTH",
"226 472 OFFCURVE",
"225 473 OFFCURVE",
"226 490 CURVE SMOOTH",
"231 562 LINE SMOOTH",
"232 570 OFFCURVE",
"223 576 OFFCURVE",
"215 576 CURVE SMOOTH",
"101 576 LINE SMOOTH",
"92 576 OFFCURVE",
"87 570 OFFCURVE",
"87 562 CURVE SMOOTH",
"83 491 LINE SMOOTH",
"82 478 OFFCURVE",
"82 472 OFFCURVE",
"72 472 CURVE SMOOTH",
"33 472 LINE SMOOTH",
"17 472 OFFCURVE",
"15 473 OFFCURVE",
"15 455 CURVE SMOOTH",
"15 399 LINE SMOOTH",
"15 383 OFFCURVE",
"18 383 OFFCURVE",
"30 383 CURVE SMOOTH",
"68 383 LINE SMOOTH",
"74 383 OFFCURVE",
"77 381 OFFCURVE",
"77 373 CURVE SMOOTH",
"75 340 OFFCURVE",
"75 319 OFFCURVE",
"75 282 CURVE SMOOTH",
"75 225 OFFCURVE",
"74 166 OFFCURVE",
"85 110 CURVE SMOOTH",
"100 40 OFFCURVE",
"142 0 OFFCURVE",
"235 0 CURVE SMOOTH"
);
}
);
width = 373;
}
);
note = t;
unicode = 0074;
},
{
glyphname = u;
lastChange = "2021-04-12 10:04:22 +0000";
layers = (
{
anchors = (
{
name = bottom;
position = "{233, 0}";
},
{
name = ogonek;
position = "{255, 10}";
},
{
name = top;
position = "{233, 472}";
},
{
name = topright;
position = "{355, 472}";
}
);
background = {
paths = (
{
closed = 1;
nodes = (
"292 -4 OFFCURVE",
"363 13 OFFCURVE",
"377 19 CURVE SMOOTH",
"399 27 OFFCURVE",
"405 32 OFFCURVE",
"405 48 CURVE SMOOTH",
"405 468 LINE SMOOTH",
"405 471 OFFCURVE",
"403 472 OFFCURVE",
"401 472 CURVE SMOOTH",
"375 472 LINE SMOOTH",
"373 472 OFFCURVE",
"372 471 OFFCURVE",
"372 468 CURVE SMOOTH",
"372 71 LINE SMOOTH",
"372 38 OFFCURVE",
"268 28 OFFCURVE",
"241 28 CURVE SMOOTH",
"135 28 OFFCURVE",
"93 104 OFFCURVE",
"93 215 CURVE SMOOTH",
"93 320 OFFCURVE",
"100 444 OFFCURVE",
"101 465 CURVE SMOOTH",
"102 471 OFFCURVE",
"101 472 OFFCURVE",
"95 472 CURVE SMOOTH",
"78 472 LINE SMOOTH",
"72 472 OFFCURVE",
"69 471 OFFCURVE",
"68 467 CURVE",
"67 431 OFFCURVE",
"60 322 OFFCURVE",
"60 219 CURVE SMOOTH",
"60 94 OFFCURVE",
"97 -4 OFFCURVE",
"243 -4 CURVE SMOOTH"
);
}
);
};
layerId = "707362F1-A677-446A-8636-E10BE3A7FAFF";
paths = (
{
closed = 1;
nodes = (
"292 -4 OFFCURVE",
"363 13 OFFCURVE",
"377 19 CURVE SMOOTH",
"399 27 OFFCURVE",
"405 32 OFFCURVE",
"405 48 CURVE SMOOTH",
"405 468 LINE SMOOTH",
"405 471 OFFCURVE",
"403 472 OFFCURVE",
"401 472 CURVE SMOOTH",
"375 472 LINE SMOOTH",
"373 472 OFFCURVE",
"372 471 OFFCURVE",
"372 468 CURVE SMOOTH",
"372 71 LINE SMOOTH",
"372 38 OFFCURVE",
"268 28 OFFCURVE",
"241 28 CURVE SMOOTH",
"135 28 OFFCURVE",
"93 104 OFFCURVE",
"93 215 CURVE SMOOTH",
"93 320 OFFCURVE",
"100 444 OFFCURVE",
"101 465 CURVE SMOOTH",
"102 471 OFFCURVE",
"101 472 OFFCURVE",
"95 472 CURVE SMOOTH",
"78 472 LINE SMOOTH",
"72 472 OFFCURVE",
"69 471 OFFCURVE",
"68 467 CURVE",
"67 431 OFFCURVE",
"60 322 OFFCURVE",
"60 219 CURVE SMOOTH",
"60 94 OFFCURVE",
"97 -4 OFFCURVE",
"243 -4 CURVE SMOOTH"
);
}
);
width = 465;
},
{
anchors = (
{
name = bottom;
position = "{238, 0}";
},
{
name = ogonek;
position = "{278, 20}";
},
{
name = top;
position = "{238, 472}";
},
{
name = topright;
position = "{306, 472}";
}
);
background = {
paths = (
{
closed = 1;
nodes = (
"299 -4 OFFCURVE",
"374 12 OFFCURVE",
"398 20 CURVE SMOOTH",
"429 31 OFFCURVE",
"436 34 OFFCURVE",
"436 50 CURVE SMOOTH",
"436 457 LINE SMOOTH",
"436 471 OFFCURVE",
"425 472 OFFCURVE",
"420 472 CURVE SMOOTH",
"300 472 LINE SMOOTH",
"291 472 OFFCURVE",
"291 460 OFFCURVE",
"291 452 CURVE SMOOTH",
"291 125 LINE SMOOTH",
"291 109 OFFCURVE",
"265 109 OFFCURVE",
"254 109 CURVE SMOOTH",
"209 109 OFFCURVE",
"192 139 OFFCURVE",
"192 218 CURVE SMOOTH",
"192 298 OFFCURVE",
"200 440 OFFCURVE",
"201 451 CURVE SMOOTH",
"205 478 OFFCURVE",
"195 472 OFFCURVE",
"175 472 CURVE SMOOTH",
"81 472 LINE SMOOTH",
"60 472 OFFCURVE",
"57 472 OFFCURVE",
"54 444 CURVE SMOOTH",
"45 376 OFFCURVE",
"40 291 OFFCURVE",
"40 222 CURVE SMOOTH",
"40 100 OFFCURVE",
"81 -4 OFFCURVE",
"250 -4 CURVE SMOOTH"
);
}
);
};
layerId = "D1BC8BBB-1669-4C46-BC21-42BF6808B2B9";
paths = (
{
closed = 1;
nodes = (
"299 -4 OFFCURVE",
"374 12 OFFCURVE",
"398 20 CURVE SMOOTH",
"429 31 OFFCURVE",
"436 34 OFFCURVE",
"436 50 CURVE SMOOTH",
"436 457 LINE SMOOTH",
"436 471 OFFCURVE",
"425 472 OFFCURVE",
"420 472 CURVE SMOOTH",
"300 472 LINE SMOOTH",
"291 472 OFFCURVE",
"291 460 OFFCURVE",
"291 452 CURVE SMOOTH",
"291 125 LINE SMOOTH",
"291 109 OFFCURVE",
"265 109 OFFCURVE",
"254 109 CURVE SMOOTH",
"209 109 OFFCURVE",
"192 139 OFFCURVE",
"192 218 CURVE SMOOTH",
"192 298 OFFCURVE",
"200 440 OFFCURVE",
"201 451 CURVE SMOOTH",
"205 478 OFFCURVE",
"195 472 OFFCURVE",
"175 472 CURVE SMOOTH",
"81 472 LINE SMOOTH",
"60 472 OFFCURVE",
"57 472 OFFCURVE",
"54 444 CURVE SMOOTH",
"45 376 OFFCURVE",
"40 291 OFFCURVE",
"40 222 CURVE SMOOTH",
"40 100 OFFCURVE",
"81 -4 OFFCURVE",
"250 -4 CURVE SMOOTH"
);
}
);
width = 476;
}
);
note = u;
unicode = 0075;
},
{
glyphname = v;
lastChange = "2021-04-15 03:45:55 +0000";
layers = (
{
anchors = (
{
name = bottom;
position = "{194, 0}";
},
{
name = top;
position = "{194, 472}";
}
);
background = {
paths = (
{
closed = 1;
nodes = (
"182 0 OFFCURVE",
"206 0 OFFCURVE",
"212 0 CURVE SMOOTH",
"215 0 OFFCURVE",
"218 1 OFFCURVE",
"220 6 CURVE SMOOTH",
"251 67 OFFCURVE",
"278 137 OFFCURVE",
"300 204 CURVE SMOOTH",
"333 306 OFFCURVE",
"355 403 OFFCURVE",
"363 465 CURVE SMOOTH",
"364 471 OFFCURVE",
"362 472 OFFCURVE",
"358 472 CURVE SMOOTH",
"335 472 LINE SMOOTH",
"331 472 OFFCURVE",
"327 471 OFFCURVE",
"326 465 CURVE SMOOTH",
"319 410 OFFCURVE",
"297 317 OFFCURVE",
"272 230 CURVE SMOOTH",
"248 150 OFFCURVE",
"221 76 OFFCURVE",
"200 44 CURVE SMOOTH",
"198 40 OFFCURVE",
"193 39 OFFCURVE",
"191 44 CURVE",
"168 80 OFFCURVE",
"136 168 OFFCURVE",
"110 257 CURVE SMOOTH",
"87 336 OFFCURVE",
"68 416 OFFCURVE",
"62 465 CURVE SMOOTH",
"61 471 OFFCURVE",
"57 472 OFFCURVE",
"54 472 CURVE SMOOTH",
"30 472 LINE SMOOTH",
"27 472 OFFCURVE",
"24 471 OFFCURVE",
"25 465 CURVE SMOOTH",
"34 400 OFFCURVE",
"58 296 OFFCURVE",
"93 190 CURVE SMOOTH",
"114 127 OFFCURVE",
"139 63 OFFCURVE",
"168 6 CURVE SMOOTH",
"171 0 OFFCURVE",
"173 0 OFFCURVE",
"178 0 CURVE SMOOTH"
);
}
);
};
layerId = "707362F1-A677-446A-8636-E10BE3A7FAFF";
paths = (
{
closed = 1;
nodes = (
"212 0 LINE SMOOTH",
"215 0 OFFCURVE",
"218 1 OFFCURVE",
"220 6 CURVE SMOOTH",
"251 67 OFFCURVE",
"278 137 OFFCURVE",
"300 204 CURVE SMOOTH",
"333 306 OFFCURVE",
"355 403 OFFCURVE",
"363 465 CURVE SMOOTH",
"364 471 OFFCURVE",
"362 472 OFFCURVE",
"358 472 CURVE SMOOTH",
"335 472 LINE SMOOTH",
"331 472 OFFCURVE",
"327 471 OFFCURVE",
"326 465 CURVE SMOOTH",
"319 410 OFFCURVE",
"297 317 OFFCURVE",
"272 230 CURVE SMOOTH",
"248 150 OFFCURVE",
"221 76 OFFCURVE",
"200 44 CURVE SMOOTH",
"198 40 OFFCURVE",
"193 39 OFFCURVE",
"191 44 CURVE",
"168 80 OFFCURVE",
"136 168 OFFCURVE",
"110 257 CURVE SMOOTH",
"87 336 OFFCURVE",
"68 416 OFFCURVE",
"62 465 CURVE SMOOTH",
"61 471 OFFCURVE",
"57 472 OFFCURVE",
"54 472 CURVE SMOOTH",
"30 472 LINE SMOOTH",
"27 472 OFFCURVE",
"24 471 OFFCURVE",
"25 465 CURVE SMOOTH",
"34 400 OFFCURVE",
"58 296 OFFCURVE",
"93 190 CURVE SMOOTH",
"114 127 OFFCURVE",
"139 63 OFFCURVE",
"168 6 CURVE SMOOTH",
"171 0 OFFCURVE",
"173 0 OFFCURVE",
"178 0 CURVE SMOOTH"
);
}
);
width = 388;
},
{
anchors = (
{
name = bottom;
position = "{220, 0}";
},
{
name = top;
position = "{220, 472}";
}
);
background = {
paths = (
{
closed = 1;
nodes = (
"188 0 OFFCURVE",
"256 -1 OFFCURVE",
"263 -1 CURVE SMOOTH",
"267 -1 OFFCURVE",
"269 0 OFFCURVE",
"272 5 CURVE SMOOTH",
"309 70 OFFCURVE",
"334 129 OFFCURVE",
"354 186 CURVE SMOOTH",
"388 281 OFFCURVE",
"411 373 OFFCURVE",
"424 464 CURVE SMOOTH",
"425 470 OFFCURVE",
"423 471 OFFCURVE",
"419 471 CURVE SMOOTH",
"287 471 LINE SMOOTH",
"285 471 OFFCURVE",
"283 470 OFFCURVE",
"282 466 CURVE SMOOTH",
"279 429 OFFCURVE",
"269 366 OFFCURVE",
"258 308 CURVE SMOOTH",
"247 254 OFFCURVE",
"242 228 OFFCURVE",
"235 206 CURVE SMOOTH",
"231 195 OFFCURVE",
"222 188 OFFCURVE",
"218 209 CURVE",
"209 241 OFFCURVE",
"201 272 OFFCURVE",
"189 332 CURVE SMOOTH",
"178 385 OFFCURVE",
"171 420 OFFCURVE",
"168 457 CURVE SMOOTH",
"167 464 OFFCURVE",
"161 472 OFFCURVE",
"150 472 CURVE SMOOTH",
"27 472 LINE SMOOTH",
"12 472 OFFCURVE",
"14 454 OFFCURVE",
"18 432 CURVE SMOOTH",
"29 370 OFFCURVE",
"47 296 OFFCURVE",
"87 190 CURVE SMOOTH",
"111 127 OFFCURVE",
"135 61 OFFCURVE",
"172 6 CURVE SMOOTH",
"176 0 OFFCURVE",
"178 0 OFFCURVE",
"184 0 CURVE SMOOTH"
);
}
);
};
layerId = "D1BC8BBB-1669-4C46-BC21-42BF6808B2B9";
paths = (
{
closed = 1;
nodes = (
"263 -1 LINE SMOOTH",
"267 -1 OFFCURVE",
"269 0 OFFCURVE",
"272 5 CURVE SMOOTH",
"309 70 OFFCURVE",
"334 129 OFFCURVE",
"354 186 CURVE SMOOTH",
"388 281 OFFCURVE",
"411 373 OFFCURVE",
"424 464 CURVE SMOOTH",
"425 470 OFFCURVE",
"423 471 OFFCURVE",
"419 471 CURVE SMOOTH",
"287 471 LINE SMOOTH",
"285 471 OFFCURVE",
"283 470 OFFCURVE",
"282 466 CURVE",
"279 429 OFFCURVE",
"269 366 OFFCURVE",
"258 308 CURVE SMOOTH",
"247 254 OFFCURVE",
"242 228 OFFCURVE",
"235 206 CURVE SMOOTH",
"231 195 OFFCURVE",
"223 192 OFFCURVE",
"219 206 CURVE SMOOTH",
"209 242 OFFCURVE",
"201 272 OFFCURVE",
"189 332 CURVE SMOOTH",
"178 385 OFFCURVE",
"171 420 OFFCURVE",
"168 457 CURVE SMOOTH",
"167 464 OFFCURVE",
"161 472 OFFCURVE",
"150 472 CURVE SMOOTH",
"27 472 LINE SMOOTH",
"15 472 OFFCURVE",
"13 462 OFFCURVE",
"17 439 CURVE SMOOTH",
"29 370 OFFCURVE",
"47 296 OFFCURVE",
"87 190 CURVE SMOOTH",
"111 127 OFFCURVE",
"135 61 OFFCURVE",
"172 6 CURVE SMOOTH",
"176 0 OFFCURVE",
"178 0 OFFCURVE",
"184 0 CURVE SMOOTH"
);
}
);
width = 439;
}
);
note = v;
unicode = 0076;
},
{
glyphname = w;
lastChange = "2021-04-12 08:36:05 +0000";
layers = (
{
anchors = (
{
name = bottom;
position = "{305, 0}";
},
{
name = top;
position = "{305, 472}";
}
);
background = {
paths = (
{
closed = 1;
nodes = (
"171 0 OFFCURVE",
"173 0 OFFCURVE",
"178 0 CURVE SMOOTH",
"212 0 LINE SMOOTH",
"215 0 OFFCURVE",
"218 1 OFFCURVE",
"220 6 CURVE SMOOTH",
"229 25 OFFCURVE",
"239 45 OFFCURVE",
"248 65 CURVE SMOOTH",
"267 110 OFFCURVE",
"285 157 OFFCURVE",
"299 204 CURVE",
"303 212 OFFCURVE",
"308 214 OFFCURVE",
"311 204 CURVE SMOOTH",
"325 154 OFFCURVE",
"358 67 OFFCURVE",
"390 6 CURVE",
"392 0 OFFCURVE",
"395 0 OFFCURVE",
"399 0 CURVE SMOOTH",
"434 0 LINE SMOOTH",
"437 0 OFFCURVE",
"440 1 OFFCURVE",
"442 6 CURVE SMOOTH",
"519 158 OFFCURVE",
"571 362 OFFCURVE",
"585 465 CURVE SMOOTH",
"586 471 OFFCURVE",
"584 472 OFFCURVE",
"580 472 CURVE SMOOTH",
"556 472 LINE SMOOTH",
"553 472 OFFCURVE",
"549 471 OFFCURVE",
"548 465 CURVE SMOOTH",
"535 360 OFFCURVE",
"466 111 OFFCURVE",
"422 44 CURVE SMOOTH",
"419 40 OFFCURVE",
"415 39 OFFCURVE",
"412 44 CURVE SMOOTH",
"389 81 OFFCURVE",
"317 270 OFFCURVE",
"317 317 CURVE SMOOTH",
"317 395 OFFCURVE",
"316 439 OFFCURVE",
"316 465 CURVE SMOOTH",
"316 471 OFFCURVE",
"311 472 OFFCURVE",
"308 472 CURVE SMOOTH",
"286 472 LINE SMOOTH",
"282 472 OFFCURVE",
"281 471 OFFCURVE",
"281 465 CURVE SMOOTH",
"281 439 OFFCURVE",
"282 342 OFFCURVE",
"282 318 CURVE SMOOTH",
"282 269 OFFCURVE",
"242 107 OFFCURVE",
"200 44 CURVE SMOOTH",
"198 40 OFFCURVE",
"193 39 OFFCURVE",
"191 44 CURVE",
"148 111 OFFCURVE",
"75 360 OFFCURVE",
"62 465 CURVE SMOOTH",
"61 471 OFFCURVE",
"57 472 OFFCURVE",
"54 472 CURVE SMOOTH",
"30 472 LINE SMOOTH",
"27 472 OFFCURVE",
"24 471 OFFCURVE",
"25 465 CURVE SMOOTH",
"40 362 OFFCURVE",
"91 158 OFFCURVE",
"168 6 CURVE SMOOTH"
);
}
);
};
layerId = "707362F1-A677-446A-8636-E10BE3A7FAFF";
paths = (
{
closed = 1;
nodes = (
"171 0 OFFCURVE",
"173 0 OFFCURVE",
"178 0 CURVE SMOOTH",
"212 0 LINE SMOOTH",
"215 0 OFFCURVE",
"218 1 OFFCURVE",
"220 6 CURVE SMOOTH",
"229 25 OFFCURVE",
"239 45 OFFCURVE",
"248 65 CURVE SMOOTH",
"267 110 OFFCURVE",
"285 157 OFFCURVE",
"299 204 CURVE",
"303 212 OFFCURVE",
"308 214 OFFCURVE",
"311 204 CURVE SMOOTH",
"325 154 OFFCURVE",
"358 67 OFFCURVE",
"390 6 CURVE",
"392 0 OFFCURVE",
"395 0 OFFCURVE",
"399 0 CURVE SMOOTH",
"434 0 LINE SMOOTH",
"437 0 OFFCURVE",
"440 1 OFFCURVE",
"442 6 CURVE SMOOTH",
"519 158 OFFCURVE",
"571 362 OFFCURVE",
"585 465 CURVE SMOOTH",
"586 471 OFFCURVE",
"584 472 OFFCURVE",
"580 472 CURVE SMOOTH",
"556 472 LINE SMOOTH",
"553 472 OFFCURVE",
"549 471 OFFCURVE",
"548 465 CURVE SMOOTH",
"535 360 OFFCURVE",
"466 111 OFFCURVE",
"422 44 CURVE SMOOTH",
"419 40 OFFCURVE",
"415 39 OFFCURVE",
"412 44 CURVE SMOOTH",
"389 81 OFFCURVE",
"317 270 OFFCURVE",
"317 317 CURVE SMOOTH",
"317 395 OFFCURVE",
"316 439 OFFCURVE",
"316 465 CURVE SMOOTH",
"316 471 OFFCURVE",
"311 472 OFFCURVE",
"308 472 CURVE SMOOTH",
"286 472 LINE SMOOTH",
"282 472 OFFCURVE",
"281 471 OFFCURVE",
"281 465 CURVE SMOOTH",
"281 439 OFFCURVE",
"282 342 OFFCURVE",
"282 318 CURVE SMOOTH",
"282 269 OFFCURVE",
"242 107 OFFCURVE",
"200 44 CURVE SMOOTH",
"198 40 OFFCURVE",
"193 39 OFFCURVE",
"191 44 CURVE",
"148 111 OFFCURVE",
"75 360 OFFCURVE",
"62 465 CURVE SMOOTH",
"61 471 OFFCURVE",
"57 472 OFFCURVE",
"54 472 CURVE SMOOTH",
"30 472 LINE SMOOTH",
"27 472 OFFCURVE",
"24 471 OFFCURVE",
"25 465 CURVE SMOOTH",
"40 362 OFFCURVE",
"91 158 OFFCURVE",
"168 6 CURVE SMOOTH"
);
}
);
width = 610;
},
{
anchors = (
{
name = bottom;
position = "{334, 0}";
},
{
name = top;
position = "{334, 472}";
}
);
background = {
paths = (
{
closed = 1;
nodes = (
"170 1 OFFCURVE",
"169 0 OFFCURVE",
"184 0 CURVE SMOOTH",
"254 0 LINE SMOOTH",
"265 0 OFFCURVE",
"271 6 OFFCURVE",
"275 12 CURVE SMOOTH",
"279 18 OFFCURVE",
"293 43 OFFCURVE",
"302 61 CURVE SMOOTH",
"308 73 OFFCURVE",
"325 108 OFFCURVE",
"326 112 CURVE SMOOTH",
"332 130 OFFCURVE",
"339 127 OFFCURVE",
"345 112 CURVE SMOOTH",
"357 80 OFFCURVE",
"384 26 OFFCURVE",
"394 12 CURVE SMOOTH",
"401 2 OFFCURVE",
"403 0 OFFCURVE",
"413 0 CURVE SMOOTH",
"488 0 LINE SMOOTH",
"496 0 OFFCURVE",
"500 6 OFFCURVE",
"508 18 CURVE SMOOTH",
"560 90 OFFCURVE",
"632 315 OFFCURVE",
"650 437 CURVE SMOOTH",
"653 457 OFFCURVE",
"654 472 OFFCURVE",
"639 472 CURVE SMOOTH",
"534 472 LINE SMOOTH",
"520 472 OFFCURVE",
"512 467 OFFCURVE",
"510 453 CURVE SMOOTH",
"494 350 OFFCURVE",
"467 243 OFFCURVE",
"455 194 CURVE SMOOTH",
"453 185 OFFCURVE",
"450 185 OFFCURVE",
"446 194 CURVE SMOOTH",
"435 219 OFFCURVE",
"426 264 OFFCURVE",
"420 315 CURVE SMOOTH",
"414 363 OFFCURVE",
"414 417 OFFCURVE",
"414 456 CURVE SMOOTH",
"414 466 OFFCURVE",
"408 471 OFFCURVE",
"400 471 CURVE SMOOTH",
"272 471 LINE SMOOTH",
"263 471 OFFCURVE",
"257 467 OFFCURVE",
"257 455 CURVE SMOOTH",
"257 428 OFFCURVE",
"259 380 OFFCURVE",
"259 329 CURVE SMOOTH",
"259 293 OFFCURVE",
"248 225 OFFCURVE",
"234 195 CURVE SMOOTH",
"233 192 OFFCURVE",
"229 187 OFFCURVE",
"226 198 CURVE SMOOTH",
"215 235 OFFCURVE",
"188 358 OFFCURVE",
"168 457 CURVE SMOOTH",
"166 467 OFFCURVE",
"161 472 OFFCURVE",
"150 472 CURVE SMOOTH",
"27 472 LINE SMOOTH",
"12 472 OFFCURVE",
"14 454 OFFCURVE",
"18 432 CURVE SMOOTH",
"36 331 OFFCURVE",
"89 158 OFFCURVE",
"161 18 CURVE SMOOTH"
);
}
);
};
layerId = "D1BC8BBB-1669-4C46-BC21-42BF6808B2B9";
paths = (
{
closed = 1;
nodes = (
"170 1 OFFCURVE",
"169 0 OFFCURVE",
"184 0 CURVE SMOOTH",
"254 0 LINE SMOOTH",
"265 0 OFFCURVE",
"271 6 OFFCURVE",
"275 12 CURVE SMOOTH",
"279 18 OFFCURVE",
"293 43 OFFCURVE",
"302 61 CURVE SMOOTH",
"308 73 OFFCURVE",
"325 108 OFFCURVE",
"326 112 CURVE SMOOTH",
"332 130 OFFCURVE",
"339 127 OFFCURVE",
"345 112 CURVE SMOOTH",
"357 80 OFFCURVE",
"384 26 OFFCURVE",
"394 12 CURVE SMOOTH",
"401 2 OFFCURVE",
"403 0 OFFCURVE",
"413 0 CURVE SMOOTH",
"488 0 LINE SMOOTH",
"496 0 OFFCURVE",
"500 6 OFFCURVE",
"508 18 CURVE SMOOTH",
"560 90 OFFCURVE",
"632 315 OFFCURVE",
"650 437 CURVE SMOOTH",
"653 457 OFFCURVE",
"654 472 OFFCURVE",
"639 472 CURVE SMOOTH",
"534 472 LINE SMOOTH",
"520 472 OFFCURVE",
"512 467 OFFCURVE",
"510 453 CURVE SMOOTH",
"494 350 OFFCURVE",
"467 243 OFFCURVE",
"455 194 CURVE SMOOTH",
"453 185 OFFCURVE",
"450 185 OFFCURVE",
"446 194 CURVE SMOOTH",
"435 219 OFFCURVE",
"426 264 OFFCURVE",
"420 315 CURVE SMOOTH",
"414 363 OFFCURVE",
"414 417 OFFCURVE",
"414 456 CURVE SMOOTH",
"414 466 OFFCURVE",
"408 471 OFFCURVE",
"400 471 CURVE SMOOTH",
"272 471 LINE SMOOTH",
"263 471 OFFCURVE",
"257 467 OFFCURVE",
"257 455 CURVE SMOOTH",
"257 428 OFFCURVE",
"259 380 OFFCURVE",
"259 329 CURVE SMOOTH",
"259 293 OFFCURVE",
"248 225 OFFCURVE",
"234 195 CURVE SMOOTH",
"233 192 OFFCURVE",
"229 187 OFFCURVE",
"226 198 CURVE SMOOTH",
"215 235 OFFCURVE",
"188 358 OFFCURVE",
"168 457 CURVE SMOOTH",
"166 467 OFFCURVE",
"161 472 OFFCURVE",
"150 472 CURVE SMOOTH",
"27 472 LINE SMOOTH",
"12 472 OFFCURVE",
"14 454 OFFCURVE",
"18 432 CURVE SMOOTH",
"36 331 OFFCURVE",
"89 158 OFFCURVE",
"161 18 CURVE SMOOTH"
);
}
);
width = 667;
}
);
note = w;
unicode = 0077;
},
{
glyphname = x;
lastChange = "2021-04-12 08:36:05 +0000";
layers = (
{
anchors = (
{
name = bottom;
position = "{207, 0}";
},
{
name = top;
position = "{207, 472}";
}
);
background = {
paths = (
{
closed = 1;
nodes = (
"65 0 LINE SMOOTH",
"67 0 OFFCURVE",
"70 0 OFFCURVE",
"72 7 CURVE",
"72 7 OFFCURVE",
"127 165 OFFCURVE",
"189 234 CURVE",
"201 234 OFFCURVE",
"212 234 OFFCURVE",
"224 234 CURVE",
"286 165 OFFCURVE",
"337 21 OFFCURVE",
"342 7 CURVE",
"345 0 OFFCURVE",
"347 0 OFFCURVE",
"349 0 CURVE SMOOTH",
"375 0 LINE SMOOTH",
"379 0 OFFCURVE",
"380 2 OFFCURVE",
"379 6 CURVE",
"375 18 OFFCURVE",
"328 144 OFFCURVE",
"261 238 CURVE SMOOTH",
"256 245 OFFCURVE",
"254 250 OFFCURVE",
"260 256 CURVE",
"322 341 OFFCURVE",
"360 466 OFFCURVE",
"360 466 CURVE",
"361 471 OFFCURVE",
"360 472 OFFCURVE",
"356 472 CURVE SMOOTH",
"333 472 LINE SMOOTH",
"330 472 OFFCURVE",
"328 472 OFFCURVE",
"326 465 CURVE",
"326 465 OFFCURVE",
"280 324 OFFCURVE",
"224 263 CURVE",
"212 263 OFFCURVE",
"201 263 OFFCURVE",
"189 263 CURVE",
"133 324 OFFCURVE",
"87 465 OFFCURVE",
"87 465 CURVE",
"85 472 OFFCURVE",
"83 472 OFFCURVE",
"80 472 CURVE SMOOTH",
"57 472 LINE SMOOTH",
"53 472 OFFCURVE",
"52 471 OFFCURVE",
"53 466 CURVE",
"53 466 OFFCURVE",
"91 342 OFFCURVE",
"152 257 CURVE SMOOTH",
"157 250 OFFCURVE",
"157 244 OFFCURVE",
"152 237 CURVE SMOOTH",
"84 142 OFFCURVE",
"35 6 OFFCURVE",
"35 6 CURVE",
"34 1 OFFCURVE",
"35 0 OFFCURVE",
"39 0 CURVE SMOOTH"
);
}
);
};
layerId = "707362F1-A677-446A-8636-E10BE3A7FAFF";
paths = (
{
closed = 1;
nodes = (
"65 0 LINE SMOOTH",
"67 0 OFFCURVE",
"70 0 OFFCURVE",
"72 7 CURVE",
"72 7 OFFCURVE",
"127 165 OFFCURVE",
"189 234 CURVE",
"201 234 OFFCURVE",
"212 234 OFFCURVE",
"224 234 CURVE",
"286 165 OFFCURVE",
"337 21 OFFCURVE",
"342 7 CURVE",
"345 0 OFFCURVE",
"347 0 OFFCURVE",
"349 0 CURVE SMOOTH",
"375 0 LINE SMOOTH",
"379 0 OFFCURVE",
"380 2 OFFCURVE",
"379 6 CURVE",
"375 18 OFFCURVE",
"328 144 OFFCURVE",
"261 238 CURVE SMOOTH",
"256 245 OFFCURVE",
"254 250 OFFCURVE",
"260 256 CURVE",
"322 341 OFFCURVE",
"360 466 OFFCURVE",
"360 466 CURVE",
"361 471 OFFCURVE",
"360 472 OFFCURVE",
"356 472 CURVE SMOOTH",
"333 472 LINE SMOOTH",
"330 472 OFFCURVE",
"328 472 OFFCURVE",
"326 465 CURVE",
"326 465 OFFCURVE",
"280 324 OFFCURVE",
"224 263 CURVE",
"212 263 OFFCURVE",
"201 263 OFFCURVE",
"189 263 CURVE",
"133 324 OFFCURVE",
"87 465 OFFCURVE",
"87 465 CURVE",
"85 472 OFFCURVE",
"83 472 OFFCURVE",
"80 472 CURVE SMOOTH",
"57 472 LINE SMOOTH",
"53 472 OFFCURVE",
"52 471 OFFCURVE",
"53 466 CURVE",
"53 466 OFFCURVE",
"91 342 OFFCURVE",
"152 257 CURVE SMOOTH",
"157 250 OFFCURVE",
"157 244 OFFCURVE",
"152 237 CURVE SMOOTH",
"84 142 OFFCURVE",
"35 6 OFFCURVE",
"35 6 CURVE",
"34 1 OFFCURVE",
"35 0 OFFCURVE",
"39 0 CURVE SMOOTH"
);
}
);
width = 414;
},
{
anchors = (
{
name = bottom;
position = "{225, 0}";
},
{
name = top;
position = "{225, 472}";
}
);
background = {
paths = (
{
closed = 1;
nodes = (
"157 0 LINE SMOOTH",
"170 0 OFFCURVE",
"173 1 OFFCURVE",
"177 15 CURVE",
"177 15 OFFCURVE",
"198 110 OFFCURVE",
"232 168 CURVE",
"244 168 OFFCURVE",
"223 168 OFFCURVE",
"235 168 CURVE",
"256 159 OFFCURVE",
"280 62 OFFCURVE",
"290 19 CURVE",
"292 6 OFFCURVE",
"296 0 OFFCURVE",
"317 0 CURVE SMOOTH",
"419 0 LINE SMOOTH",
"434 0 OFFCURVE",
"434 15 OFFCURVE",
"430 35 CURVE",
"426 47 OFFCURVE",
"417 143 OFFCURVE",
"350 237 CURVE SMOOTH",
"345 244 OFFCURVE",
"343 249 OFFCURVE",
"349 255 CURVE",
"411 340 OFFCURVE",
"427 421 OFFCURVE",
"434 457 CURVE",
"435 471 OFFCURVE",
"423 472 OFFCURVE",
"419 472 CURVE SMOOTH",
"317 472 LINE SMOOTH",
"296 472 OFFCURVE",
"292 466 OFFCURVE",
"290 453 CURVE",
"281 413 OFFCURVE",
"256 310 OFFCURVE",
"235 306 CURVE",
"234 306 OFFCURVE",
"235 306 OFFCURVE",
"234 306 CURVE",
"218 311 OFFCURVE",
"186 419 OFFCURVE",
"177 457 CURVE",
"173 471 OFFCURVE",
"170 472 OFFCURVE",
"159 472 CURVE SMOOTH",
"19 472 LINE SMOOTH",
"15 472 OFFCURVE",
"14 471 OFFCURVE",
"15 466 CURVE",
"15 466 OFFCURVE",
"47 340 OFFCURVE",
"108 255 CURVE SMOOTH",
"113 248 OFFCURVE",
"115 245 OFFCURVE",
"111 238 CURVE SMOOTH",
"62 147 OFFCURVE",
"35 77 OFFCURVE",
"27 40 CURVE",
"26 35 OFFCURVE",
"15 0 OFFCURVE",
"36 0 CURVE SMOOTH"
);
}
);
};
layerId = "D1BC8BBB-1669-4C46-BC21-42BF6808B2B9";
paths = (
{
closed = 1;
nodes = (
"157 0 LINE SMOOTH",
"170 0 OFFCURVE",
"173 1 OFFCURVE",
"177 15 CURVE",
"177 15 OFFCURVE",
"198 110 OFFCURVE",
"232 168 CURVE",
"244 168 OFFCURVE",
"223 168 OFFCURVE",
"235 168 CURVE",
"256 159 OFFCURVE",
"280 62 OFFCURVE",
"290 19 CURVE",
"292 6 OFFCURVE",
"296 0 OFFCURVE",
"317 0 CURVE SMOOTH",
"419 0 LINE SMOOTH",
"434 0 OFFCURVE",
"434 15 OFFCURVE",
"430 35 CURVE",
"426 47 OFFCURVE",
"417 143 OFFCURVE",
"350 237 CURVE SMOOTH",
"345 244 OFFCURVE",
"343 249 OFFCURVE",
"349 255 CURVE",
"411 340 OFFCURVE",
"427 421 OFFCURVE",
"434 457 CURVE",
"435 471 OFFCURVE",
"423 472 OFFCURVE",
"419 472 CURVE SMOOTH",
"317 472 LINE SMOOTH",
"296 472 OFFCURVE",
"292 466 OFFCURVE",
"290 453 CURVE",
"281 413 OFFCURVE",
"256 310 OFFCURVE",
"235 306 CURVE",
"234 306 OFFCURVE",
"235 306 OFFCURVE",
"234 306 CURVE",
"218 311 OFFCURVE",
"186 419 OFFCURVE",
"177 457 CURVE",
"173 471 OFFCURVE",
"170 472 OFFCURVE",
"159 472 CURVE SMOOTH",
"19 472 LINE SMOOTH",
"15 472 OFFCURVE",
"14 471 OFFCURVE",
"15 466 CURVE",
"15 466 OFFCURVE",
"47 340 OFFCURVE",
"108 255 CURVE SMOOTH",
"113 248 OFFCURVE",
"115 245 OFFCURVE",
"111 238 CURVE SMOOTH",
"62 147 OFFCURVE",
"35 77 OFFCURVE",
"27 40 CURVE",
"26 35 OFFCURVE",
"15 0 OFFCURVE",
"36 0 CURVE SMOOTH"
);
}
);
width = 449;
}
);
note = x;
unicode = 0078;
},
{
glyphname = y;
lastChange = "2021-04-12 08:51:54 +0000";
layers = (
{
anchors = (
{
name = bottom;
position = "{312, 0}";
},
{
name = top;
position = "{216, 472}";
}
);
background = {
paths = (
{
closed = 1;
nodes = (
"209 33 OFFCURVE",
"205 19 OFFCURVE",
"200 11 CURVE SMOOTH",
"183 -17 OFFCURVE",
"172 -30 OFFCURVE",
"146 -53 CURVE SMOOTH",
"113 -84 OFFCURVE",
"62 -103 OFFCURVE",
"22 -97 CURVE SMOOTH",
"17 -96 OFFCURVE",
"13 -97 OFFCURVE",
"12 -99 CURVE SMOOTH",
"5 -119 LINE SMOOTH",
"4 -123 OFFCURVE",
"8 -124 OFFCURVE",
"11 -125 CURVE SMOOTH",
"23 -127 OFFCURVE",
"35 -127 OFFCURVE",
"46 -127 CURVE SMOOTH",
"225 -127 OFFCURVE",
"306 146 OFFCURVE",
"346 269 CURVE SMOOTH",
"366 333 OFFCURVE",
"382 399 OFFCURVE",
"391 465 CURVE SMOOTH",
"392 471 OFFCURVE",
"390 472 OFFCURVE",
"386 472 CURVE SMOOTH",
"362 472 LINE SMOOTH",
"358 472 OFFCURVE",
"353 471 OFFCURVE",
"353 465 CURVE SMOOTH",
"344 354 OFFCURVE",
"273 140 OFFCURVE",
"231 78 CURVE",
"229 76 OFFCURVE",
"223 73 OFFCURVE",
"218 83 CURVE",
"172 133 OFFCURVE",
"100 358 OFFCURVE",
"90 465 CURVE SMOOTH",
"90 471 OFFCURVE",
"85 472 OFFCURVE",
"82 472 CURVE SMOOTH",
"57 472 LINE SMOOTH",
"54 472 OFFCURVE",
"51 471 OFFCURVE",
"52 465 CURVE SMOOTH",
"67 353 OFFCURVE",
"130 130 OFFCURVE",
"200 45 CURVE SMOOTH"
);
}
);
};
layerId = "707362F1-A677-446A-8636-E10BE3A7FAFF";
paths = (
{
closed = 1;
nodes = (
"209 33 OFFCURVE",
"205 19 OFFCURVE",
"200 11 CURVE SMOOTH",
"183 -17 OFFCURVE",
"172 -30 OFFCURVE",
"146 -53 CURVE SMOOTH",
"113 -84 OFFCURVE",
"62 -103 OFFCURVE",
"22 -97 CURVE SMOOTH",
"17 -96 OFFCURVE",
"13 -97 OFFCURVE",
"12 -99 CURVE SMOOTH",
"5 -119 LINE SMOOTH",
"4 -123 OFFCURVE",
"8 -124 OFFCURVE",
"11 -125 CURVE SMOOTH",
"23 -127 OFFCURVE",
"35 -127 OFFCURVE",
"46 -127 CURVE SMOOTH",
"225 -127 OFFCURVE",
"306 146 OFFCURVE",
"346 269 CURVE SMOOTH",
"366 333 OFFCURVE",
"382 399 OFFCURVE",
"391 465 CURVE SMOOTH",
"392 471 OFFCURVE",
"390 472 OFFCURVE",
"386 472 CURVE SMOOTH",
"362 472 LINE SMOOTH",
"358 472 OFFCURVE",
"353 471 OFFCURVE",
"353 465 CURVE SMOOTH",
"344 354 OFFCURVE",
"273 140 OFFCURVE",
"231 78 CURVE",
"229 76 OFFCURVE",
"223 73 OFFCURVE",
"218 83 CURVE",
"172 133 OFFCURVE",
"100 358 OFFCURVE",
"90 465 CURVE SMOOTH",
"90 471 OFFCURVE",
"85 472 OFFCURVE",
"82 472 CURVE SMOOTH",
"57 472 LINE SMOOTH",
"54 472 OFFCURVE",
"51 471 OFFCURVE",
"52 465 CURVE SMOOTH",
"67 353 OFFCURVE",
"130 130 OFFCURVE",
"200 45 CURVE SMOOTH"
);
}
);
width = 431;
},
{
anchors = (
{
name = bottom;
position = "{396, 0}";
},
{
name = top;
position = "{240, 472}";
}
);
background = {
paths = (
{
closed = 1;
nodes = (
"165 92 OFFCURVE",
"173 64 OFFCURVE",
"163 39 CURVE SMOOTH",
"157 24 OFFCURVE",
"144 10 OFFCURVE",
"120 -1 CURVE SMOOTH",
"101 -10 OFFCURVE",
"77 -12 OFFCURVE",
"59 -7 CURVE SMOOTH",
"48 -4 OFFCURVE",
"44 -2 OFFCURVE",
"37 -15 CURVE SMOOTH",
"9 -68 LINE SMOOTH",
"1 -83 OFFCURVE",
"4 -92 OFFCURVE",
"21 -101 CURVE SMOOTH",
"39 -111 OFFCURVE",
"66 -116 OFFCURVE",
"106 -116 CURVE SMOOTH",
"288 -116 OFFCURVE",
"361 112 OFFCURVE",
"393 206 CURVE SMOOTH",
"426 304 OFFCURVE",
"444 365 OFFCURVE",
"459 448 CURVE SMOOTH",
"463 469 OFFCURVE",
"453 472 OFFCURVE",
"439 472 CURVE SMOOTH",
"341 472 LINE SMOOTH",
"325 472 OFFCURVE",
"322 467 OFFCURVE",
"319 452 CURVE SMOOTH",
"303 373 OFFCURVE",
"286 293 OFFCURVE",
"265 217 CURVE",
"263 206 OFFCURVE",
"257 206 OFFCURVE",
"252 216 CURVE",
"231 291 OFFCURVE",
"210 405 OFFCURVE",
"205 442 CURVE SMOOTH",
"202 465 OFFCURVE",
"197 472 OFFCURVE",
"181 472 CURVE SMOOTH",
"66 472 LINE SMOOTH",
"55 472 OFFCURVE",
"50 465 OFFCURVE",
"53 450 CURVE SMOOTH",
"73 336 OFFCURVE",
"106 222 OFFCURVE",
"153 118 CURVE SMOOTH"
);
}
);
};
layerId = "D1BC8BBB-1669-4C46-BC21-42BF6808B2B9";
paths = (
{
closed = 1;
nodes = (
"165 92 OFFCURVE",
"173 64 OFFCURVE",
"163 39 CURVE SMOOTH",
"157 24 OFFCURVE",
"144 10 OFFCURVE",
"120 -1 CURVE SMOOTH",
"101 -10 OFFCURVE",
"77 -12 OFFCURVE",
"59 -7 CURVE SMOOTH",
"48 -4 OFFCURVE",
"44 -2 OFFCURVE",
"37 -15 CURVE SMOOTH",
"9 -68 LINE SMOOTH",
"1 -83 OFFCURVE",
"4 -92 OFFCURVE",
"21 -101 CURVE SMOOTH",
"39 -111 OFFCURVE",
"66 -116 OFFCURVE",
"106 -116 CURVE SMOOTH",
"288 -116 OFFCURVE",
"361 112 OFFCURVE",
"393 206 CURVE SMOOTH",
"426 304 OFFCURVE",
"444 365 OFFCURVE",
"459 448 CURVE SMOOTH",
"463 469 OFFCURVE",
"453 472 OFFCURVE",
"439 472 CURVE SMOOTH",
"341 472 LINE SMOOTH",
"325 472 OFFCURVE",
"322 467 OFFCURVE",
"319 452 CURVE SMOOTH",
"303 373 OFFCURVE",
"286 293 OFFCURVE",
"265 217 CURVE",
"263 206 OFFCURVE",
"257 206 OFFCURVE",
"252 216 CURVE",
"231 291 OFFCURVE",
"210 405 OFFCURVE",
"205 442 CURVE SMOOTH",
"202 465 OFFCURVE",
"197 472 OFFCURVE",
"181 472 CURVE SMOOTH",
"66 472 LINE SMOOTH",
"55 472 OFFCURVE",
"50 465 OFFCURVE",
"53 450 CURVE SMOOTH",
"73 336 OFFCURVE",
"106 222 OFFCURVE",
"153 118 CURVE SMOOTH"
);
}
);
width = 480;
}
);
note = y;
unicode = 0079;
},
{
glyphname = z;
lastChange = "2021-04-12 08:36:05 +0000";
layers = (
{
anchors = (
{
name = bottom;
position = "{184, 0}";
},
{
name = center;
position = "{184, 236}";
},
{
name = top;
position = "{184, 472}";
}
);
background = {
paths = (
{
closed = 1;
nodes = (
"40 2 OFFCURVE",
"43 0 OFFCURVE",
"46 0 CURVE SMOOTH",
"321 0 LINE SMOOTH",
"323 0 OFFCURVE",
"325 1 OFFCURVE",
"325 4 CURVE SMOOTH",
"325 26 LINE SMOOTH",
"325 28 OFFCURVE",
"323 29 OFFCURVE",
"321 29 CURVE SMOOTH",
"86 29 LINE SMOOTH",
"76 29 OFFCURVE",
"78 39 OFFCURVE",
"79 44 CURVE SMOOTH",
"90 86 OFFCURVE",
"125 150 OFFCURVE",
"165 225 CURVE SMOOTH",
"202 291 OFFCURVE",
"262 379 OFFCURVE",
"315 430 CURVE SMOOTH",
"320 434 OFFCURVE",
"327 445 OFFCURVE",
"327 451 CURVE SMOOTH",
"327 466 LINE SMOOTH",
"327 471 OFFCURVE",
"327 472 OFFCURVE",
"322 472 CURVE SMOOTH",
"65 472 LINE SMOOTH",
"63 472 OFFCURVE",
"61 471 OFFCURVE",
"61 468 CURVE SMOOTH",
"61 446 LINE SMOOTH",
"61 444 OFFCURVE",
"63 442 OFFCURVE",
"65 442 CURVE SMOOTH",
"267 442 LINE SMOOTH",
"275 442 OFFCURVE",
"275 439 OFFCURVE",
"268 432 CURVE SMOOTH",
"236 396 OFFCURVE",
"196 339 OFFCURVE",
"156 274 CURVE SMOOTH",
"100 182 OFFCURVE",
"52 94 OFFCURVE",
"40 6 CURVE"
);
}
);
};
layerId = "707362F1-A677-446A-8636-E10BE3A7FAFF";
paths = (
{
closed = 1;
nodes = (
"40 2 OFFCURVE",
"43 0 OFFCURVE",
"46 0 CURVE SMOOTH",
"321 0 LINE SMOOTH",
"323 0 OFFCURVE",
"325 1 OFFCURVE",
"325 4 CURVE SMOOTH",
"325 26 LINE SMOOTH",
"325 28 OFFCURVE",
"323 29 OFFCURVE",
"321 29 CURVE SMOOTH",
"86 29 LINE SMOOTH",
"76 29 OFFCURVE",
"78 39 OFFCURVE",
"79 44 CURVE SMOOTH",
"90 86 OFFCURVE",
"125 150 OFFCURVE",
"165 225 CURVE SMOOTH",
"202 291 OFFCURVE",
"262 379 OFFCURVE",
"315 430 CURVE SMOOTH",
"320 434 OFFCURVE",
"327 445 OFFCURVE",
"327 451 CURVE SMOOTH",
"327 466 LINE SMOOTH",
"327 471 OFFCURVE",
"327 472 OFFCURVE",
"322 472 CURVE SMOOTH",
"65 472 LINE SMOOTH",
"63 472 OFFCURVE",
"61 471 OFFCURVE",
"61 468 CURVE SMOOTH",
"61 446 LINE SMOOTH",
"61 444 OFFCURVE",
"63 442 OFFCURVE",
"65 442 CURVE SMOOTH",
"267 442 LINE SMOOTH",
"275 442 OFFCURVE",
"275 439 OFFCURVE",
"268 432 CURVE SMOOTH",
"236 396 OFFCURVE",
"196 339 OFFCURVE",
"156 274 CURVE SMOOTH",
"100 182 OFFCURVE",
"52 94 OFFCURVE",
"40 6 CURVE"
);
}
);
width = 367;
},
{
anchors = (
{
name = bottom;
position = "{197, 0}";
},
{
name = center;
position = "{197, 236}";
},
{
name = top;
position = "{197, 472}";
}
);
background = {
paths = (
{
closed = 1;
nodes = (
"23 2 OFFCURVE",
"28 0 OFFCURVE",
"44 0 CURVE SMOOTH",
"346 0 LINE SMOOTH",
"363 0 OFFCURVE",
"368 0 OFFCURVE",
"368 14 CURVE SMOOTH",
"368 93 LINE SMOOTH",
"368 109 OFFCURVE",
"368 112 OFFCURVE",
"355 112 CURVE SMOOTH",
"193 112 LINE SMOOTH",
"179 112 OFFCURVE",
"179 120 OFFCURVE",
"181 125 CURVE SMOOTH",
"198 162 OFFCURVE",
"224 205 OFFCURVE",
"252 244 CURVE SMOOTH",
"285 290 OFFCURVE",
"321 331 OFFCURVE",
"347 348 CURVE SMOOTH",
"366 361 OFFCURVE",
"368 373 OFFCURVE",
"368 382 CURVE SMOOTH",
"368 452 LINE SMOOTH",
"368 467 OFFCURVE",
"369 472 OFFCURVE",
"352 472 CURVE SMOOTH",
"65 472 LINE SMOOTH",
"49 472 OFFCURVE",
"47 473 OFFCURVE",
"47 455 CURVE SMOOTH",
"47 375 LINE SMOOTH",
"47 360 OFFCURVE",
"50 360 OFFCURVE",
"62 360 CURVE SMOOTH",
"181 360 LINE",
"192 356 OFFCURVE",
"188 352 OFFCURVE",
"185 348 CURVE SMOOTH",
"156 312 OFFCURVE",
"127 273 OFFCURVE",
"102 233 CURVE SMOOTH",
"63 172 OFFCURVE",
"33 107 OFFCURVE",
"26 41 CURVE SMOOTH"
);
}
);
};
layerId = "D1BC8BBB-1669-4C46-BC21-42BF6808B2B9";
paths = (
{
closed = 1;
nodes = (
"23 2 OFFCURVE",
"28 0 OFFCURVE",
"44 0 CURVE SMOOTH",
"346 0 LINE SMOOTH",
"363 0 OFFCURVE",
"368 0 OFFCURVE",
"368 14 CURVE SMOOTH",
"368 93 LINE SMOOTH",
"368 109 OFFCURVE",
"368 112 OFFCURVE",
"355 112 CURVE SMOOTH",
"193 112 LINE SMOOTH",
"179 112 OFFCURVE",
"179 120 OFFCURVE",
"181 125 CURVE SMOOTH",
"198 162 OFFCURVE",
"224 205 OFFCURVE",
"252 244 CURVE SMOOTH",
"285 290 OFFCURVE",
"321 331 OFFCURVE",
"347 348 CURVE SMOOTH",
"366 361 OFFCURVE",
"368 373 OFFCURVE",
"368 382 CURVE SMOOTH",
"368 452 LINE SMOOTH",
"368 467 OFFCURVE",
"369 472 OFFCURVE",
"352 472 CURVE SMOOTH",
"65 472 LINE SMOOTH",
"49 472 OFFCURVE",
"47 473 OFFCURVE",
"47 455 CURVE SMOOTH",
"47 375 LINE SMOOTH",
"47 360 OFFCURVE",
"50 360 OFFCURVE",
"62 360 CURVE SMOOTH",
"181 360 LINE",
"192 356 OFFCURVE",
"188 352 OFFCURVE",
"185 348 CURVE SMOOTH",
"156 312 OFFCURVE",
"127 273 OFFCURVE",
"102 233 CURVE SMOOTH",
"63 172 OFFCURVE",
"33 107 OFFCURVE",
"26 41 CURVE SMOOTH"
);
}
);
width = 393;
}
);
note = z;
unicode = 007A;
},
{
glyphname = A;
lastChange = "2021-04-12 08:36:05 +0000";
layers = (
{
anchors = (
{
name = bottom;
position = "{268, 0}";
},
{
name = ogonek;
position = "{482, 10}";
},
{
name = top;
position = "{268, 672}";
}
);
background = {
paths = (
{
closed = 1;
nodes = (
"69 0 LINE SMOOTH",
"73 0 OFFCURVE",
"73 1 OFFCURVE",
"73 4 CURVE SMOOTH",
"79 44 OFFCURVE",
"90 98 OFFCURVE",
"103 160 CURVE SMOOTH",
"105 168 OFFCURVE",
"108 170 OFFCURVE",
"115 171 CURVE",
"418 171 LINE SMOOTH",
"426 171 OFFCURVE",
"430 168 OFFCURVE",
"431 162 CURVE SMOOTH",
"444 98 OFFCURVE",
"455 44 OFFCURVE",
"460 5 CURVE",
"462 1 OFFCURVE",
"462 0 OFFCURVE",
"465 0 CURVE SMOOTH",
"491 0 LINE SMOOTH",
"495 0 OFFCURVE",
"495 1 OFFCURVE",
"494 6 CURVE SMOOTH",
"475 151 OFFCURVE",
"377 533 OFFCURVE",
"313 668 CURVE SMOOTH",
"311 673 OFFCURVE",
"308 673 OFFCURVE",
"304 673 CURVE SMOOTH",
"230 673 LINE SMOOTH",
"227 673 OFFCURVE",
"224 671 OFFCURVE",
"223 669 CURVE SMOOTH",
"152 524 OFFCURVE",
"63 168 OFFCURVE",
"40 5 CURVE",
"40 1 OFFCURVE",
"40 0 OFFCURVE",
"44 0 CURVE SMOOTH"
);
},
{
closed = 1;
nodes = (
"114 201 OFFCURVE",
"114 208 OFFCURVE",
"115 211 CURVE SMOOTH",
"150 362 OFFCURVE",
"202 540 OFFCURVE",
"245 637 CURVE SMOOTH",
"247 642 OFFCURVE",
"249 643 OFFCURVE",
"255 643 CURVE SMOOTH",
"264 643 OFFCURVE",
"272 643 OFFCURVE",
"281 643 CURVE SMOOTH",
"285 643 OFFCURVE",
"289 642 OFFCURVE",
"291 638 CURVE SMOOTH",
"348 505 OFFCURVE",
"380 361 OFFCURVE",
"418 218 CURVE",
"420 204 OFFCURVE",
"414 201 OFFCURVE",
"410 201 CURVE SMOOTH",
"122 201 LINE SMOOTH"
);
}
);
};
layerId = "707362F1-A677-446A-8636-E10BE3A7FAFF";
paths = (
{
closed = 1;
nodes = (
"69 0 LINE SMOOTH",
"73 0 OFFCURVE",
"73 1 OFFCURVE",
"73 4 CURVE SMOOTH",
"79 44 OFFCURVE",
"90 98 OFFCURVE",
"103 160 CURVE SMOOTH",
"105 168 OFFCURVE",
"108 170 OFFCURVE",
"115 171 CURVE",
"418 171 LINE SMOOTH",
"426 171 OFFCURVE",
"430 168 OFFCURVE",
"431 162 CURVE SMOOTH",
"444 98 OFFCURVE",
"455 44 OFFCURVE",
"460 5 CURVE",
"462 1 OFFCURVE",
"462 0 OFFCURVE",
"465 0 CURVE SMOOTH",
"491 0 LINE SMOOTH",
"495 0 OFFCURVE",
"495 1 OFFCURVE",
"494 6 CURVE SMOOTH",
"475 151 OFFCURVE",
"377 533 OFFCURVE",
"313 668 CURVE SMOOTH",
"311 673 OFFCURVE",
"308 673 OFFCURVE",
"304 673 CURVE SMOOTH",
"230 673 LINE SMOOTH",
"227 673 OFFCURVE",
"224 671 OFFCURVE",
"223 669 CURVE SMOOTH",
"152 524 OFFCURVE",
"63 168 OFFCURVE",
"40 5 CURVE",
"40 1 OFFCURVE",
"40 0 OFFCURVE",
"44 0 CURVE SMOOTH"
);
},
{
closed = 1;
nodes = (
"114 201 OFFCURVE",
"114 208 OFFCURVE",
"115 211 CURVE SMOOTH",
"150 362 OFFCURVE",
"202 540 OFFCURVE",
"245 637 CURVE SMOOTH",
"247 642 OFFCURVE",
"249 643 OFFCURVE",
"255 643 CURVE SMOOTH",
"264 643 OFFCURVE",
"272 643 OFFCURVE",
"281 643 CURVE SMOOTH",
"285 643 OFFCURVE",
"289 642 OFFCURVE",
"291 638 CURVE SMOOTH",
"348 505 OFFCURVE",
"380 361 OFFCURVE",
"418 218 CURVE",
"420 204 OFFCURVE",
"414 201 OFFCURVE",
"410 201 CURVE SMOOTH",
"122 201 LINE SMOOTH"
);
}
);
width = 535;
},
{
anchors = (
{
name = bottom;
position = "{281, 0}";
},
{
name = ogonek;
position = "{505, 10}";
},
{
name = top;
position = "{281, 673}";
}
);
background = {
paths = (
{
closed = 1;
nodes = (
"152 0 LINE SMOOTH",
"164 0 OFFCURVE",
"167 2 OFFCURVE",
"172 32 CURVE SMOOTH",
"177 61 OFFCURVE",
"188 107 OFFCURVE",
"193 133 CURVE SMOOTH",
"195 143 OFFCURVE",
"195 143 OFFCURVE",
"204 143 CURVE SMOOTH",
"358 143 LINE SMOOTH",
"367 143 OFFCURVE",
"367 143 OFFCURVE",
"369 133 CURVE SMOOTH",
"374 107 OFFCURVE",
"385 61 OFFCURVE",
"390 32 CURVE SMOOTH",
"395 2 OFFCURVE",
"398 0 OFFCURVE",
"410 0 CURVE SMOOTH",
"528 0 LINE SMOOTH",
"542 0 OFFCURVE",
"544 8 OFFCURVE",
"539 40 CURVE SMOOTH",
"519 188 OFFCURVE",
"427 513 OFFCURVE",
"355 651 CURVE SMOOTH",
"348 664 OFFCURVE",
"341 669 OFFCURVE",
"330 673 CURVE",
"231 673 LINE SMOOTH",
"220 673 OFFCURVE",
"214 664 OFFCURVE",
"206 651 CURVE",
"135 513 OFFCURVE",
"43 188 OFFCURVE",
"23 40 CURVE SMOOTH",
"18 8 OFFCURVE",
"20 0 OFFCURVE",
"33 0 CURVE SMOOTH"
);
},
{
closed = 1;
nodes = (
"227 258 OFFCURVE",
"226 261 OFFCURVE",
"228 270 CURVE SMOOTH",
"244 328 OFFCURVE",
"260 385 OFFCURVE",
"276 438 CURVE SMOOTH",
"277 443 OFFCURVE",
"279 447 OFFCURVE",
"280 452 CURVE",
"281 448 OFFCURVE",
"282 444 OFFCURVE",
"284 440 CURVE SMOOTH",
"284 439 OFFCURVE",
"285 437 OFFCURVE",
"285 436 CURVE SMOOTH",
"301 384 OFFCURVE",
"317 328 OFFCURVE",
"333 270 CURVE SMOOTH",
"336 261 OFFCURVE",
"335 258 OFFCURVE",
"326 258 CURVE SMOOTH",
"236 258 LINE SMOOTH"
);
}
);
};
layerId = "D1BC8BBB-1669-4C46-BC21-42BF6808B2B9";
paths = (
{
closed = 1;
nodes = (
"152 0 LINE SMOOTH",
"164 0 OFFCURVE",
"167 2 OFFCURVE",
"172 32 CURVE SMOOTH",
"177 61 OFFCURVE",
"188 107 OFFCURVE",
"193 133 CURVE SMOOTH",
"195 143 OFFCURVE",
"195 143 OFFCURVE",
"204 143 CURVE SMOOTH",
"358 143 LINE SMOOTH",
"367 143 OFFCURVE",
"367 143 OFFCURVE",
"369 133 CURVE SMOOTH",
"374 107 OFFCURVE",
"385 61 OFFCURVE",
"390 32 CURVE SMOOTH",
"395 2 OFFCURVE",
"398 0 OFFCURVE",
"410 0 CURVE SMOOTH",
"528 0 LINE SMOOTH",
"542 0 OFFCURVE",
"544 8 OFFCURVE",
"539 40 CURVE SMOOTH",
"519 188 OFFCURVE",
"427 513 OFFCURVE",
"355 651 CURVE SMOOTH",
"348 664 OFFCURVE",
"341 669 OFFCURVE",
"330 673 CURVE",
"231 673 LINE SMOOTH",
"220 673 OFFCURVE",
"214 664 OFFCURVE",
"206 651 CURVE",
"135 513 OFFCURVE",
"43 188 OFFCURVE",
"23 40 CURVE SMOOTH",
"18 8 OFFCURVE",
"20 0 OFFCURVE",
"33 0 CURVE SMOOTH"
);
},
{
closed = 1;
nodes = (
"227 258 OFFCURVE",
"226 261 OFFCURVE",
"228 270 CURVE SMOOTH",
"244 328 OFFCURVE",
"260 385 OFFCURVE",
"276 438 CURVE SMOOTH",
"277 443 OFFCURVE",
"279 447 OFFCURVE",
"280 452 CURVE",
"281 448 OFFCURVE",
"282 444 OFFCURVE",
"284 440 CURVE SMOOTH",
"284 439 OFFCURVE",
"285 437 OFFCURVE",
"285 436 CURVE SMOOTH",
"301 384 OFFCURVE",
"317 328 OFFCURVE",
"333 270 CURVE SMOOTH",
"336 261 OFFCURVE",
"335 258 OFFCURVE",
"326 258 CURVE SMOOTH",
"236 258 LINE SMOOTH"
);
}
);
width = 561;
}
);
note = A;
unicode = 0041;
},
{
glyphname = B;
lastChange = "2021-04-12 08:36:05 +0000";
layers = (
{
anchors = (
{
name = bottom;
position = "{251, 0}";
},
{
name = top;
position = "{251, 672}";
}
);
background = {
paths = (
{
closed = 1;
nodes = (
"451 263 OFFCURVE",
"408 323 OFFCURVE",
"351 345 CURVE SMOOTH",
"341 348 OFFCURVE",
"344 356 OFFCURVE",
"350 359 CURVE SMOOTH",
"392 380 OFFCURVE",
"424 431 OFFCURVE",
"424 517 CURVE SMOOTH",
"424 662 OFFCURVE",
"332 673 OFFCURVE",
"210 673 CURVE SMOOTH",
"84 673 LINE SMOOTH",
"81 673 OFFCURVE",
"80 671 OFFCURVE",
"80 669 CURVE SMOOTH",
"80 4 LINE SMOOTH",
"80 1 OFFCURVE",
"81 0 OFFCURVE",
"84 0 CURVE SMOOTH",
"271 0 LINE SMOOTH",
"371 0 OFFCURVE",
"451 48 OFFCURVE",
"451 179 CURVE SMOOTH"
);
},
{
closed = 1;
nodes = (
"418 53 OFFCURVE",
"333 29 OFFCURVE",
"276 29 CURVE",
"118 29 LINE SMOOTH",
"114 29 OFFCURVE",
"113 31 OFFCURVE",
"113 34 CURVE SMOOTH",
"113 327 LINE SMOOTH",
"113 330 OFFCURVE",
"114 332 OFFCURVE",
"119 332 CURVE SMOOTH",
"247 332 LINE SMOOTH",
"351 332 OFFCURVE",
"418 301 OFFCURVE",
"418 182 CURVE SMOOTH"
);
},
{
closed = 1;
nodes = (
"391 433 OFFCURVE",
"348 361 OFFCURVE",
"255 361 CURVE SMOOTH",
"118 361 LINE SMOOTH",
"114 361 OFFCURVE",
"113 362 OFFCURVE",
"113 366 CURVE SMOOTH",
"113 638 LINE SMOOTH",
"113 641 OFFCURVE",
"114 643 OFFCURVE",
"118 643 CURVE SMOOTH",
"221 643 LINE SMOOTH",
"318 643 OFFCURVE",
"391 634 OFFCURVE",
"391 517 CURVE SMOOTH"
);
}
);
};
layerId = "707362F1-A677-446A-8636-E10BE3A7FAFF";
paths = (
{
closed = 1;
nodes = (
"451 263 OFFCURVE",
"408 323 OFFCURVE",
"351 345 CURVE SMOOTH",
"341 348 OFFCURVE",
"344 356 OFFCURVE",
"350 359 CURVE SMOOTH",
"392 380 OFFCURVE",
"424 431 OFFCURVE",
"424 517 CURVE SMOOTH",
"424 662 OFFCURVE",
"332 673 OFFCURVE",
"210 673 CURVE SMOOTH",
"84 673 LINE SMOOTH",
"81 673 OFFCURVE",
"80 671 OFFCURVE",
"80 669 CURVE SMOOTH",
"80 4 LINE SMOOTH",
"80 1 OFFCURVE",
"81 0 OFFCURVE",
"84 0 CURVE SMOOTH",
"271 0 LINE SMOOTH",
"371 0 OFFCURVE",
"451 48 OFFCURVE",
"451 179 CURVE SMOOTH"
);
},
{
closed = 1;
nodes = (
"418 53 OFFCURVE",
"333 29 OFFCURVE",
"276 29 CURVE",
"118 29 LINE SMOOTH",
"114 29 OFFCURVE",
"113 31 OFFCURVE",
"113 34 CURVE SMOOTH",
"113 327 LINE SMOOTH",
"113 330 OFFCURVE",
"114 332 OFFCURVE",
"119 332 CURVE SMOOTH",
"247 332 LINE SMOOTH",
"351 332 OFFCURVE",
"418 301 OFFCURVE",
"418 182 CURVE SMOOTH"
);
},
{
closed = 1;
nodes = (
"391 433 OFFCURVE",
"348 361 OFFCURVE",
"255 361 CURVE SMOOTH",
"118 361 LINE SMOOTH",
"114 361 OFFCURVE",
"113 362 OFFCURVE",
"113 366 CURVE SMOOTH",
"113 638 LINE SMOOTH",
"113 641 OFFCURVE",
"114 643 OFFCURVE",
"118 643 CURVE SMOOTH",
"221 643 LINE SMOOTH",
"318 643 OFFCURVE",
"391 634 OFFCURVE",
"391 517 CURVE SMOOTH"
);
}
);
width = 501;
},
{
anchors = (
{
name = bottom;
position = "{262, 0}";
},
{
name = top;
position = "{262, 673}";
}
);
background = {
paths = (
{
closed = 1;
nodes = (
"484 258 OFFCURVE",
"448 320 OFFCURVE",
"404 342 CURVE",
"400 345 OFFCURVE",
"396 352 OFFCURVE",
"404 355 CURVE",
"456 381 OFFCURVE",
"476 460 OFFCURVE",
"476 499 CURVE SMOOTH",
"476 662 OFFCURVE",
"365 673 OFFCURVE",
"232 673 CURVE SMOOTH",
"55 673 LINE SMOOTH",
"47 673 OFFCURVE",
"40 667 OFFCURVE",
"40 658 CURVE SMOOTH",
"40 14 LINE SMOOTH",
"40 6 OFFCURVE",
"47 0 OFFCURVE",
"55 0 CURVE SMOOTH",
"272 0 LINE SMOOTH",
"388 0 OFFCURVE",
"484 53 OFFCURVE",
"484 195 CURVE SMOOTH"
);
},
{
closed = 1;
nodes = (
"322 109 OFFCURVE",
"273 104 OFFCURVE",
"240 104 CURVE SMOOTH",
"200 104 LINE SMOOTH",
"192 104 OFFCURVE",
"192 105 OFFCURVE",
"192 111 CURVE SMOOTH",
"192 281 LINE SMOOTH",
"192 287 OFFCURVE",
"193 287 OFFCURVE",
"199 287 CURVE SMOOTH",
"227 287 LINE SMOOTH",
"288 287 OFFCURVE",
"322 278 OFFCURVE",
"322 196 CURVE SMOOTH"
);
},
{
closed = 1;
nodes = (
"316 422 OFFCURVE",
"291 404 OFFCURVE",
"238 404 CURVE SMOOTH",
"200 404 LINE SMOOTH",
"193 404 OFFCURVE",
"192 405 OFFCURVE",
"192 411 CURVE SMOOTH",
"192 560 LINE SMOOTH",
"192 568 OFFCURVE",
"193 569 OFFCURVE",
"199 569 CURVE SMOOTH",
"201 569 LINE SMOOTH",
"276 569 OFFCURVE",
"316 560 OFFCURVE",
"316 492 CURVE SMOOTH"
);
}
);
};
layerId = "D1BC8BBB-1669-4C46-BC21-42BF6808B2B9";
paths = (
{
closed = 1;
nodes = (
"484 258 OFFCURVE",
"448 320 OFFCURVE",
"404 342 CURVE",
"400 345 OFFCURVE",
"396 352 OFFCURVE",
"404 355 CURVE",
"456 381 OFFCURVE",
"476 460 OFFCURVE",
"476 499 CURVE SMOOTH",
"476 662 OFFCURVE",
"365 673 OFFCURVE",
"232 673 CURVE SMOOTH",
"55 673 LINE SMOOTH",
"47 673 OFFCURVE",
"40 667 OFFCURVE",
"40 658 CURVE SMOOTH",
"40 14 LINE SMOOTH",
"40 6 OFFCURVE",
"47 0 OFFCURVE",
"55 0 CURVE SMOOTH",
"272 0 LINE SMOOTH",
"388 0 OFFCURVE",
"484 53 OFFCURVE",
"484 195 CURVE SMOOTH"
);
},
{
closed = 1;
nodes = (
"322 109 OFFCURVE",
"273 104 OFFCURVE",
"240 104 CURVE SMOOTH",
"200 104 LINE SMOOTH",
"192 104 OFFCURVE",
"192 105 OFFCURVE",
"192 111 CURVE SMOOTH",
"192 281 LINE SMOOTH",
"192 287 OFFCURVE",
"193 287 OFFCURVE",
"199 287 CURVE SMOOTH",
"227 287 LINE SMOOTH",
"288 287 OFFCURVE",
"322 278 OFFCURVE",
"322 196 CURVE SMOOTH"
);
},
{
closed = 1;
nodes = (
"316 422 OFFCURVE",
"291 404 OFFCURVE",
"238 404 CURVE SMOOTH",
"200 404 LINE SMOOTH",
"193 404 OFFCURVE",
"192 405 OFFCURVE",
"192 411 CURVE SMOOTH",
"192 560 LINE SMOOTH",
"192 568 OFFCURVE",
"193 569 OFFCURVE",
"199 569 CURVE SMOOTH",
"201 569 LINE SMOOTH",
"276 569 OFFCURVE",
"316 560 OFFCURVE",
"316 492 CURVE SMOOTH"
);
}
);
width = 524;
}
);
note = B;
unicode = 0042;
},
{
glyphname = C;
lastChange = "2021-04-12 09:28:31 +0000";
layers = (
{
anchors = (
{
name = bottom;
position = "{277, 0}";
},
{
name = top;
position = "{296, 672}";
}
);
background = {
paths = (
{
closed = 1;
nodes = (
"411 34 LINE SMOOTH",
"411 39 OFFCURVE",
"410 42 OFFCURVE",
"406 40 CURVE SMOOTH",
"392 32 OFFCURVE",
"359 20 OFFCURVE",
"312 20 CURVE SMOOTH",
"131 20 OFFCURVE",
"104 224 OFFCURVE",
"104 349 CURVE SMOOTH",
"104 498 OFFCURVE",
"149 650 OFFCURVE",
"312 650 CURVE SMOOTH",
"359 650 OFFCURVE",
"392 638 OFFCURVE",
"406 630 CURVE SMOOTH",
"410 628 OFFCURVE",
"411 631 OFFCURVE",
"411 636 CURVE SMOOTH",
"411 658 LINE SMOOTH",
"411 662 OFFCURVE",
"409 666 OFFCURVE",
"403 668 CURVE SMOOTH",
"377 676 OFFCURVE",
"326 680 OFFCURVE",
"307 680 CURVE SMOOTH",
"158 680 OFFCURVE",
"70 566 OFFCURVE",
"70 335 CURVE SMOOTH",
"70 106 OFFCURVE",
"164 -9 OFFCURVE",
"307 -9 CURVE SMOOTH",
"326 -9 OFFCURVE",
"377 -6 OFFCURVE",
"403 2 CURVE",
"409 5 OFFCURVE",
"411 8 OFFCURVE",
"411 12 CURVE SMOOTH"
);
}
);
};
layerId = "707362F1-A677-446A-8636-E10BE3A7FAFF";
paths = (
{
closed = 1;
nodes = (
"411 34 LINE SMOOTH",
"411 39 OFFCURVE",
"410 42 OFFCURVE",
"406 40 CURVE SMOOTH",
"392 32 OFFCURVE",
"359 20 OFFCURVE",
"312 20 CURVE SMOOTH",
"131 20 OFFCURVE",
"104 224 OFFCURVE",
"104 349 CURVE SMOOTH",
"104 498 OFFCURVE",
"149 650 OFFCURVE",
"312 650 CURVE SMOOTH",
"359 650 OFFCURVE",
"392 638 OFFCURVE",
"406 630 CURVE SMOOTH",
"410 628 OFFCURVE",
"411 631 OFFCURVE",
"411 636 CURVE SMOOTH",
"411 658 LINE SMOOTH",
"411 662 OFFCURVE",
"409 666 OFFCURVE",
"403 668 CURVE SMOOTH",
"377 676 OFFCURVE",
"326 680 OFFCURVE",
"307 680 CURVE SMOOTH",
"158 680 OFFCURVE",
"70 566 OFFCURVE",
"70 335 CURVE SMOOTH",
"70 106 OFFCURVE",
"164 -9 OFFCURVE",
"307 -9 CURVE SMOOTH",
"326 -9 OFFCURVE",
"377 -6 OFFCURVE",
"403 2 CURVE",
"409 5 OFFCURVE",
"411 8 OFFCURVE",
"411 12 CURVE SMOOTH"
);
}
);
width = 471;
},
{
anchors = (
{
name = bottom;
position = "{288, 0}";
},
{
name = top;
position = "{294, 673}";
}
);
background = {
paths = (
{
closed = 1;
nodes = (
"443 124 LINE SMOOTH",
"443 146 OFFCURVE",
"435 147 OFFCURVE",
"405 129 CURVE SMOOTH",
"386 117 OFFCURVE",
"351 107 OFFCURVE",
"319 107 CURVE SMOOTH",
"209 107 OFFCURVE",
"190 242 OFFCURVE",
"190 348 CURVE SMOOTH",
"190 472 OFFCURVE",
"219 563 OFFCURVE",
"319 563 CURVE SMOOTH",
"345 563 OFFCURVE",
"380 555 OFFCURVE",
"409 536 CURVE SMOOTH",
"432 520 OFFCURVE",
"443 523 OFFCURVE",
"443 543 CURVE SMOOTH",
"443 642 LINE SMOOTH",
"443 656 OFFCURVE",
"431 661 OFFCURVE",
"411 667 CURVE SMOOTH",
"382 676 OFFCURVE",
"326 680 OFFCURVE",
"307 680 CURVE SMOOTH",
"136 680 OFFCURVE",
"35 562 OFFCURVE",
"35 335 CURVE SMOOTH",
"35 111 OFFCURVE",
"143 -8 OFFCURVE",
"307 -8 CURVE SMOOTH",
"326 -8 OFFCURVE",
"382 -6 OFFCURVE",
"411 4 CURVE SMOOTH",
"431 9 OFFCURVE",
"443 20 OFFCURVE",
"443 39 CURVE SMOOTH"
);
}
);
};
layerId = "D1BC8BBB-1669-4C46-BC21-42BF6808B2B9";
paths = (
{
closed = 1;
nodes = (
"443 124 LINE SMOOTH",
"443 146 OFFCURVE",
"435 147 OFFCURVE",
"405 129 CURVE SMOOTH",
"386 117 OFFCURVE",
"351 107 OFFCURVE",
"319 107 CURVE SMOOTH",
"209 107 OFFCURVE",
"190 242 OFFCURVE",
"190 348 CURVE SMOOTH",
"190 472 OFFCURVE",
"219 563 OFFCURVE",
"319 563 CURVE SMOOTH",
"345 563 OFFCURVE",
"380 555 OFFCURVE",
"409 536 CURVE SMOOTH",
"432 520 OFFCURVE",
"443 523 OFFCURVE",
"443 543 CURVE SMOOTH",
"443 642 LINE SMOOTH",
"443 656 OFFCURVE",
"431 661 OFFCURVE",
"411 667 CURVE SMOOTH",
"382 676 OFFCURVE",
"326 680 OFFCURVE",
"307 680 CURVE SMOOTH",
"136 680 OFFCURVE",
"35 562 OFFCURVE",
"35 335 CURVE SMOOTH",
"35 111 OFFCURVE",
"143 -8 OFFCURVE",
"307 -8 CURVE SMOOTH",
"326 -8 OFFCURVE",
"382 -6 OFFCURVE",
"411 4 CURVE SMOOTH",
"431 9 OFFCURVE",
"443 20 OFFCURVE",
"443 39 CURVE SMOOTH"
);
}
);
width = 473;
}
);
note = C;
unicode = 0043;
},
{
glyphname = D;
lastChange = "2021-04-12 09:29:18 +0000";
layers = (
{
anchors = (
{
name = bottom;
position = "{235, 0}";
},
{
name = center;
position = "{276, 336}";
},
{
name = top;
position = "{251, 672}";
}
);
background = {
paths = (
{
closed = 1;
nodes = (
"507 641 OFFCURVE",
"383 673 OFFCURVE",
"290 673 CURVE SMOOTH",
"84 673 LINE SMOOTH",
"81 673 OFFCURVE",
"80 671 OFFCURVE",
"80 669 CURVE SMOOTH",
"80 4 LINE SMOOTH",
"80 1 OFFCURVE",
"81 0 OFFCURVE",
"84 0 CURVE SMOOTH",
"290 0 LINE SMOOTH",
"366 0 OFFCURVE",
"507 54 OFFCURVE",
"507 347 CURVE SMOOTH"
);
},
{
closed = 1;
nodes = (
"474 81 OFFCURVE",
"353 29 OFFCURVE",
"277 29 CURVE SMOOTH",
"118 29 LINE SMOOTH",
"114 29 OFFCURVE",
"113 31 OFFCURVE",
"113 34 CURVE SMOOTH",
"113 638 LINE SMOOTH",
"113 641 OFFCURVE",
"114 643 OFFCURVE",
"118 643 CURVE SMOOTH",
"295 643 LINE SMOOTH",
"368 643 OFFCURVE",
"474 614 OFFCURVE",
"474 347 CURVE SMOOTH"
);
}
);
};
layerId = "707362F1-A677-446A-8636-E10BE3A7FAFF";
paths = (
{
closed = 1;
nodes = (
"507 641 OFFCURVE",
"383 673 OFFCURVE",
"290 673 CURVE SMOOTH",
"84 673 LINE SMOOTH",
"81 673 OFFCURVE",
"80 671 OFFCURVE",
"80 669 CURVE SMOOTH",
"80 4 LINE SMOOTH",
"80 1 OFFCURVE",
"81 0 OFFCURVE",
"84 0 CURVE SMOOTH",
"290 0 LINE SMOOTH",
"366 0 OFFCURVE",
"507 54 OFFCURVE",
"507 347 CURVE SMOOTH"
);
},
{
closed = 1;
nodes = (
"474 81 OFFCURVE",
"353 29 OFFCURVE",
"277 29 CURVE SMOOTH",
"118 29 LINE SMOOTH",
"114 29 OFFCURVE",
"113 31 OFFCURVE",
"113 34 CURVE SMOOTH",
"113 638 LINE SMOOTH",
"113 641 OFFCURVE",
"114 643 OFFCURVE",
"118 643 CURVE SMOOTH",
"295 643 LINE SMOOTH",
"368 643 OFFCURVE",
"474 614 OFFCURVE",
"474 347 CURVE SMOOTH"
);
}
);
width = 552;
},
{
anchors = (
{
name = bottom;
position = "{282, 0}";
},
{
name = center;
position = "{282, 337}";
},
{
name = top;
position = "{282, 673}";
}
);
background = {
paths = (
{
closed = 1;
nodes = (
"528 638 OFFCURVE",
"366 673 OFFCURVE",
"241 673 CURVE SMOOTH",
"55 673 LINE SMOOTH",
"47 673 OFFCURVE",
"40 667 OFFCURVE",
"40 658 CURVE SMOOTH",
"40 14 LINE SMOOTH",
"40 6 OFFCURVE",
"47 0 OFFCURVE",
"55 0 CURVE SMOOTH",
"241 0 LINE SMOOTH",
"344 0 OFFCURVE",
"528 57 OFFCURVE",
"528 346 CURVE SMOOTH"
);
},
{
closed = 1;
nodes = (
"378 131 OFFCURVE",
"278 116 OFFCURVE",
"218 116 CURVE SMOOTH",
"201 116 LINE SMOOTH",
"193 116 OFFCURVE",
"192 116 OFFCURVE",
"192 126 CURVE SMOOTH",
"192 548 LINE SMOOTH",
"192 557 OFFCURVE",
"192 557 OFFCURVE",
"204 557 CURVE SMOOTH",
"234 557 LINE SMOOTH",
"291 557 OFFCURVE",
"378 560 OFFCURVE",
"378 346 CURVE SMOOTH"
);
}
);
};
layerId = "D1BC8BBB-1669-4C46-BC21-42BF6808B2B9";
paths = (
{
closed = 1;
nodes = (
"528 638 OFFCURVE",
"366 673 OFFCURVE",
"241 673 CURVE SMOOTH",
"55 673 LINE SMOOTH",
"47 673 OFFCURVE",
"40 667 OFFCURVE",
"40 658 CURVE SMOOTH",
"40 14 LINE SMOOTH",
"40 6 OFFCURVE",
"47 0 OFFCURVE",
"55 0 CURVE SMOOTH",
"241 0 LINE SMOOTH",
"344 0 OFFCURVE",
"528 57 OFFCURVE",
"528 346 CURVE SMOOTH"
);
},
{
closed = 1;
nodes = (
"378 131 OFFCURVE",
"278 116 OFFCURVE",
"218 116 CURVE SMOOTH",
"201 116 LINE SMOOTH",
"193 116 OFFCURVE",
"192 116 OFFCURVE",
"192 126 CURVE SMOOTH",
"192 548 LINE SMOOTH",
"192 557 OFFCURVE",
"192 557 OFFCURVE",
"204 557 CURVE SMOOTH",
"234 557 LINE SMOOTH",
"291 557 OFFCURVE",
"378 560 OFFCURVE",
"378 346 CURVE SMOOTH"
);
}
);
width = 563;
}
);
note = D;
unicode = 0044;
},
{
glyphname = E;
lastChange = "2021-04-12 10:05:20 +0000";
layers = (
{
anchors = (
{
name = bottom;
position = "{220, 0}";
},
{
name = ogonek;
position = "{231, 10}";
},
{
name = top;
position = "{220, 672}";
},
{
name = topleft;
position = "{20, 672}";
}
);
background = {
paths = (
{
closed = 1;
nodes = (
"377 0 LINE SMOOTH",
"379 0 OFFCURVE",
"380 1 OFFCURVE",
"380 4 CURVE SMOOTH",
"380 26 LINE SMOOTH",
"380 28 OFFCURVE",
"379 29 OFFCURVE",
"377 29 CURVE SMOOTH",
"110 29 LINE SMOOTH",
"103 29 OFFCURVE",
"103 32 OFFCURVE",
"103 38 CURVE SMOOTH",
"103 317 LINE SMOOTH",
"103 322 OFFCURVE",
"104 324 OFFCURVE",
"109 324 CURVE SMOOTH",
"332 324 LINE SMOOTH",
"334 324 OFFCURVE",
"335 326 OFFCURVE",
"335 328 CURVE SMOOTH",
"335 350 LINE SMOOTH",
"335 353 OFFCURVE",
"334 354 OFFCURVE",
"332 354 CURVE SMOOTH",
"110 354 LINE SMOOTH",
"107 354 OFFCURVE",
"103 358 OFFCURVE",
"103 361 CURVE SMOOTH",
"103 636 LINE SMOOTH",
"103 640 OFFCURVE",
"103 643 OFFCURVE",
"109 643 CURVE SMOOTH",
"377 643 LINE SMOOTH",
"379 643 OFFCURVE",
"380 644 OFFCURVE",
"380 647 CURVE SMOOTH",
"380 669 LINE SMOOTH",
"380 671 OFFCURVE",
"379 673 OFFCURVE",
"377 673 CURVE SMOOTH",
"74 673 LINE SMOOTH",
"71 673 OFFCURVE",
"70 671 OFFCURVE",
"70 669 CURVE SMOOTH",
"70 4 LINE SMOOTH",
"70 1 OFFCURVE",
"71 0 OFFCURVE",
"74 0 CURVE SMOOTH"
);
}
);
};
layerId = "707362F1-A677-446A-8636-E10BE3A7FAFF";
paths = (
{
closed = 1;
nodes = (
"377 0 LINE SMOOTH",
"379 0 OFFCURVE",
"380 1 OFFCURVE",
"380 4 CURVE SMOOTH",
"380 26 LINE SMOOTH",
"380 28 OFFCURVE",
"379 29 OFFCURVE",
"377 29 CURVE SMOOTH",
"110 29 LINE SMOOTH",
"103 29 OFFCURVE",
"103 32 OFFCURVE",
"103 38 CURVE SMOOTH",
"103 317 LINE SMOOTH",
"103 322 OFFCURVE",
"104 324 OFFCURVE",
"109 324 CURVE SMOOTH",
"332 324 LINE SMOOTH",
"334 324 OFFCURVE",
"335 326 OFFCURVE",
"335 328 CURVE SMOOTH",
"335 350 LINE SMOOTH",
"335 353 OFFCURVE",
"334 354 OFFCURVE",
"332 354 CURVE SMOOTH",
"110 354 LINE SMOOTH",
"107 354 OFFCURVE",
"103 358 OFFCURVE",
"103 361 CURVE SMOOTH",
"103 636 LINE SMOOTH",
"103 640 OFFCURVE",
"103 643 OFFCURVE",
"109 643 CURVE SMOOTH",
"377 643 LINE SMOOTH",
"379 643 OFFCURVE",
"380 644 OFFCURVE",
"380 647 CURVE SMOOTH",
"380 669 LINE SMOOTH",
"380 671 OFFCURVE",
"379 673 OFFCURVE",
"377 673 CURVE SMOOTH",
"74 673 LINE SMOOTH",
"71 673 OFFCURVE",
"70 671 OFFCURVE",
"70 669 CURVE SMOOTH",
"70 4 LINE SMOOTH",
"70 1 OFFCURVE",
"71 0 OFFCURVE",
"74 0 CURVE SMOOTH"
);
}
);
width = 440;
},
{
anchors = (
{
name = bottom;
position = "{222, 0}";
},
{
name = ogonek;
position = "{233, 10}";
},
{
name = top;
position = "{222, 673}";
},
{
name = topleft;
position = "{20, 673}";
}
);
background = {
paths = (
{
closed = 1;
nodes = (
"391 0 LINE SMOOTH",
"411 0 OFFCURVE",
"414 0 OFFCURVE",
"414 22 CURVE SMOOTH",
"414 94 LINE SMOOTH",
"414 114 OFFCURVE",
"414 116 OFFCURVE",
"392 116 CURVE SMOOTH",
"200 116 LINE SMOOTH",
"192 116 OFFCURVE",
"192 117 OFFCURVE",
"192 125 CURVE SMOOTH",
"192 275 LINE SMOOTH",
"192 282 OFFCURVE",
"193 282 OFFCURVE",
"200 282 CURVE SMOOTH",
"350 282 LINE SMOOTH",
"369 282 OFFCURVE",
"370 283 OFFCURVE",
"370 303 CURVE SMOOTH",
"370 374 LINE SMOOTH",
"370 395 OFFCURVE",
"370 396 OFFCURVE",
"350 396 CURVE SMOOTH",
"200 396 LINE SMOOTH",
"192 396 OFFCURVE",
"192 396 OFFCURVE",
"192 405 CURVE SMOOTH",
"192 549 LINE SMOOTH",
"192 557 OFFCURVE",
"192 557 OFFCURVE",
"201 557 CURVE SMOOTH",
"395 557 LINE SMOOTH",
"411 557 OFFCURVE",
"414 557 OFFCURVE",
"414 576 CURVE SMOOTH",
"414 656 LINE SMOOTH",
"414 673 OFFCURVE",
"414 673 OFFCURVE",
"395 673 CURVE SMOOTH",
"55 673 LINE SMOOTH",
"47 673 OFFCURVE",
"40 667 OFFCURVE",
"40 658 CURVE SMOOTH",
"40 14 LINE SMOOTH",
"40 6 OFFCURVE",
"47 0 OFFCURVE",
"55 0 CURVE SMOOTH"
);
}
);
};
layerId = "D1BC8BBB-1669-4C46-BC21-42BF6808B2B9";
paths = (
{
closed = 1;
nodes = (
"391 0 LINE SMOOTH",
"411 0 OFFCURVE",
"414 0 OFFCURVE",
"414 22 CURVE SMOOTH",
"414 94 LINE SMOOTH",
"414 114 OFFCURVE",
"414 116 OFFCURVE",
"392 116 CURVE SMOOTH",
"200 116 LINE SMOOTH",
"192 116 OFFCURVE",
"192 117 OFFCURVE",
"192 125 CURVE SMOOTH",
"192 275 LINE SMOOTH",
"192 282 OFFCURVE",
"193 282 OFFCURVE",
"200 282 CURVE SMOOTH",
"350 282 LINE SMOOTH",
"369 282 OFFCURVE",
"370 283 OFFCURVE",
"370 303 CURVE SMOOTH",
"370 374 LINE SMOOTH",
"370 395 OFFCURVE",
"370 396 OFFCURVE",
"350 396 CURVE SMOOTH",
"200 396 LINE SMOOTH",
"192 396 OFFCURVE",
"192 396 OFFCURVE",
"192 405 CURVE SMOOTH",
"192 549 LINE SMOOTH",
"192 557 OFFCURVE",
"192 557 OFFCURVE",
"201 557 CURVE SMOOTH",
"395 557 LINE SMOOTH",
"411 557 OFFCURVE",
"414 557 OFFCURVE",
"414 576 CURVE SMOOTH",
"414 656 LINE SMOOTH",
"414 673 OFFCURVE",
"414 673 OFFCURVE",
"395 673 CURVE SMOOTH",
"55 673 LINE SMOOTH",
"47 673 OFFCURVE",
"40 667 OFFCURVE",
"40 658 CURVE SMOOTH",
"40 14 LINE SMOOTH",
"40 6 OFFCURVE",
"47 0 OFFCURVE",
"55 0 CURVE SMOOTH"
);
}
);
width = 444;
}
);
note = E;
unicode = 0045;
},
{
glyphname = F;
lastChange = "2021-04-12 08:36:05 +0000";
layers = (
{
anchors = (
{
name = bottom;
position = "{205, 0}";
},
{
name = top;
position = "{205, 672}";
}
);
background = {
paths = (
{
closed = 1;
nodes = (
"109 0 LINE SMOOTH",
"112 0 OFFCURVE",
"113 1 OFFCURVE",
"113 4 CURVE SMOOTH",
"113 317 LINE SMOOTH",
"113 322 OFFCURVE",
"114 324 OFFCURVE",
"119 324 CURVE SMOOTH",
"330 324 LINE SMOOTH",
"333 324 OFFCURVE",
"334 326 OFFCURVE",
"334 328 CURVE SMOOTH",
"334 350 LINE SMOOTH",
"334 353 OFFCURVE",
"333 354 OFFCURVE",
"330 354 CURVE SMOOTH",
"120 354 LINE SMOOTH",
"117 354 OFFCURVE",
"113 358 OFFCURVE",
"113 361 CURVE SMOOTH",
"113 636 LINE SMOOTH",
"113 640 OFFCURVE",
"113 643 OFFCURVE",
"119 643 CURVE SMOOTH",
"387 643 LINE SMOOTH",
"389 643 OFFCURVE",
"390 644 OFFCURVE",
"390 647 CURVE SMOOTH",
"390 669 LINE SMOOTH",
"390 671 OFFCURVE",
"389 673 OFFCURVE",
"387 673 CURVE SMOOTH",
"84 673 LINE SMOOTH",
"81 673 OFFCURVE",
"80 671 OFFCURVE",
"80 669 CURVE SMOOTH",
"80 4 LINE SMOOTH",
"80 1 OFFCURVE",
"81 0 OFFCURVE",
"84 0 CURVE SMOOTH"
);
}
);
};
layerId = "707362F1-A677-446A-8636-E10BE3A7FAFF";
paths = (
{
closed = 1;
nodes = (
"109 0 LINE SMOOTH",
"112 0 OFFCURVE",
"113 1 OFFCURVE",
"113 4 CURVE SMOOTH",
"113 317 LINE SMOOTH",
"113 322 OFFCURVE",
"114 324 OFFCURVE",
"119 324 CURVE SMOOTH",
"330 324 LINE SMOOTH",
"333 324 OFFCURVE",
"334 326 OFFCURVE",
"334 328 CURVE SMOOTH",
"334 350 LINE SMOOTH",
"334 353 OFFCURVE",
"333 354 OFFCURVE",
"330 354 CURVE SMOOTH",
"120 354 LINE SMOOTH",
"117 354 OFFCURVE",
"113 358 OFFCURVE",
"113 361 CURVE SMOOTH",
"113 636 LINE SMOOTH",
"113 640 OFFCURVE",
"113 643 OFFCURVE",
"119 643 CURVE SMOOTH",
"387 643 LINE SMOOTH",
"389 643 OFFCURVE",
"390 644 OFFCURVE",
"390 647 CURVE SMOOTH",
"390 669 LINE SMOOTH",
"390 671 OFFCURVE",
"389 673 OFFCURVE",
"387 673 CURVE SMOOTH",
"84 673 LINE SMOOTH",
"81 673 OFFCURVE",
"80 671 OFFCURVE",
"80 669 CURVE SMOOTH",
"80 4 LINE SMOOTH",
"80 1 OFFCURVE",
"81 0 OFFCURVE",
"84 0 CURVE SMOOTH"
);
}
);
width = 410;
},
{
anchors = (
{
name = bottom;
position = "{212, 0}";
},
{
name = top;
position = "{212, 673}";
}
);
background = {
paths = (
{
closed = 1;
nodes = (
"169 0 LINE SMOOTH",
"191 0 OFFCURVE",
"192 0 OFFCURVE",
"192 22 CURVE SMOOTH",
"192 275 LINE SMOOTH",
"192 282 OFFCURVE",
"193 282 OFFCURVE",
"200 282 CURVE SMOOTH",
"350 282 LINE SMOOTH",
"369 282 OFFCURVE",
"370 283 OFFCURVE",
"370 303 CURVE SMOOTH",
"370 374 LINE SMOOTH",
"370 395 OFFCURVE",
"370 396 OFFCURVE",
"350 396 CURVE SMOOTH",
"200 396 LINE SMOOTH",
"192 396 OFFCURVE",
"192 396 OFFCURVE",
"192 405 CURVE SMOOTH",
"192 549 LINE SMOOTH",
"192 557 OFFCURVE",
"192 557 OFFCURVE",
"201 557 CURVE SMOOTH",
"395 557 LINE SMOOTH",
"411 557 OFFCURVE",
"414 557 OFFCURVE",
"414 576 CURVE SMOOTH",
"414 656 LINE SMOOTH",
"414 673 OFFCURVE",
"414 673 OFFCURVE",
"395 673 CURVE SMOOTH",
"55 673 LINE SMOOTH",
"47 673 OFFCURVE",
"40 667 OFFCURVE",
"40 658 CURVE SMOOTH",
"40 14 LINE SMOOTH",
"40 6 OFFCURVE",
"47 0 OFFCURVE",
"55 0 CURVE SMOOTH"
);
}
);
};
layerId = "D1BC8BBB-1669-4C46-BC21-42BF6808B2B9";
paths = (
{
closed = 1;
nodes = (
"169 0 LINE SMOOTH",
"191 0 OFFCURVE",
"192 0 OFFCURVE",
"192 22 CURVE SMOOTH",
"192 275 LINE SMOOTH",
"192 282 OFFCURVE",
"193 282 OFFCURVE",
"200 282 CURVE SMOOTH",
"350 282 LINE SMOOTH",
"369 282 OFFCURVE",
"370 283 OFFCURVE",
"370 303 CURVE SMOOTH",
"370 374 LINE SMOOTH",
"370 395 OFFCURVE",
"370 396 OFFCURVE",
"350 396 CURVE SMOOTH",
"200 396 LINE SMOOTH",
"192 396 OFFCURVE",
"192 396 OFFCURVE",
"192 405 CURVE SMOOTH",
"192 549 LINE SMOOTH",
"192 557 OFFCURVE",
"192 557 OFFCURVE",
"201 557 CURVE SMOOTH",
"395 557 LINE SMOOTH",
"411 557 OFFCURVE",
"414 557 OFFCURVE",
"414 576 CURVE SMOOTH",
"414 656 LINE SMOOTH",
"414 673 OFFCURVE",
"414 673 OFFCURVE",
"395 673 CURVE SMOOTH",
"55 673 LINE SMOOTH",
"47 673 OFFCURVE",
"40 667 OFFCURVE",
"40 658 CURVE SMOOTH",
"40 14 LINE SMOOTH",
"40 6 OFFCURVE",
"47 0 OFFCURVE",
"55 0 CURVE SMOOTH"
);
}
);
width = 424;
}
);
note = F;
unicode = 0046;
},
{
glyphname = G;
lastChange = "2021-04-12 09:30:03 +0000";
layers = (
{
anchors = (
{
name = bottom;
position = "{311, 0}";
},
{
name = top;
position = "{345, 672}";
}
);
background = {
paths = (
{
closed = 1;
nodes = (
"481 347 LINE SMOOTH",
"481 354 OFFCURVE",
"480 356 OFFCURVE",
"472 356 CURVE SMOOTH",
"269 356 LINE SMOOTH",
"268 356 OFFCURVE",
"266 353 OFFCURVE",
"266 353 CURVE",
"266 330 LINE",
"266 330 OFFCURVE",
"268 327 OFFCURVE",
"269 327 CURVE SMOOTH",
"437 327 LINE SMOOTH",
"444 327 OFFCURVE",
"448 324 OFFCURVE",
"448 315 CURVE SMOOTH",
"448 32 LINE",
"441 26 OFFCURVE",
"419 22 OFFCURVE",
"387 22 CURVE SMOOTH",
"260 22 OFFCURVE",
"84 81 OFFCURVE",
"84 332 CURVE SMOOTH",
"84 572 OFFCURVE",
"258 649 OFFCURVE",
"360 649 CURVE SMOOTH",
"398 649 OFFCURVE",
"438 648 OFFCURVE",
"471 629 CURVE SMOOTH",
"475 627 OFFCURVE",
"476 630 OFFCURVE",
"476 635 CURVE SMOOTH",
"476 657 LINE SMOOTH",
"476 661 OFFCURVE",
"474 664 OFFCURVE",
"468 667 CURVE",
"439 676 OFFCURVE",
"391 678 OFFCURVE",
"360 678 CURVE SMOOTH",
"185 678 OFFCURVE",
"50 545 OFFCURVE",
"50 324 CURVE SMOOTH",
"50 107 OFFCURVE",
"179 -6 OFFCURVE",
"403 -6 CURVE SMOOTH",
"436 -6 OFFCURVE",
"481 -4 OFFCURVE",
"481 18 CURVE SMOOTH"
);
}
);
};
layerId = "707362F1-A677-446A-8636-E10BE3A7FAFF";
paths = (
{
closed = 1;
nodes = (
"481 347 LINE SMOOTH",
"481 354 OFFCURVE",
"480 356 OFFCURVE",
"472 356 CURVE SMOOTH",
"269 356 LINE SMOOTH",
"268 356 OFFCURVE",
"266 353 OFFCURVE",
"266 353 CURVE",
"266 330 LINE",
"266 330 OFFCURVE",
"268 327 OFFCURVE",
"269 327 CURVE SMOOTH",
"437 327 LINE SMOOTH",
"444 327 OFFCURVE",
"448 324 OFFCURVE",
"448 315 CURVE SMOOTH",
"448 32 LINE",
"441 26 OFFCURVE",
"419 22 OFFCURVE",
"387 22 CURVE SMOOTH",
"260 22 OFFCURVE",
"84 81 OFFCURVE",
"84 332 CURVE SMOOTH",
"84 572 OFFCURVE",
"258 649 OFFCURVE",
"360 649 CURVE SMOOTH",
"398 649 OFFCURVE",
"438 648 OFFCURVE",
"471 629 CURVE SMOOTH",
"475 627 OFFCURVE",
"476 630 OFFCURVE",
"476 635 CURVE SMOOTH",
"476 657 LINE SMOOTH",
"476 661 OFFCURVE",
"474 664 OFFCURVE",
"468 667 CURVE",
"439 676 OFFCURVE",
"391 678 OFFCURVE",
"360 678 CURVE SMOOTH",
"185 678 OFFCURVE",
"50 545 OFFCURVE",
"50 324 CURVE SMOOTH",
"50 107 OFFCURVE",
"179 -6 OFFCURVE",
"403 -6 CURVE SMOOTH",
"436 -6 OFFCURVE",
"481 -4 OFFCURVE",
"481 18 CURVE SMOOTH"
);
}
);
width = 541;
},
{
anchors = (
{
name = bottom;
position = "{294, 0}";
},
{
name = top;
position = "{294, 673}";
}
);
background = {
paths = (
{
closed = 1;
nodes = (
"537 375 LINE SMOOTH",
"537 398 OFFCURVE",
"537 399 OFFCURVE",
"515 399 CURVE SMOOTH",
"276 399 LINE SMOOTH",
"260 399 OFFCURVE",
"258 396 OFFCURVE",
"258 380 CURVE SMOOTH",
"258 299 LINE SMOOTH",
"258 283 OFFCURVE",
"261 283 OFFCURVE",
"276 283 CURVE SMOOTH",
"379 283 LINE SMOOTH",
"386 283 OFFCURVE",
"386 282 OFFCURVE",
"386 276 CURVE SMOOTH",
"386 124 LINE SMOOTH",
"386 114 OFFCURVE",
"380 110 OFFCURVE",
"365 110 CURVE SMOOTH",
"311 110 OFFCURVE",
"196 132 OFFCURVE",
"196 332 CURVE SMOOTH",
"196 526 OFFCURVE",
"319 562 OFFCURVE",
"392 562 CURVE SMOOTH",
"437 562 OFFCURVE",
"469 552 OFFCURVE",
"502 533 CURVE SMOOTH",
"518 523 OFFCURVE",
"533 529 OFFCURVE",
"533 558 CURVE SMOOTH",
"533 638 LINE SMOOTH",
"533 658 OFFCURVE",
"525 657 OFFCURVE",
"504 664 CURVE SMOOTH",
"474 674 OFFCURVE",
"416 678 OFFCURVE",
"359 678 CURVE SMOOTH",
"170 678 OFFCURVE",
"35 544 OFFCURVE",
"35 326 CURVE SMOOTH",
"35 109 OFFCURVE",
"155 -6 OFFCURVE",
"399 -6 CURVE SMOOTH",
"476 -6 OFFCURVE",
"537 5 OFFCURVE",
"537 34 CURVE SMOOTH"
);
}
);
};
layerId = "D1BC8BBB-1669-4C46-BC21-42BF6808B2B9";
paths = (
{
closed = 1;
nodes = (
"537 375 LINE SMOOTH",
"537 398 OFFCURVE",
"537 399 OFFCURVE",
"515 399 CURVE SMOOTH",
"276 399 LINE SMOOTH",
"260 399 OFFCURVE",
"258 396 OFFCURVE",
"258 380 CURVE SMOOTH",
"258 299 LINE SMOOTH",
"258 283 OFFCURVE",
"261 283 OFFCURVE",
"276 283 CURVE SMOOTH",
"379 283 LINE SMOOTH",
"386 283 OFFCURVE",
"386 282 OFFCURVE",
"386 276 CURVE SMOOTH",
"386 124 LINE SMOOTH",
"386 114 OFFCURVE",
"380 110 OFFCURVE",
"365 110 CURVE SMOOTH",
"311 110 OFFCURVE",
"196 132 OFFCURVE",
"196 332 CURVE SMOOTH",
"196 526 OFFCURVE",
"319 562 OFFCURVE",
"392 562 CURVE SMOOTH",
"437 562 OFFCURVE",
"469 552 OFFCURVE",
"502 533 CURVE SMOOTH",
"518 523 OFFCURVE",
"533 529 OFFCURVE",
"533 558 CURVE SMOOTH",
"533 638 LINE SMOOTH",
"533 658 OFFCURVE",
"525 657 OFFCURVE",
"504 664 CURVE SMOOTH",
"474 674 OFFCURVE",
"416 678 OFFCURVE",
"359 678 CURVE SMOOTH",
"170 678 OFFCURVE",
"35 544 OFFCURVE",
"35 326 CURVE SMOOTH",
"35 109 OFFCURVE",
"155 -6 OFFCURVE",
"399 -6 CURVE SMOOTH",
"476 -6 OFFCURVE",
"537 5 OFFCURVE",
"537 34 CURVE SMOOTH"
);
}
);
width = 587;
}
);
note = G;
unicode = 0047;
},
{
glyphname = H;
lastChange = "2021-04-12 08:36:05 +0000";
layers = (
{
anchors = (
{
name = bottom;
position = "{295, 0}";
},
{
name = center;
position = "{295, 336}";
},
{
name = top;
position = "{295, 672}";
},
{
name = topleft;
position = "{20, 672}";
}
);
background = {
paths = (
{
closed = 1;
nodes = (
"102 0 OFFCURVE",
"110 0 OFFCURVE",
"119 0 CURVE SMOOTH",
"121 0 OFFCURVE",
"122 1 OFFCURVE",
"122 4 CURVE SMOOTH",
"104 131 OFFCURVE",
"107 282 OFFCURVE",
"108 316 CURVE SMOOTH",
"108 322 OFFCURVE",
"112 324 OFFCURVE",
"116 324 CURVE SMOOTH",
"235 324 OFFCURVE",
"355 324 OFFCURVE",
"474 324 CURVE SMOOTH",
"477 324 OFFCURVE",
"481 322 OFFCURVE",
"481 316 CURVE SMOOTH",
"482 288 OFFCURVE",
"486 132 OFFCURVE",
"468 4 CURVE SMOOTH",
"468 1 OFFCURVE",
"469 0 OFFCURVE",
"471 0 CURVE SMOOTH",
"480 0 OFFCURVE",
"488 0 OFFCURVE",
"497 0 CURVE SMOOTH",
"499 0 OFFCURVE",
"501 1 OFFCURVE",
"501 4 CURVE SMOOTH",
"509 70 OFFCURVE",
"515 202 OFFCURVE",
"515 334 CURVE SMOOTH",
"515 468 OFFCURVE",
"508 604 OFFCURVE",
"500 669 CURVE SMOOTH",
"500 671 OFFCURVE",
"497 673 OFFCURVE",
"496 673 CURVE SMOOTH",
"488 673 OFFCURVE",
"479 673 OFFCURVE",
"471 673 CURVE SMOOTH",
"469 673 OFFCURVE",
"468 671 OFFCURVE",
"467 670 CURVE",
"481 507 OFFCURVE",
"481 372 OFFCURVE",
"481 362 CURVE SMOOTH",
"481 354 OFFCURVE",
"477 354 OFFCURVE",
"474 354 CURVE SMOOTH",
"354 354 OFFCURVE",
"235 354 OFFCURVE",
"115 354 CURVE SMOOTH",
"112 354 OFFCURVE",
"109 355 OFFCURVE",
"109 362 CURVE SMOOTH",
"109 381 OFFCURVE",
"109 509 OFFCURVE",
"123 670 CURVE",
"122 671 OFFCURVE",
"121 673 OFFCURVE",
"119 673 CURVE SMOOTH",
"111 673 OFFCURVE",
"102 673 OFFCURVE",
"94 673 CURVE SMOOTH",
"93 673 OFFCURVE",
"90 671 OFFCURVE",
"90 669 CURVE SMOOTH",
"82 604 OFFCURVE",
"75 468 OFFCURVE",
"75 334 CURVE SMOOTH",
"75 202 OFFCURVE",
"81 70 OFFCURVE",
"89 4 CURVE SMOOTH",
"89 1 OFFCURVE",
"92 0 OFFCURVE",
"93 0 CURVE SMOOTH"
);
}
);
};
layerId = "707362F1-A677-446A-8636-E10BE3A7FAFF";
paths = (
{
closed = 1;
nodes = (
"102 0 OFFCURVE",
"110 0 OFFCURVE",
"119 0 CURVE SMOOTH",
"121 0 OFFCURVE",
"122 1 OFFCURVE",
"122 4 CURVE SMOOTH",
"104 131 OFFCURVE",
"107 282 OFFCURVE",
"108 316 CURVE SMOOTH",
"108 322 OFFCURVE",
"112 324 OFFCURVE",
"116 324 CURVE SMOOTH",
"235 324 OFFCURVE",
"355 324 OFFCURVE",
"474 324 CURVE SMOOTH",
"477 324 OFFCURVE",
"481 322 OFFCURVE",
"481 316 CURVE SMOOTH",
"482 288 OFFCURVE",
"486 132 OFFCURVE",
"468 4 CURVE SMOOTH",
"468 1 OFFCURVE",
"469 0 OFFCURVE",
"471 0 CURVE SMOOTH",
"480 0 OFFCURVE",
"488 0 OFFCURVE",
"497 0 CURVE SMOOTH",
"499 0 OFFCURVE",
"501 1 OFFCURVE",
"501 4 CURVE SMOOTH",
"509 70 OFFCURVE",
"515 202 OFFCURVE",
"515 334 CURVE SMOOTH",
"515 468 OFFCURVE",
"508 604 OFFCURVE",
"500 669 CURVE SMOOTH",
"500 671 OFFCURVE",
"497 673 OFFCURVE",
"496 673 CURVE SMOOTH",
"488 673 OFFCURVE",
"479 673 OFFCURVE",
"471 673 CURVE SMOOTH",
"469 673 OFFCURVE",
"468 671 OFFCURVE",
"467 670 CURVE",
"481 507 OFFCURVE",
"481 372 OFFCURVE",
"481 362 CURVE SMOOTH",
"481 354 OFFCURVE",
"477 354 OFFCURVE",
"474 354 CURVE SMOOTH",
"354 354 OFFCURVE",
"235 354 OFFCURVE",
"115 354 CURVE SMOOTH",
"112 354 OFFCURVE",
"109 355 OFFCURVE",
"109 362 CURVE SMOOTH",
"109 381 OFFCURVE",
"109 509 OFFCURVE",
"123 670 CURVE",
"122 671 OFFCURVE",
"121 673 OFFCURVE",
"119 673 CURVE SMOOTH",
"111 673 OFFCURVE",
"102 673 OFFCURVE",
"94 673 CURVE SMOOTH",
"93 673 OFFCURVE",
"90 671 OFFCURVE",
"90 669 CURVE SMOOTH",
"82 604 OFFCURVE",
"75 468 OFFCURVE",
"75 334 CURVE SMOOTH",
"75 202 OFFCURVE",
"81 70 OFFCURVE",
"89 4 CURVE SMOOTH",
"89 1 OFFCURVE",
"92 0 OFFCURVE",
"93 0 CURVE SMOOTH"
);
}
);
width = 590;
},
{
anchors = (
{
name = bottom;
position = "{291, 0}";
},
{
name = center;
position = "{291, 337}";
},
{
name = top;
position = "{291, 673}";
},
{
name = topleft;
position = "{20, 673}";
}
);
background = {
paths = (
{
closed = 1;
nodes = (
"119 0 OFFCURVE",
"160 0 OFFCURVE",
"200 0 CURVE SMOOTH",
"207 0 OFFCURVE",
"208 4 OFFCURVE",
"207 14 CURVE SMOOTH",
"199 77 OFFCURVE",
"193 173 OFFCURVE",
"192 270 CURVE SMOOTH",
"192 281 OFFCURVE",
"193 282 OFFCURVE",
"205 282 CURVE SMOOTH",
"262 282 OFFCURVE",
"319 282 OFFCURVE",
"376 282 CURVE SMOOTH",
"388 282 OFFCURVE",
"390 281 OFFCURVE",
"390 270 CURVE SMOOTH",
"389 173 OFFCURVE",
"382 77 OFFCURVE",
"374 14 CURVE SMOOTH",
"373 4 OFFCURVE",
"374 0 OFFCURVE",
"381 0 CURVE SMOOTH",
"421 0 OFFCURVE",
"462 0 OFFCURVE",
"502 0 CURVE SMOOTH",
"513 0 OFFCURVE",
"524 1 OFFCURVE",
"525 14 CURVE SMOOTH",
"533 85 OFFCURVE",
"541 217 OFFCURVE",
"541 348 CURVE SMOOTH",
"542 468 OFFCURVE",
"537 587 OFFCURVE",
"522 658 CURVE",
"521 667 OFFCURVE",
"509 673 OFFCURVE",
"501 673 CURVE SMOOTH",
"461 673 OFFCURVE",
"420 673 OFFCURVE",
"380 673 CURVE SMOOTH",
"373 673 OFFCURVE",
"370 668 OFFCURVE",
"371 658 CURVE SMOOTH",
"377 612 OFFCURVE",
"384 511 OFFCURVE",
"389 412 CURVE SMOOTH",
"389 398 OFFCURVE",
"384 396 OFFCURVE",
"374 396 CURVE SMOOTH",
"319 396 OFFCURVE",
"263 396 OFFCURVE",
"208 396 CURVE SMOOTH",
"192 396 OFFCURVE",
"193 398 OFFCURVE",
"193 412 CURVE SMOOTH",
"197 511 OFFCURVE",
"204 612 OFFCURVE",
"210 658 CURVE SMOOTH",
"211 668 OFFCURVE",
"208 673 OFFCURVE",
"201 673 CURVE SMOOTH",
"161 673 OFFCURVE",
"120 673 OFFCURVE",
"80 673 CURVE SMOOTH",
"72 673 OFFCURVE",
"60 667 OFFCURVE",
"59 658 CURVE",
"44 587 OFFCURVE",
"40 470 OFFCURVE",
"40 351 CURVE SMOOTH",
"41 219 OFFCURVE",
"48 86 OFFCURVE",
"56 14 CURVE SMOOTH",
"57 1 OFFCURVE",
"69 0 OFFCURVE",
"79 0 CURVE SMOOTH"
);
}
);
};
layerId = "D1BC8BBB-1669-4C46-BC21-42BF6808B2B9";
paths = (
{
closed = 1;
nodes = (
"119 0 OFFCURVE",
"160 0 OFFCURVE",
"200 0 CURVE SMOOTH",
"207 0 OFFCURVE",
"208 4 OFFCURVE",
"207 14 CURVE SMOOTH",
"199 77 OFFCURVE",
"193 173 OFFCURVE",
"192 270 CURVE SMOOTH",
"192 281 OFFCURVE",
"193 282 OFFCURVE",
"205 282 CURVE SMOOTH",
"262 282 OFFCURVE",
"319 282 OFFCURVE",
"376 282 CURVE SMOOTH",
"388 282 OFFCURVE",
"390 281 OFFCURVE",
"390 270 CURVE SMOOTH",
"389 173 OFFCURVE",
"382 77 OFFCURVE",
"374 14 CURVE SMOOTH",
"373 4 OFFCURVE",
"374 0 OFFCURVE",
"381 0 CURVE SMOOTH",
"421 0 OFFCURVE",
"462 0 OFFCURVE",
"502 0 CURVE SMOOTH",
"513 0 OFFCURVE",
"524 1 OFFCURVE",
"525 14 CURVE SMOOTH",
"533 85 OFFCURVE",
"541 217 OFFCURVE",
"541 348 CURVE SMOOTH",
"542 468 OFFCURVE",
"537 587 OFFCURVE",
"522 658 CURVE SMOOTH",
"521 667 OFFCURVE",
"509 673 OFFCURVE",
"501 673 CURVE SMOOTH",
"461 673 OFFCURVE",
"420 673 OFFCURVE",
"380 673 CURVE SMOOTH",
"373 673 OFFCURVE",
"370 668 OFFCURVE",
"371 658 CURVE SMOOTH",
"377 612 OFFCURVE",
"384 511 OFFCURVE",
"389 412 CURVE SMOOTH",
"389 398 OFFCURVE",
"384 396 OFFCURVE",
"374 396 CURVE SMOOTH",
"319 396 OFFCURVE",
"263 396 OFFCURVE",
"208 396 CURVE SMOOTH",
"192 396 OFFCURVE",
"193 398 OFFCURVE",
"193 412 CURVE SMOOTH",
"197 511 OFFCURVE",
"204 612 OFFCURVE",
"210 658 CURVE SMOOTH",
"211 668 OFFCURVE",
"208 673 OFFCURVE",
"201 673 CURVE SMOOTH",
"161 673 OFFCURVE",
"120 673 OFFCURVE",
"80 673 CURVE SMOOTH",
"72 673 OFFCURVE",
"60 667 OFFCURVE",
"59 658 CURVE SMOOTH",
"44 587 OFFCURVE",
"40 470 OFFCURVE",
"40 351 CURVE SMOOTH",
"41 219 OFFCURVE",
"48 86 OFFCURVE",
"56 14 CURVE SMOOTH",
"57 1 OFFCURVE",
"69 0 OFFCURVE",
"79 0 CURVE SMOOTH"
);
}
);
width = 581;
}
);
note = H;
unicode = 0048;
},
{
glyphname = I;
lastChange = "2021-04-12 10:05:03 +0000";
layers = (
{
anchors = (
{
name = bottom;
position = "{97, 0}";
},
{
name = ogonek;
position = "{100, 10}";
},
{
name = top;
position = "{97, 672}";
},
{
name = topleft;
position = "{20, 672}";
}
);
background = {
paths = (
{
closed = 1;
nodes = (
"113 669 LINE SMOOTH",
"113 671 OFFCURVE",
"111 673 OFFCURVE",
"109 673 CURVE SMOOTH",
"83 673 LINE SMOOTH",
"81 673 OFFCURVE",
"80 671 OFFCURVE",
"80 669 CURVE SMOOTH",
"80 4 LINE SMOOTH",
"80 1 OFFCURVE",
"81 0 OFFCURVE",
"83 0 CURVE SMOOTH",
"109 0 LINE SMOOTH",
"111 0 OFFCURVE",
"113 1 OFFCURVE",
"113 4 CURVE SMOOTH"
);
}
);
};
layerId = "707362F1-A677-446A-8636-E10BE3A7FAFF";
paths = (
{
closed = 1;
nodes = (
"113 669 LINE SMOOTH",
"113 671 OFFCURVE",
"111 673 OFFCURVE",
"109 673 CURVE SMOOTH",
"83 673 LINE SMOOTH",
"81 673 OFFCURVE",
"80 671 OFFCURVE",
"80 669 CURVE SMOOTH",
"80 4 LINE SMOOTH",
"80 1 OFFCURVE",
"81 0 OFFCURVE",
"83 0 CURVE SMOOTH",
"109 0 LINE SMOOTH",
"111 0 OFFCURVE",
"113 1 OFFCURVE",
"113 4 CURVE SMOOTH"
);
}
);
width = 193;
},
{
anchors = (
{
name = bottom;
position = "{126, 0}";
},
{
name = ogonek;
position = "{132, 10}";
},
{
name = top;
position = "{126, 673}";
},
{
name = topleft;
position = "{20, 673}";
}
);
background = {
paths = (
{
closed = 1;
nodes = (
"201 658 LINE SMOOTH",
"201 667 OFFCURVE",
"194 673 OFFCURVE",
"186 673 CURVE SMOOTH",
"66 673 LINE SMOOTH",
"56 673 OFFCURVE",
"50 667 OFFCURVE",
"50 658 CURVE SMOOTH",
"50 14 LINE SMOOTH",
"50 6 OFFCURVE",
"56 0 OFFCURVE",
"66 0 CURVE SMOOTH",
"186 0 LINE SMOOTH",
"194 0 OFFCURVE",
"201 6 OFFCURVE",
"201 14 CURVE SMOOTH"
);
}
);
};
layerId = "D1BC8BBB-1669-4C46-BC21-42BF6808B2B9";
paths = (
{
closed = 1;
nodes = (
"201 658 LINE SMOOTH",
"201 667 OFFCURVE",
"194 673 OFFCURVE",
"186 673 CURVE SMOOTH",
"66 673 LINE SMOOTH",
"56 673 OFFCURVE",
"50 667 OFFCURVE",
"50 658 CURVE SMOOTH",
"50 14 LINE SMOOTH",
"50 6 OFFCURVE",
"56 0 OFFCURVE",
"66 0 CURVE SMOOTH",
"186 0 LINE SMOOTH",
"194 0 OFFCURVE",
"201 6 OFFCURVE",
"201 14 CURVE SMOOTH"
);
}
);
width = 251;
}
);
note = I;
unicode = 0049;
},
{
glyphname = J;
lastChange = "2021-04-12 08:36:05 +0000";
layers = (
{
anchors = (
{
name = bottom;
position = "{148, 0}";
},
{
name = top;
position = "{148, 672}";
}
);
background = {
paths = (
{
closed = 1;
nodes = (
"225 669 LINE SMOOTH",
"225 671 OFFCURVE",
"224 673 OFFCURVE",
"222 673 CURVE SMOOTH",
"196 673 LINE SMOOTH",
"193 673 OFFCURVE",
"192 671 OFFCURVE",
"192 669 CURVE SMOOTH",
"192 138 LINE SMOOTH",
"192 52 OFFCURVE",
"160 27 OFFCURVE",
"101 27 CURVE SMOOTH",
"77 27 OFFCURVE",
"52 27 OFFCURVE",
"28 27 CURVE SMOOTH",
"22 27 OFFCURVE",
"20 26 OFFCURVE",
"20 22 CURVE SMOOTH",
"20 4 LINE SMOOTH",
"20 1 OFFCURVE",
"21 0 OFFCURVE",
"26 0 CURVE SMOOTH",
"103 -1 LINE SMOOTH",
"192 -2 OFFCURVE",
"225 34 OFFCURVE",
"225 168 CURVE SMOOTH"
);
}
);
};
layerId = "707362F1-A677-446A-8636-E10BE3A7FAFF";
paths = (
{
closed = 1;
nodes = (
"225 669 LINE SMOOTH",
"225 671 OFFCURVE",
"224 673 OFFCURVE",
"222 673 CURVE SMOOTH",
"196 673 LINE SMOOTH",
"193 673 OFFCURVE",
"192 671 OFFCURVE",
"192 669 CURVE SMOOTH",
"192 138 LINE SMOOTH",
"192 52 OFFCURVE",
"160 27 OFFCURVE",
"101 27 CURVE SMOOTH",
"77 27 OFFCURVE",
"52 27 OFFCURVE",
"28 27 CURVE SMOOTH",
"22 27 OFFCURVE",
"20 26 OFFCURVE",
"20 22 CURVE SMOOTH",
"20 4 LINE SMOOTH",
"20 1 OFFCURVE",
"21 0 OFFCURVE",
"26 0 CURVE SMOOTH",
"103 -1 LINE SMOOTH",
"192 -2 OFFCURVE",
"225 34 OFFCURVE",
"225 168 CURVE SMOOTH"
);
}
);
width = 295;
},
{
anchors = (
{
name = bottom;
position = "{161, 0}";
},
{
name = top;
position = "{161, 673}";
}
);
background = {
paths = (
{
closed = 1;
nodes = (
"281 658 LINE SMOOTH",
"281 667 OFFCURVE",
"273 673 OFFCURVE",
"266 673 CURVE SMOOTH",
"144 673 LINE SMOOTH",
"136 673 OFFCURVE",
"130 667 OFFCURVE",
"130 658 CURVE SMOOTH",
"130 178 LINE SMOOTH",
"129 126 OFFCURVE",
"122 113 OFFCURVE",
"85 113 CURVE SMOOTH",
"71 113 OFFCURVE",
"35 116 OFFCURVE",
"20 117 CURVE SMOOTH",
"13 118 OFFCURVE",
"10 114 OFFCURVE",
"10 104 CURVE SMOOTH",
"10 19 LINE SMOOTH",
"10 4 OFFCURVE",
"36 0 OFFCURVE",
"50 0 CURVE SMOOTH",
"124 0 LINE SMOOTH",
"240 0 OFFCURVE",
"281 44 OFFCURVE",
"281 184 CURVE SMOOTH"
);
}
);
};
layerId = "D1BC8BBB-1669-4C46-BC21-42BF6808B2B9";
paths = (
{
closed = 1;
nodes = (
"281 658 LINE SMOOTH",
"281 667 OFFCURVE",
"273 673 OFFCURVE",
"266 673 CURVE SMOOTH",
"144 673 LINE SMOOTH",
"136 673 OFFCURVE",
"130 667 OFFCURVE",
"130 658 CURVE SMOOTH",
"130 178 LINE SMOOTH",
"129 126 OFFCURVE",
"122 113 OFFCURVE",
"85 113 CURVE SMOOTH",
"71 113 OFFCURVE",
"35 116 OFFCURVE",
"20 117 CURVE SMOOTH",
"13 118 OFFCURVE",
"10 114 OFFCURVE",
"10 104 CURVE SMOOTH",
"10 19 LINE SMOOTH",
"10 4 OFFCURVE",
"36 0 OFFCURVE",
"50 0 CURVE SMOOTH",
"124 0 LINE SMOOTH",
"240 0 OFFCURVE",
"281 44 OFFCURVE",
"281 184 CURVE SMOOTH"
);
}
);
width = 321;
}
);
note = J;
unicode = 004A;
},
{
glyphname = K;
lastChange = "2021-04-12 08:36:05 +0000";
layers = (
{
anchors = (
{
name = bottom;
position = "{255, 0}";
},
{
name = top;
position = "{255, 672}";
}
);
background = {
paths = (
{
closed = 1;
nodes = (
"82 0 OFFCURVE",
"91 0 OFFCURVE",
"99 0 CURVE SMOOTH",
"102 0 OFFCURVE",
"103 1 OFFCURVE",
"103 4 CURVE SMOOTH",
"103 108 OFFCURVE",
"103 213 OFFCURVE",
"103 317 CURVE SMOOTH",
"103 324 OFFCURVE",
"110 324 OFFCURVE",
"110 324 CURVE",
"146 324 OFFCURVE",
"183 324 OFFCURVE",
"219 324 CURVE SMOOTH",
"223 324 OFFCURVE",
"229 323 OFFCURVE",
"230 313 CURVE SMOOTH",
"239 234 OFFCURVE",
"302 99 OFFCURVE",
"364 46 CURVE SMOOTH",
"397 18 OFFCURVE",
"438 0 OFFCURVE",
"487 0 CURVE SMOOTH",
"490 0 OFFCURVE",
"490 1 OFFCURVE",
"490 5 CURVE SMOOTH",
"490 24 LINE SMOOTH",
"490 26 OFFCURVE",
"485 28 OFFCURVE",
"482 28 CURVE SMOOTH",
"448 28 OFFCURVE",
"416 44 OFFCURVE",
"387 68 CURVE SMOOTH",
"331 119 OFFCURVE",
"267 247 OFFCURVE",
"261 327 CURVE SMOOTH",
"261 333 OFFCURVE",
"261 340 OFFCURVE",
"267 352 CURVE SMOOTH",
"321 458 OFFCURVE",
"375 563 OFFCURVE",
"429 669 CURVE",
"430 670 OFFCURVE",
"428 673 OFFCURVE",
"425 673 CURVE SMOOTH",
"416 673 OFFCURVE",
"408 673 OFFCURVE",
"399 673 CURVE SMOOTH",
"397 673 OFFCURVE",
"397 670 OFFCURVE",
"396 669 CURVE",
"343 567 OFFCURVE",
"291 465 OFFCURVE",
"238 363 CURVE",
"234 358 OFFCURVE",
"230 354 OFFCURVE",
"220 354 CURVE SMOOTH",
"110 354 LINE SMOOTH",
"103 354 OFFCURVE",
"103 358 OFFCURVE",
"103 362 CURVE SMOOTH",
"103 464 OFFCURVE",
"103 567 OFFCURVE",
"103 669 CURVE SMOOTH",
"103 671 OFFCURVE",
"102 673 OFFCURVE",
"99 673 CURVE SMOOTH",
"91 673 OFFCURVE",
"82 673 OFFCURVE",
"74 673 CURVE SMOOTH",
"71 673 OFFCURVE",
"70 671 OFFCURVE",
"70 669 CURVE SMOOTH",
"70 447 OFFCURVE",
"70 226 OFFCURVE",
"70 4 CURVE SMOOTH",
"70 1 OFFCURVE",
"71 0 OFFCURVE",
"74 0 CURVE SMOOTH"
);
}
);
};
layerId = "707362F1-A677-446A-8636-E10BE3A7FAFF";
paths = (
{
closed = 1;
nodes = (
"82 0 OFFCURVE",
"91 0 OFFCURVE",
"99 0 CURVE SMOOTH",
"102 0 OFFCURVE",
"103 1 OFFCURVE",
"103 4 CURVE SMOOTH",
"103 108 OFFCURVE",
"103 213 OFFCURVE",
"103 317 CURVE SMOOTH",
"103 324 OFFCURVE",
"110 324 OFFCURVE",
"110 324 CURVE",
"146 324 OFFCURVE",
"183 324 OFFCURVE",
"219 324 CURVE SMOOTH",
"223 324 OFFCURVE",
"229 323 OFFCURVE",
"230 313 CURVE SMOOTH",
"239 234 OFFCURVE",
"302 99 OFFCURVE",
"364 46 CURVE SMOOTH",
"397 18 OFFCURVE",
"438 0 OFFCURVE",
"487 0 CURVE SMOOTH",
"490 0 OFFCURVE",
"490 1 OFFCURVE",
"490 5 CURVE SMOOTH",
"490 24 LINE SMOOTH",
"490 26 OFFCURVE",
"485 28 OFFCURVE",
"482 28 CURVE SMOOTH",
"448 28 OFFCURVE",
"416 44 OFFCURVE",
"387 68 CURVE SMOOTH",
"331 119 OFFCURVE",
"267 247 OFFCURVE",
"261 327 CURVE SMOOTH",
"261 333 OFFCURVE",
"261 340 OFFCURVE",
"267 352 CURVE SMOOTH",
"321 458 OFFCURVE",
"375 563 OFFCURVE",
"429 669 CURVE",
"430 670 OFFCURVE",
"428 673 OFFCURVE",
"425 673 CURVE SMOOTH",
"416 673 OFFCURVE",
"408 673 OFFCURVE",
"399 673 CURVE SMOOTH",
"397 673 OFFCURVE",
"397 670 OFFCURVE",
"396 669 CURVE",
"343 567 OFFCURVE",
"291 465 OFFCURVE",
"238 363 CURVE",
"234 358 OFFCURVE",
"230 354 OFFCURVE",
"220 354 CURVE SMOOTH",
"110 354 LINE SMOOTH",
"103 354 OFFCURVE",
"103 358 OFFCURVE",
"103 362 CURVE SMOOTH",
"103 464 OFFCURVE",
"103 567 OFFCURVE",
"103 669 CURVE SMOOTH",
"103 671 OFFCURVE",
"102 673 OFFCURVE",
"99 673 CURVE SMOOTH",
"91 673 OFFCURVE",
"82 673 OFFCURVE",
"74 673 CURVE SMOOTH",
"71 673 OFFCURVE",
"70 671 OFFCURVE",
"70 669 CURVE SMOOTH",
"70 447 OFFCURVE",
"70 226 OFFCURVE",
"70 4 CURVE SMOOTH",
"70 1 OFFCURVE",
"71 0 OFFCURVE",
"74 0 CURVE SMOOTH"
);
}
);
width = 510;
},
{
anchors = (
{
name = bottom;
position = "{278, 0}";
},
{
name = top;
position = "{278, 673}";
}
);
background = {
paths = (
{
closed = 1;
nodes = (
"52 0 OFFCURVE",
"180 0 OFFCURVE",
"188 0 CURVE SMOOTH",
"191 0 OFFCURVE",
"192 1 OFFCURVE",
"192 4 CURVE SMOOTH",
"192 108 OFFCURVE",
"192 127 OFFCURVE",
"192 231 CURVE SMOOTH",
"192 238 OFFCURVE",
"195 238 OFFCURVE",
"195 238 CURVE",
"196 238 OFFCURVE",
"195 238 OFFCURVE",
"197 238 CURVE SMOOTH",
"198 238 OFFCURVE",
"205 233 OFFCURVE",
"209 223 CURVE SMOOTH",
"236 149 OFFCURVE",
"274 92 OFFCURVE",
"321 55 CURVE SMOOTH",
"380 9 OFFCURVE",
"435 0 OFFCURVE",
"527 0 CURVE SMOOTH",
"530 0 OFFCURVE",
"530 1 OFFCURVE",
"530 5 CURVE SMOOTH",
"530 133 LINE SMOOTH",
"530 135 OFFCURVE",
"525 137 OFFCURVE",
"522 137 CURVE SMOOTH",
"473 137 OFFCURVE",
"440 155 OFFCURVE",
"413 182 CURVE SMOOTH",
"371 223 OFFCURVE",
"336 285 OFFCURVE",
"336 337 CURVE SMOOTH",
"336 346 OFFCURVE",
"337 355 OFFCURVE",
"342 367 CURVE SMOOTH",
"387 473 OFFCURVE",
"428 542 OFFCURVE",
"486 634 CURVE",
"500 665 OFFCURVE",
"505 673 OFFCURVE",
"489 673 CURVE SMOOTH",
"480 673 OFFCURVE",
"359 673 OFFCURVE",
"350 673 CURVE SMOOTH",
"342 673 OFFCURVE",
"336 671 OFFCURVE",
"329 659 CURVE",
"276 557 OFFCURVE",
"260 535 OFFCURVE",
"207 433 CURVE",
"204 428 OFFCURVE",
"200 422 OFFCURVE",
"197 422 CURVE SMOOTH",
"195 422 LINE SMOOTH",
"192 422 OFFCURVE",
"192 426 OFFCURVE",
"192 430 CURVE SMOOTH",
"192 532 OFFCURVE",
"192 567 OFFCURVE",
"192 669 CURVE SMOOTH",
"192 671 OFFCURVE",
"191 673 OFFCURVE",
"188 673 CURVE SMOOTH",
"180 673 OFFCURVE",
"52 673 OFFCURVE",
"44 673 CURVE SMOOTH",
"41 673 OFFCURVE",
"40 671 OFFCURVE",
"40 669 CURVE SMOOTH",
"40 447 OFFCURVE",
"40 226 OFFCURVE",
"40 4 CURVE SMOOTH",
"40 1 OFFCURVE",
"41 0 OFFCURVE",
"44 0 CURVE SMOOTH"
);
}
);
};
layerId = "D1BC8BBB-1669-4C46-BC21-42BF6808B2B9";
paths = (
{
closed = 1;
nodes = (
"52 0 OFFCURVE",
"180 0 OFFCURVE",
"188 0 CURVE SMOOTH",
"191 0 OFFCURVE",
"192 1 OFFCURVE",
"192 4 CURVE SMOOTH",
"192 108 OFFCURVE",
"192 127 OFFCURVE",
"192 231 CURVE SMOOTH",
"192 238 OFFCURVE",
"195 238 OFFCURVE",
"195 238 CURVE",
"196 238 OFFCURVE",
"195 238 OFFCURVE",
"197 238 CURVE SMOOTH",
"198 238 OFFCURVE",
"205 233 OFFCURVE",
"209 223 CURVE SMOOTH",
"236 149 OFFCURVE",
"274 92 OFFCURVE",
"321 55 CURVE SMOOTH",
"380 9 OFFCURVE",
"435 0 OFFCURVE",
"527 0 CURVE SMOOTH",
"530 0 OFFCURVE",
"530 1 OFFCURVE",
"530 5 CURVE SMOOTH",
"530 133 LINE SMOOTH",
"530 135 OFFCURVE",
"525 137 OFFCURVE",
"522 137 CURVE SMOOTH",
"473 137 OFFCURVE",
"440 155 OFFCURVE",
"413 182 CURVE SMOOTH",
"371 223 OFFCURVE",
"336 285 OFFCURVE",
"336 337 CURVE SMOOTH",
"336 346 OFFCURVE",
"337 355 OFFCURVE",
"342 367 CURVE SMOOTH",
"387 473 OFFCURVE",
"428 542 OFFCURVE",
"486 634 CURVE",
"500 665 OFFCURVE",
"505 673 OFFCURVE",
"489 673 CURVE SMOOTH",
"480 673 OFFCURVE",
"359 673 OFFCURVE",
"350 673 CURVE SMOOTH",
"342 673 OFFCURVE",
"336 671 OFFCURVE",
"329 659 CURVE",
"276 557 OFFCURVE",
"260 535 OFFCURVE",
"207 433 CURVE",
"204 428 OFFCURVE",
"200 422 OFFCURVE",
"197 422 CURVE SMOOTH",
"195 422 LINE SMOOTH",
"192 422 OFFCURVE",
"192 426 OFFCURVE",
"192 430 CURVE SMOOTH",
"192 532 OFFCURVE",
"192 567 OFFCURVE",
"192 669 CURVE SMOOTH",
"192 671 OFFCURVE",
"191 673 OFFCURVE",
"188 673 CURVE SMOOTH",
"180 673 OFFCURVE",
"52 673 OFFCURVE",
"44 673 CURVE SMOOTH",
"41 673 OFFCURVE",
"40 671 OFFCURVE",
"40 669 CURVE SMOOTH",
"40 447 OFFCURVE",
"40 226 OFFCURVE",
"40 4 CURVE SMOOTH",
"40 1 OFFCURVE",
"41 0 OFFCURVE",
"44 0 CURVE SMOOTH"
);
}
);
width = 555;
}
);
note = K;
unicode = 004B;
},
{
glyphname = L;
lastChange = "2021-04-12 10:31:56 +0000";
layers = (
{
anchors = (
{
name = bottom;
position = "{213, 0}";
},
{
name = center;
position = "{213, 336}";
},
{
name = top;
position = "{101, 672}";
},
{
name = topright;
position = "{233, 672}";
}
);
background = {
paths = (
{
closed = 1;
nodes = (
"386 0 LINE SMOOTH",
"389 0 OFFCURVE",
"390 1 OFFCURVE",
"390 4 CURVE SMOOTH",
"390 26 LINE SMOOTH",
"390 28 OFFCURVE",
"389 29 OFFCURVE",
"386 29 CURVE SMOOTH",
"120 29 LINE SMOOTH",
"113 29 OFFCURVE",
"113 32 OFFCURVE",
"113 38 CURVE SMOOTH",
"113 669 LINE SMOOTH",
"113 671 OFFCURVE",
"111 673 OFFCURVE",
"109 673 CURVE SMOOTH",
"83 673 LINE SMOOTH",
"81 673 OFFCURVE",
"80 671 OFFCURVE",
"80 669 CURVE SMOOTH",
"80 4 LINE SMOOTH",
"80 1 OFFCURVE",
"81 0 OFFCURVE",
"83 0 CURVE SMOOTH"
);
}
);
};
layerId = "707362F1-A677-446A-8636-E10BE3A7FAFF";
paths = (
{
closed = 1;
nodes = (
"386 0 LINE SMOOTH",
"389 0 OFFCURVE",
"390 1 OFFCURVE",
"390 4 CURVE SMOOTH",
"390 26 LINE SMOOTH",
"390 28 OFFCURVE",
"389 29 OFFCURVE",
"386 29 CURVE SMOOTH",
"120 29 LINE SMOOTH",
"113 29 OFFCURVE",
"113 32 OFFCURVE",
"113 38 CURVE SMOOTH",
"113 669 LINE SMOOTH",
"113 671 OFFCURVE",
"111 673 OFFCURVE",
"109 673 CURVE SMOOTH",
"83 673 LINE SMOOTH",
"81 673 OFFCURVE",
"80 671 OFFCURVE",
"80 669 CURVE SMOOTH",
"80 4 LINE SMOOTH",
"80 1 OFFCURVE",
"81 0 OFFCURVE",
"83 0 CURVE SMOOTH"
);
}
);
width = 425;
},
{
anchors = (
{
name = bottom;
position = "{217, 0}";
},
{
name = center;
position = "{217, 337}";
},
{
name = top;
position = "{112, 673}";
},
{
name = topright;
position = "{291, 673}";
}
);
background = {
paths = (
{
closed = 1;
nodes = (
"391 0 LINE SMOOTH",
"412 0 OFFCURVE",
"413 0 OFFCURVE",
"413 22 CURVE SMOOTH",
"413 94 LINE SMOOTH",
"413 114 OFFCURVE",
"413 116 OFFCURVE",
"392 116 CURVE SMOOTH",
"200 116 LINE SMOOTH",
"191 116 OFFCURVE",
"191 117 OFFCURVE",
"191 125 CURVE SMOOTH",
"191 654 LINE SMOOTH",
"191 669 OFFCURVE",
"188 673 OFFCURVE",
"172 673 CURVE SMOOTH",
"56 673 LINE SMOOTH",
"46 673 OFFCURVE",
"40 667 OFFCURVE",
"40 658 CURVE SMOOTH",
"40 14 LINE SMOOTH",
"40 6 OFFCURVE",
"46 0 OFFCURVE",
"56 0 CURVE SMOOTH"
);
}
);
};
layerId = "D1BC8BBB-1669-4C46-BC21-42BF6808B2B9";
paths = (
{
closed = 1;
nodes = (
"391 0 LINE SMOOTH",
"412 0 OFFCURVE",
"413 0 OFFCURVE",
"413 22 CURVE SMOOTH",
"413 94 LINE SMOOTH",
"413 114 OFFCURVE",
"413 116 OFFCURVE",
"392 116 CURVE SMOOTH",
"200 116 LINE SMOOTH",
"191 116 OFFCURVE",
"191 117 OFFCURVE",
"191 125 CURVE SMOOTH",
"191 654 LINE SMOOTH",
"191 669 OFFCURVE",
"188 673 OFFCURVE",
"172 673 CURVE SMOOTH",
"56 673 LINE SMOOTH",
"46 673 OFFCURVE",
"40 667 OFFCURVE",
"40 658 CURVE SMOOTH",
"40 14 LINE SMOOTH",
"40 6 OFFCURVE",
"46 0 OFFCURVE",
"56 0 CURVE SMOOTH"
);
}
);
width = 433;
}
);
note = L;
unicode = 004C;
},
{
glyphname = M;
lastChange = "2021-04-12 08:36:05 +0000";
layers = (
{
anchors = (
{
name = bottom;
position = "{332, 0}";
},
{
name = top;
position = "{332, 672}";
}
);
background = {
paths = (
{
closed = 1;
nodes = (
"100 673 LINE SMOOTH",
"98 673 OFFCURVE",
"97 671 OFFCURVE",
"97 669 CURVE SMOOTH",
"82 533 OFFCURVE",
"60 257 OFFCURVE",
"60 4 CURVE SMOOTH",
"60 1 OFFCURVE",
"61 0 OFFCURVE",
"64 0 CURVE SMOOTH",
"89 0 LINE SMOOTH",
"91 0 OFFCURVE",
"93 1 OFFCURVE",
"93 4 CURVE SMOOTH",
"93 186 OFFCURVE",
"110 458 OFFCURVE",
"121 588 CURVE",
"123 595 OFFCURVE",
"132 595 OFFCURVE",
"136 588 CURVE SMOOTH",
"314 278 LINE SMOOTH",
"316 275 OFFCURVE",
"318 274 OFFCURVE",
"321 274 CURVE SMOOTH",
"343 274 LINE SMOOTH",
"347 274 OFFCURVE",
"349 276 OFFCURVE",
"351 280 CURVE SMOOTH",
"528 589 LINE SMOOTH",
"532 596 OFFCURVE",
"541 599 OFFCURVE",
"543 590 CURVE",
"556 464 OFFCURVE",
"571 160 OFFCURVE",
"571 8 CURVE SMOOTH",
"571 1 OFFCURVE",
"573 0 OFFCURVE",
"574 0 CURVE SMOOTH",
"600 0 LINE SMOOTH",
"603 0 OFFCURVE",
"604 1 OFFCURVE",
"604 4 CURVE SMOOTH",
"604 267 OFFCURVE",
"582 536 OFFCURVE",
"567 669 CURVE SMOOTH",
"567 671 OFFCURVE",
"566 673 OFFCURVE",
"564 673 CURVE SMOOTH",
"540 673 LINE SMOOTH",
"538 673 OFFCURVE",
"536 670 OFFCURVE",
"533 667 CURVE",
"338 321 LINE",
"335 314 OFFCURVE",
"330 315 OFFCURVE",
"327 321 CURVE SMOOTH",
"130 669 LINE",
"128 670 OFFCURVE",
"128 673 OFFCURVE",
"126 673 CURVE SMOOTH"
);
}
);
};
layerId = "707362F1-A677-446A-8636-E10BE3A7FAFF";
paths = (
{
closed = 1;
nodes = (
"100 673 LINE SMOOTH",
"98 673 OFFCURVE",
"97 671 OFFCURVE",
"97 669 CURVE SMOOTH",
"82 533 OFFCURVE",
"60 257 OFFCURVE",
"60 4 CURVE SMOOTH",
"60 1 OFFCURVE",
"61 0 OFFCURVE",
"64 0 CURVE SMOOTH",
"89 0 LINE SMOOTH",
"91 0 OFFCURVE",
"93 1 OFFCURVE",
"93 4 CURVE SMOOTH",
"93 186 OFFCURVE",
"110 458 OFFCURVE",
"121 588 CURVE",
"123 595 OFFCURVE",
"132 595 OFFCURVE",
"136 588 CURVE SMOOTH",
"314 278 LINE SMOOTH",
"316 275 OFFCURVE",
"318 274 OFFCURVE",
"321 274 CURVE SMOOTH",
"343 274 LINE SMOOTH",
"347 274 OFFCURVE",
"349 276 OFFCURVE",
"351 280 CURVE SMOOTH",
"528 589 LINE SMOOTH",
"532 596 OFFCURVE",
"541 599 OFFCURVE",
"543 590 CURVE",
"556 464 OFFCURVE",
"571 160 OFFCURVE",
"571 8 CURVE SMOOTH",
"571 1 OFFCURVE",
"573 0 OFFCURVE",
"574 0 CURVE SMOOTH",
"600 0 LINE SMOOTH",
"603 0 OFFCURVE",
"604 1 OFFCURVE",
"604 4 CURVE SMOOTH",
"604 267 OFFCURVE",
"582 536 OFFCURVE",
"567 669 CURVE SMOOTH",
"567 671 OFFCURVE",
"566 673 OFFCURVE",
"564 673 CURVE SMOOTH",
"540 673 LINE SMOOTH",
"538 673 OFFCURVE",
"536 670 OFFCURVE",
"533 667 CURVE",
"338 321 LINE",
"335 314 OFFCURVE",
"330 315 OFFCURVE",
"327 321 CURVE SMOOTH",
"130 669 LINE",
"128 670 OFFCURVE",
"128 673 OFFCURVE",
"126 673 CURVE SMOOTH"
);
}
);
width = 664;
},
{
anchors = (
{
name = bottom;
position = "{336, 0}";
},
{
name = top;
position = "{336, 673}";
}
);
background = {
paths = (
{
closed = 1;
nodes = (
"90 673 LINE SMOOTH",
"79 673 OFFCURVE",
"77 668 OFFCURVE",
"75 658 CURVE SMOOTH",
"49 493 OFFCURVE",
"35 200 OFFCURVE",
"35 14 CURVE SMOOTH",
"35 1 OFFCURVE",
"46 0 OFFCURVE",
"54 0 CURVE SMOOTH",
"182 0 LINE SMOOTH",
"184 0 OFFCURVE",
"186 1 OFFCURVE",
"186 4 CURVE SMOOTH",
"186 186 OFFCURVE",
"189 247 OFFCURVE",
"199 362 CURVE",
"199 367 OFFCURVE",
"203 372 OFFCURVE",
"207 366 CURVE SMOOTH",
"303 215 LINE SMOOTH",
"305 212 OFFCURVE",
"307 211 OFFCURVE",
"310 211 CURVE SMOOTH",
"357 211 LINE SMOOTH",
"361 211 OFFCURVE",
"362 213 OFFCURVE",
"365 217 CURVE SMOOTH",
"463 367 LINE SMOOTH",
"467 373 OFFCURVE",
"471 376 OFFCURVE",
"473 367 CURVE",
"481 250 OFFCURVE",
"486 123 OFFCURVE",
"486 13 CURVE SMOOTH",
"486 6 OFFCURVE",
"492 0 OFFCURVE",
"493 0 CURVE SMOOTH",
"615 0 LINE SMOOTH",
"624 0 OFFCURVE",
"636 0 OFFCURVE",
"636 14 CURVE SMOOTH",
"636 197 OFFCURVE",
"619 493 OFFCURVE",
"594 658 CURVE SMOOTH",
"593 667 OFFCURVE",
"588 673 OFFCURVE",
"580 673 CURVE SMOOTH",
"510 673 LINE SMOOTH",
"496 673 OFFCURVE",
"493 673 OFFCURVE",
"487 662 CURVE",
"343 426 LINE",
"340 419 OFFCURVE",
"330 421 OFFCURVE",
"327 426 CURVE SMOOTH",
"185 662 LINE",
"180 671 OFFCURVE",
"175 673 OFFCURVE",
"161 673 CURVE SMOOTH"
);
}
);
};
layerId = "D1BC8BBB-1669-4C46-BC21-42BF6808B2B9";
paths = (
{
closed = 1;
nodes = (
"90 673 LINE SMOOTH",
"79 673 OFFCURVE",
"77 668 OFFCURVE",
"75 658 CURVE SMOOTH",
"49 493 OFFCURVE",
"35 200 OFFCURVE",
"35 14 CURVE SMOOTH",
"35 1 OFFCURVE",
"46 0 OFFCURVE",
"54 0 CURVE SMOOTH",
"182 0 LINE SMOOTH",
"184 0 OFFCURVE",
"186 1 OFFCURVE",
"186 4 CURVE SMOOTH",
"186 186 OFFCURVE",
"189 247 OFFCURVE",
"199 362 CURVE",
"199 367 OFFCURVE",
"203 372 OFFCURVE",
"207 366 CURVE SMOOTH",
"303 215 LINE SMOOTH",
"305 212 OFFCURVE",
"307 211 OFFCURVE",
"310 211 CURVE SMOOTH",
"357 211 LINE SMOOTH",
"361 211 OFFCURVE",
"362 213 OFFCURVE",
"365 217 CURVE SMOOTH",
"463 367 LINE SMOOTH",
"467 373 OFFCURVE",
"471 376 OFFCURVE",
"473 367 CURVE",
"481 250 OFFCURVE",
"486 123 OFFCURVE",
"486 13 CURVE SMOOTH",
"486 6 OFFCURVE",
"492 0 OFFCURVE",
"493 0 CURVE SMOOTH",
"615 0 LINE SMOOTH",
"624 0 OFFCURVE",
"636 0 OFFCURVE",
"636 14 CURVE SMOOTH",
"636 197 OFFCURVE",
"619 493 OFFCURVE",
"594 658 CURVE SMOOTH",
"593 667 OFFCURVE",
"588 673 OFFCURVE",
"580 673 CURVE SMOOTH",
"510 673 LINE SMOOTH",
"496 673 OFFCURVE",
"493 673 OFFCURVE",
"487 662 CURVE",
"343 426 LINE",
"340 419 OFFCURVE",
"330 421 OFFCURVE",
"327 426 CURVE SMOOTH",
"185 662 LINE",
"180 671 OFFCURVE",
"175 673 OFFCURVE",
"161 673 CURVE SMOOTH"
);
}
);
width = 671;
}
);
note = M;
unicode = 004D;
},
{
glyphname = N;
lastChange = "2021-04-12 08:36:05 +0000";
layers = (
{
anchors = (
{
name = bottom;
position = "{295, 0}";
},
{
name = top;
position = "{295, 672}";
}
);
background = {
paths = (
{
closed = 1;
nodes = (
"106 668 LINE",
"104 671 OFFCURVE",
"103 673 OFFCURVE",
"101 673 CURVE SMOOTH",
"78 673 LINE SMOOTH",
"76 673 OFFCURVE",
"74 671 OFFCURVE",
"74 669 CURVE SMOOTH",
"57 540 OFFCURVE",
"54 139 OFFCURVE",
"72 4 CURVE SMOOTH",
"72 1 OFFCURVE",
"73 0 OFFCURVE",
"76 0 CURVE SMOOTH",
"101 0 LINE SMOOTH",
"104 0 OFFCURVE",
"105 1 OFFCURVE",
"105 6 CURVE",
"85 143 OFFCURVE",
"90 470 OFFCURVE",
"104 596 CURVE SMOOTH",
"105 602 OFFCURVE",
"111 602 OFFCURVE",
"113 597 CURVE",
"485 4 LINE",
"486 1 OFFCURVE",
"487 0 OFFCURVE",
"490 0 CURVE SMOOTH",
"510 0 LINE SMOOTH",
"513 0 OFFCURVE",
"516 1 OFFCURVE",
"516 4 CURVE SMOOTH",
"533 132 OFFCURVE",
"536 533 OFFCURVE",
"518 669 CURVE SMOOTH",
"518 671 OFFCURVE",
"517 673 OFFCURVE",
"514 673 CURVE SMOOTH",
"489 673 LINE SMOOTH",
"486 673 OFFCURVE",
"485 671 OFFCURVE",
"485 667 CURVE",
"505 531 OFFCURVE",
"501 208 OFFCURVE",
"487 80 CURVE SMOOTH",
"486 72 OFFCURVE",
"480 71 OFFCURVE",
"477 77 CURVE SMOOTH"
);
}
);
};
layerId = "707362F1-A677-446A-8636-E10BE3A7FAFF";
paths = (
{
closed = 1;
nodes = (
"106 668 LINE",
"104 671 OFFCURVE",
"103 673 OFFCURVE",
"101 673 CURVE SMOOTH",
"78 673 LINE SMOOTH",
"76 673 OFFCURVE",
"74 671 OFFCURVE",
"74 669 CURVE SMOOTH",
"57 540 OFFCURVE",
"54 139 OFFCURVE",
"72 4 CURVE SMOOTH",
"72 1 OFFCURVE",
"73 0 OFFCURVE",
"76 0 CURVE SMOOTH",
"101 0 LINE SMOOTH",
"104 0 OFFCURVE",
"105 1 OFFCURVE",
"105 6 CURVE",
"85 143 OFFCURVE",
"90 470 OFFCURVE",
"104 596 CURVE SMOOTH",
"105 602 OFFCURVE",
"111 602 OFFCURVE",
"113 597 CURVE",
"485 4 LINE",
"486 1 OFFCURVE",
"487 0 OFFCURVE",
"490 0 CURVE SMOOTH",
"510 0 LINE SMOOTH",
"513 0 OFFCURVE",
"516 1 OFFCURVE",
"516 4 CURVE SMOOTH",
"533 132 OFFCURVE",
"536 533 OFFCURVE",
"518 669 CURVE SMOOTH",
"518 671 OFFCURVE",
"517 673 OFFCURVE",
"514 673 CURVE SMOOTH",
"489 673 LINE SMOOTH",
"486 673 OFFCURVE",
"485 671 OFFCURVE",
"485 667 CURVE",
"505 531 OFFCURVE",
"501 208 OFFCURVE",
"487 80 CURVE SMOOTH",
"486 72 OFFCURVE",
"480 71 OFFCURVE",
"477 77 CURVE SMOOTH"
);
}
);
width = 590;
},
{
anchors = (
{
name = bottom;
position = "{306, 0}";
},
{
name = top;
position = "{306, 673}";
}
);
background = {
paths = (
{
closed = 1;
nodes = (
"168 663 LINE",
"165 669 OFFCURVE",
"158 673 OFFCURVE",
"153 673 CURVE SMOOTH",
"80 673 LINE SMOOTH",
"72 673 OFFCURVE",
"61 667 OFFCURVE",
"59 658 CURVE SMOOTH",
"28 509 OFFCURVE",
"41 150 OFFCURVE",
"56 14 CURVE SMOOTH",
"57 1 OFFCURVE",
"69 0 OFFCURVE",
"79 0 CURVE SMOOTH",
"199 0 LINE SMOOTH",
"207 0 OFFCURVE",
"208 4 OFFCURVE",
"207 14 CURVE",
"198 85 OFFCURVE",
"193 173 OFFCURVE",
"192 363 CURVE SMOOTH",
"192 369 OFFCURVE",
"199 369 OFFCURVE",
"201 364 CURVE",
"437 18 LINE",
"444 7 OFFCURVE",
"450 0 OFFCURVE",
"456 0 CURVE SMOOTH",
"533 0 LINE SMOOTH",
"544 0 OFFCURVE",
"553 1 OFFCURVE",
"555 14 CURVE SMOOTH",
"572 150 OFFCURVE",
"584 509 OFFCURVE",
"553 658 CURVE SMOOTH",
"551 667 OFFCURVE",
"541 673 OFFCURVE",
"532 673 CURVE SMOOTH",
"409 673 LINE SMOOTH",
"403 673 OFFCURVE",
"401 668 OFFCURVE",
"402 658 CURVE",
"417 526 OFFCURVE",
"420 412 OFFCURVE",
"421 317 CURVE SMOOTH",
"421 309 OFFCURVE",
"411 309 OFFCURVE",
"407 315 CURVE SMOOTH"
);
}
);
};
layerId = "D1BC8BBB-1669-4C46-BC21-42BF6808B2B9";
paths = (
{
closed = 1;
nodes = (
"168 663 LINE",
"165 669 OFFCURVE",
"158 673 OFFCURVE",
"153 673 CURVE SMOOTH",
"80 673 LINE SMOOTH",
"72 673 OFFCURVE",
"61 667 OFFCURVE",
"59 658 CURVE SMOOTH",
"28 509 OFFCURVE",
"41 150 OFFCURVE",
"56 14 CURVE SMOOTH",
"57 1 OFFCURVE",
"69 0 OFFCURVE",
"79 0 CURVE SMOOTH",
"199 0 LINE SMOOTH",
"207 0 OFFCURVE",
"208 4 OFFCURVE",
"207 14 CURVE",
"198 85 OFFCURVE",
"193 173 OFFCURVE",
"192 363 CURVE SMOOTH",
"192 369 OFFCURVE",
"199 369 OFFCURVE",
"201 364 CURVE",
"437 18 LINE",
"444 7 OFFCURVE",
"450 0 OFFCURVE",
"456 0 CURVE SMOOTH",
"533 0 LINE SMOOTH",
"544 0 OFFCURVE",
"553 1 OFFCURVE",
"555 14 CURVE SMOOTH",
"572 150 OFFCURVE",
"584 509 OFFCURVE",
"553 658 CURVE SMOOTH",
"551 667 OFFCURVE",
"541 673 OFFCURVE",
"532 673 CURVE SMOOTH",
"409 673 LINE SMOOTH",
"403 673 OFFCURVE",
"401 668 OFFCURVE",
"402 658 CURVE",
"417 526 OFFCURVE",
"420 412 OFFCURVE",
"421 317 CURVE SMOOTH",
"421 309 OFFCURVE",
"411 309 OFFCURVE",
"407 315 CURVE SMOOTH"
);
}
);
width = 612;
}
);
note = N;
unicode = 004E;
},
{
glyphname = O;
lastChange = "2021-04-12 08:50:32 +0000";
layers = (
{
anchors = (
{
name = bottom;
position = "{313, 0}";
},
{
name = center;
position = "{313, 336}";
},
{
name = ogonek;
position = "{563, 10}";
},
{
name = top;
position = "{313, 672}";
},
{
name = topleft;
position = "{20, 672}";
},
{
name = topright;
position = "{340, 672}";
}
);
background = {
paths = (
{
closed = 1;
nodes = (
"60 110 OFFCURVE",
"113 -6 OFFCURVE",
"311 -6 CURVE SMOOTH",
"517 -6 OFFCURVE",
"565 110 OFFCURVE",
"565 334 CURVE SMOOTH",
"565 558 OFFCURVE",
"517 675 OFFCURVE",
"311 675 CURVE SMOOTH",
"113 675 OFFCURVE",
"60 558 OFFCURVE",
"60 334 CURVE SMOOTH"
);
},
{
closed = 1;
nodes = (
"94 575 OFFCURVE",
"160 644 OFFCURVE",
"310 644 CURVE SMOOTH",
"460 644 OFFCURVE",
"531 576 OFFCURVE",
"531 334 CURVE SMOOTH",
"531 92 OFFCURVE",
"460 27 OFFCURVE",
"310 27 CURVE SMOOTH",
"160 27 OFFCURVE",
"94 93 OFFCURVE",
"94 334 CURVE SMOOTH"
);
}
);
};
layerId = "707362F1-A677-446A-8636-E10BE3A7FAFF";
paths = (
{
closed = 1;
nodes = (
"60 110 OFFCURVE",
"113 -6 OFFCURVE",
"311 -6 CURVE SMOOTH",
"517 -6 OFFCURVE",
"565 110 OFFCURVE",
"565 334 CURVE SMOOTH",
"565 558 OFFCURVE",
"517 675 OFFCURVE",
"311 675 CURVE SMOOTH",
"113 675 OFFCURVE",
"60 558 OFFCURVE",
"60 334 CURVE SMOOTH"
);
},
{
closed = 1;
nodes = (
"94 575 OFFCURVE",
"160 644 OFFCURVE",
"310 644 CURVE SMOOTH",
"460 644 OFFCURVE",
"531 576 OFFCURVE",
"531 334 CURVE SMOOTH",
"531 92 OFFCURVE",
"460 27 OFFCURVE",
"310 27 CURVE SMOOTH",
"160 27 OFFCURVE",
"94 93 OFFCURVE",
"94 334 CURVE SMOOTH"
);
}
);
width = 625;
},
{
anchors = (
{
name = bottom;
position = "{318, 0}";
},
{
name = center;
position = "{318, 337}";
},
{
name = ogonek;
position = "{572, 10}";
},
{
name = top;
position = "{318, 673}";
},
{
name = topleft;
position = "{20, 673}";
},
{
name = topright;
position = "{365, 673}";
}
);
background = {
paths = (
{
closed = 1;
nodes = (
"35 116 OFFCURVE",
"94 -9 OFFCURVE",
"317 -9 CURVE SMOOTH",
"547 -9 OFFCURVE",
"600 116 OFFCURVE",
"600 334 CURVE SMOOTH",
"600 552 OFFCURVE",
"547 678 OFFCURVE",
"317 678 CURVE SMOOTH",
"94 678 OFFCURVE",
"35 552 OFFCURVE",
"35 334 CURVE SMOOTH"
);
},
{
closed = 1;
nodes = (
"192 511 OFFCURVE",
"229 557 OFFCURVE",
"315 557 CURVE SMOOTH",
"400 557 OFFCURVE",
"443 511 OFFCURVE",
"443 334 CURVE SMOOTH",
"443 157 OFFCURVE",
"400 114 OFFCURVE",
"315 114 CURVE SMOOTH",
"229 114 OFFCURVE",
"192 158 OFFCURVE",
"192 334 CURVE SMOOTH"
);
}
);
};
layerId = "D1BC8BBB-1669-4C46-BC21-42BF6808B2B9";
paths = (
{
closed = 1;
nodes = (
"35 116 OFFCURVE",
"94 -9 OFFCURVE",
"317 -9 CURVE SMOOTH",
"547 -9 OFFCURVE",
"600 116 OFFCURVE",
"600 334 CURVE SMOOTH",
"600 552 OFFCURVE",
"547 678 OFFCURVE",
"317 678 CURVE SMOOTH",
"94 678 OFFCURVE",
"35 552 OFFCURVE",
"35 334 CURVE SMOOTH"
);
},
{
closed = 1;
nodes = (
"192 511 OFFCURVE",
"229 557 OFFCURVE",
"315 557 CURVE SMOOTH",
"400 557 OFFCURVE",
"443 511 OFFCURVE",
"443 334 CURVE SMOOTH",
"443 157 OFFCURVE",
"400 114 OFFCURVE",
"315 114 CURVE SMOOTH",
"229 114 OFFCURVE",
"192 158 OFFCURVE",
"192 334 CURVE SMOOTH"
);
}
);
width = 635;
}
);
note = O;
unicode = 004F;
},
{
glyphname = P;
lastChange = "2021-04-12 08:36:05 +0000";
layers = (
{
anchors = (
{
name = bottom;
position = "{228, 0}";
},
{
name = top;
position = "{228, 672}";
}
);
background = {
paths = (
{
closed = 1;
nodes = (
"405 608 OFFCURVE",
"347 673 OFFCURVE",
"210 673 CURVE SMOOTH",
"74 673 LINE SMOOTH",
"71 673 OFFCURVE",
"70 671 OFFCURVE",
"70 669 CURVE SMOOTH",
"70 4 LINE SMOOTH",
"70 1 OFFCURVE",
"71 0 OFFCURVE",
"74 0 CURVE SMOOTH",
"99 0 LINE SMOOTH",
"102 0 OFFCURVE",
"103 1 OFFCURVE",
"103 4 CURVE SMOOTH",
"103 229 LINE SMOOTH",
"103 232 OFFCURVE",
"105 237 OFFCURVE",
"111 237 CURVE SMOOTH",
"221 237 LINE SMOOTH",
"341 237 OFFCURVE",
"405 340 OFFCURVE",
"405 466 CURVE SMOOTH"
);
},
{
closed = 1;
nodes = (
"103 634 LINE SMOOTH",
"103 641 OFFCURVE",
"104 643 OFFCURVE",
"111 643 CURVE SMOOTH",
"213 643 LINE SMOOTH",
"324 643 OFFCURVE",
"372 594 OFFCURVE",
"372 466 CURVE SMOOTH",
"372 342 OFFCURVE",
"317 267 OFFCURVE",
"216 267 CURVE SMOOTH",
"110 267 LINE SMOOTH",
"107 267 OFFCURVE",
"103 269 OFFCURVE",
"103 275 CURVE SMOOTH"
);
}
);
};
layerId = "707362F1-A677-446A-8636-E10BE3A7FAFF";
paths = (
{
closed = 1;
nodes = (
"405 608 OFFCURVE",
"347 673 OFFCURVE",
"210 673 CURVE SMOOTH",
"74 673 LINE SMOOTH",
"71 673 OFFCURVE",
"70 671 OFFCURVE",
"70 669 CURVE SMOOTH",
"70 4 LINE SMOOTH",
"70 1 OFFCURVE",
"71 0 OFFCURVE",
"74 0 CURVE SMOOTH",
"99 0 LINE SMOOTH",
"102 0 OFFCURVE",
"103 1 OFFCURVE",
"103 4 CURVE SMOOTH",
"103 229 LINE SMOOTH",
"103 232 OFFCURVE",
"105 237 OFFCURVE",
"111 237 CURVE SMOOTH",
"221 237 LINE SMOOTH",
"341 237 OFFCURVE",
"405 340 OFFCURVE",
"405 466 CURVE SMOOTH"
);
},
{
closed = 1;
nodes = (
"103 634 LINE SMOOTH",
"103 641 OFFCURVE",
"104 643 OFFCURVE",
"111 643 CURVE SMOOTH",
"213 643 LINE SMOOTH",
"324 643 OFFCURVE",
"372 594 OFFCURVE",
"372 466 CURVE SMOOTH",
"372 342 OFFCURVE",
"317 267 OFFCURVE",
"216 267 CURVE SMOOTH",
"110 267 LINE SMOOTH",
"107 267 OFFCURVE",
"103 269 OFFCURVE",
"103 275 CURVE SMOOTH"
);
}
);
width = 455;
},
{
anchors = (
{
name = bottom;
position = "{241, 0}";
},
{
name = top;
position = "{241, 673}";
}
);
background = {
paths = (
{
closed = 1;
nodes = (
"457 602 OFFCURVE",
"390 673 OFFCURVE",
"232 673 CURVE SMOOTH",
"55 673 LINE SMOOTH",
"47 673 OFFCURVE",
"40 667 OFFCURVE",
"40 658 CURVE SMOOTH",
"40 14 LINE SMOOTH",
"40 6 OFFCURVE",
"47 0 OFFCURVE",
"55 0 CURVE SMOOTH",
"176 0 LINE SMOOTH",
"185 0 OFFCURVE",
"192 6 OFFCURVE",
"192 14 CURVE SMOOTH",
"192 205 LINE SMOOTH",
"192 212 OFFCURVE",
"193 214 OFFCURVE",
"200 214 CURVE SMOOTH",
"243 214 LINE SMOOTH",
"384 214 OFFCURVE",
"457 324 OFFCURVE",
"457 453 CURVE SMOOTH"
);
},
{
closed = 1;
nodes = (
"192 560 LINE SMOOTH",
"192 569 OFFCURVE",
"193 569 OFFCURVE",
"199 569 CURVE SMOOTH",
"226 569 LINE SMOOTH",
"277 569 OFFCURVE",
"309 539 OFFCURVE",
"310 452 CURVE",
"310 371 OFFCURVE",
"279 323 OFFCURVE",
"228 323 CURVE SMOOTH",
"200 323 LINE SMOOTH",
"193 323 OFFCURVE",
"192 324 OFFCURVE",
"192 332 CURVE SMOOTH"
);
}
);
};
layerId = "D1BC8BBB-1669-4C46-BC21-42BF6808B2B9";
paths = (
{
closed = 1;
nodes = (
"457 602 OFFCURVE",
"390 673 OFFCURVE",
"232 673 CURVE SMOOTH",
"55 673 LINE SMOOTH",
"47 673 OFFCURVE",
"40 667 OFFCURVE",
"40 658 CURVE SMOOTH",
"40 14 LINE SMOOTH",
"40 6 OFFCURVE",
"47 0 OFFCURVE",
"55 0 CURVE SMOOTH",
"176 0 LINE SMOOTH",
"185 0 OFFCURVE",
"192 6 OFFCURVE",
"192 14 CURVE SMOOTH",
"192 205 LINE SMOOTH",
"192 212 OFFCURVE",
"193 214 OFFCURVE",
"200 214 CURVE SMOOTH",
"243 214 LINE SMOOTH",
"384 214 OFFCURVE",
"457 324 OFFCURVE",
"457 453 CURVE SMOOTH"
);
},
{
closed = 1;
nodes = (
"192 560 LINE SMOOTH",
"192 569 OFFCURVE",
"193 569 OFFCURVE",
"199 569 CURVE SMOOTH",
"226 569 LINE SMOOTH",
"277 569 OFFCURVE",
"309 539 OFFCURVE",
"310 452 CURVE",
"310 371 OFFCURVE",
"279 323 OFFCURVE",
"228 323 CURVE SMOOTH",
"200 323 LINE SMOOTH",
"193 323 OFFCURVE",
"192 324 OFFCURVE",
"192 332 CURVE SMOOTH"
);
}
);
width = 482;
}
);
note = P;
unicode = 0050;
},
